M48
;Layer_Color=9474304
;FILE_FORMAT=2:4
INCH,TZ
;TYPE=PLATED
T1F00S00C0.0157
T3F00S00C0.0433
;TYPE=NON_PLATED
T4F00S00C0.0248
T5F00S00C0.0669
T6F00S00C0.0866
T7F00S00C0.0945
%
T01
X-12106Y-14567
X-10728Y-14468
X-10827Y-14075
X-10520Y-14780
X-10236Y-15088
X-11651Y-13127
X-12402Y-12795
X-12500Y-12106
X-11457Y-11732
X-11417Y-10236
X-10728Y-10335
Y-10865
X-10433Y-10630
X-12810Y-10866
X-12894Y-10433
X-14468
Y-11024
X-10138Y-10865
Y-10335
X-7185Y-10728
X-7087Y-11319
X-7972Y-11710
X-7087Y-13150
X-7677Y-13740
X-8268Y-14075
X-8858
X-9449
X-5906Y-14882
X-5413Y-11319
Y-10728
X-3150Y-11220
X-2756
X-2362
X-2953Y-12598
X-1476Y-12992
X1417Y-12913
X1280Y-10827
X4134Y-12106
X5354Y-11289
X5413Y-13780
X6693Y-12402
X7579Y-11713
X7520Y-10953
X7480Y-10332
X6693Y-10433
X8563Y-12008
X8957Y-11714
X9547Y-12106
X10118Y-12126
X10731Y-12087
X10433Y-12598
X10335Y-10630
X11417Y-10433
X11319Y-11122
X8189Y-13780
X7480Y-9737
X6791Y-9744
X8957Y-8760
X9560Y-8515
X10394Y-8583
X10827Y-8661
X11220Y-8858
X11516Y-7480
X12520Y-9291
Y-10000
X12874Y-9646
X10039Y-9547
X6222Y-4477
X5599Y-4382
X6693Y2657
X7087Y3150
X5020Y984
X1969Y886
X1083Y1280
X1969Y-787
X0Y-2786
X-787Y-2461
X-1476Y-3839
X-1969Y-3346
X-2461Y-1181
Y591
X-1969Y197
X-7283Y1969
X-9409Y1929
X-6201Y4528
X-5610Y4429
X-6693Y-2657
X-7776Y-2854
Y-3937
X-7283Y-4528
X-6791Y-5118
X-6299Y-5512
X-5906Y-5807
X-4921Y-6791
X-4528Y-7087
X-2953Y-7677
X-2362Y-7283
X-3248Y-8366
X-3228Y-9449
X-2835
X-2441
X-3740
X-6988Y-9646
X-7087Y-6890
X-8528Y-7618
X-8563Y-8169
X2559Y-6690
X2936Y-7021
X-10669Y-6929
X-11909Y-7677
X-12205Y-7972
X-12598Y-8268
X-12618Y-8681
X-12598Y-7382
X-14272Y-8957
X-12303Y2854
X-10433Y984
X-11417Y5610
X-10433Y11220
X-10335Y11811
X-12303
X-12894Y10925
X-9055
X-9843Y9843
Y9252
X-8760Y7579
X-8071Y7972
X-5315Y8071
X-6004Y6398
X-3150Y7087
X-2657Y6693
X-3346Y9547
Y10532
X-4035Y10827
X-4528Y11220
X-5512Y11024
X-6496Y9941
X-4035Y12992
X4528Y6299
X4429Y5610
T03
X-4331Y-14878
Y-13878
Y-12878
T04
X-1181Y-13976
X1181
T05
X-4035Y-0
X2018Y3495
X2018Y-3495
T06
X13780Y-0
X-13780
T07
X-0Y-11732
X11732Y-0
X-11732
X-0Y11732
M30
