G04*
G04 #@! TF.GenerationSoftware,Altium Limited,Altium Designer,23.1.1 (15)*
G04*
G04 Layer_Physical_Order=2*
G04 Layer_Color=36540*
%FSLAX25Y25*%
%MOIN*%
G70*
G04*
G04 #@! TF.SameCoordinates,C2BF6480-066F-44F4-8187-D28EFCB1F43C*
G04*
G04*
G04 #@! TF.FilePolarity,Positive*
G04*
G01*
G75*
%ADD129C,0.06890*%
%ADD130C,0.03150*%
G36*
X145074Y159040D02*
X147016Y158784D01*
X148909Y158277D01*
X150719Y157527D01*
X152415Y156548D01*
X153970Y155355D01*
X155355Y153970D01*
X156548Y152415D01*
X157527Y150719D01*
X158277Y148909D01*
X158784Y147016D01*
X159040Y145074D01*
X159040Y144095D01*
X159040Y-144095D01*
X159040Y-145074D01*
X158784Y-147017D01*
X158277Y-148909D01*
X157527Y-150719D01*
X156548Y-152415D01*
X155355Y-153970D01*
X153970Y-155355D01*
X152415Y-156548D01*
X150719Y-157527D01*
X148909Y-158277D01*
X147016Y-158784D01*
X145074Y-159040D01*
X144095Y-159040D01*
X-144095Y-159040D01*
X-145074Y-159040D01*
X-147016Y-158784D01*
X-148909Y-158277D01*
X-150719Y-157527D01*
X-152415Y-156548D01*
X-153970Y-155355D01*
X-155355Y-153970D01*
X-156548Y-152416D01*
X-157527Y-150719D01*
X-158277Y-148909D01*
X-158784Y-147017D01*
X-159040Y-145074D01*
Y-144095D01*
Y144095D01*
X-159040Y145074D01*
X-158784Y147016D01*
X-158277Y148909D01*
X-157527Y150719D01*
X-156548Y152415D01*
X-155355Y153970D01*
X-153970Y155355D01*
X-152416Y156548D01*
X-150719Y157527D01*
X-148909Y158277D01*
X-147016Y158784D01*
X-145074Y159040D01*
X-144095Y159040D01*
X144094Y159040D01*
X145074Y159040D01*
D02*
G37*
%LPC*%
G36*
X-102914Y120285D02*
X-103779D01*
X-104578Y119954D01*
X-105190Y119342D01*
X-105521Y118543D01*
Y117678D01*
X-105190Y116878D01*
X-104578Y116267D01*
X-103779Y115935D01*
X-102914D01*
X-102114Y116267D01*
X-101503Y116878D01*
X-101172Y117678D01*
Y118543D01*
X-101503Y119342D01*
X-102114Y119954D01*
X-102914Y120285D01*
D02*
G37*
G36*
X-122599D02*
X-123464D01*
X-124263Y119954D01*
X-124875Y119342D01*
X-125206Y118543D01*
Y117678D01*
X-124875Y116878D01*
X-124263Y116267D01*
X-123464Y115935D01*
X-122599D01*
X-121800Y116267D01*
X-121188Y116878D01*
X-120857Y117678D01*
Y118543D01*
X-121188Y119342D01*
X-121800Y119954D01*
X-122599Y120285D01*
D02*
G37*
G36*
X-103898Y114380D02*
X-104763D01*
X-105563Y114048D01*
X-106174Y113437D01*
X-106506Y112637D01*
Y111772D01*
X-106174Y110973D01*
X-105563Y110361D01*
X-104763Y110030D01*
X-103898D01*
X-103099Y110361D01*
X-102487Y110973D01*
X-102156Y111772D01*
Y112637D01*
X-102487Y113437D01*
X-103099Y114048D01*
X-103898Y114380D01*
D02*
G37*
G36*
X-0Y125838D02*
X-1661Y125674D01*
X-3259Y125190D01*
X-4731Y124403D01*
X-6021Y123344D01*
X-7080Y122054D01*
X-7867Y120581D01*
X-8351Y118984D01*
X-8515Y117323D01*
X-8351Y115662D01*
X-7867Y114064D01*
X-7080Y112592D01*
X-6021Y111302D01*
X-4731Y110243D01*
X-3259Y109456D01*
X-1661Y108971D01*
X-0Y108808D01*
X1661Y108971D01*
X3258Y109456D01*
X4731Y110243D01*
X6021Y111302D01*
X7080Y112592D01*
X7867Y114064D01*
X8351Y115662D01*
X8515Y117323D01*
X8351Y118984D01*
X7867Y120581D01*
X7080Y122054D01*
X6021Y123344D01*
X4731Y124403D01*
X3258Y125190D01*
X1661Y125674D01*
X-0Y125838D01*
D02*
G37*
G36*
X-128504Y111427D02*
X-129370D01*
X-130169Y111096D01*
X-130781Y110484D01*
X-131112Y109685D01*
Y108819D01*
X-130781Y108020D01*
X-130169Y107408D01*
X-129370Y107077D01*
X-128504D01*
X-127705Y107408D01*
X-127093Y108020D01*
X-126762Y108819D01*
Y109685D01*
X-127093Y110484D01*
X-127705Y111096D01*
X-128504Y111427D01*
D02*
G37*
G36*
X-14764Y138815D02*
X-72835D01*
X-73225Y138737D01*
X-73556Y138516D01*
X-73777Y138186D01*
X-73854Y137795D01*
Y88583D01*
X-73777Y88192D01*
X-73556Y87862D01*
X-73225Y87641D01*
X-72835Y87563D01*
X-36417D01*
X-36027Y87641D01*
X-35696Y87862D01*
X-14043Y109515D01*
X-13822Y109846D01*
X-13744Y110236D01*
Y137795D01*
X-13822Y138186D01*
X-14043Y138516D01*
X-14374Y138737D01*
X-14764Y138815D01*
D02*
G37*
G36*
X-80276Y81899D02*
X-81141D01*
X-81941Y81568D01*
X-82552Y80956D01*
X-82884Y80157D01*
Y79292D01*
X-82552Y78492D01*
X-81941Y77881D01*
X-81141Y77550D01*
X-80276D01*
X-79477Y77881D01*
X-78865Y78492D01*
X-78534Y79292D01*
Y80157D01*
X-78865Y80956D01*
X-79477Y81568D01*
X-80276Y81899D01*
D02*
G37*
G36*
X-87166Y77962D02*
X-88031D01*
X-88830Y77631D01*
X-89442Y77019D01*
X-89773Y76220D01*
Y75355D01*
X-89442Y74555D01*
X-88830Y73944D01*
X-88031Y73613D01*
X-87166D01*
X-86366Y73944D01*
X-85755Y74555D01*
X-85424Y75355D01*
Y76220D01*
X-85755Y77019D01*
X-86366Y77631D01*
X-87166Y77962D01*
D02*
G37*
G36*
X20177Y41485D02*
X18902Y41359D01*
X17676Y40987D01*
X16545Y40383D01*
X15555Y39570D01*
X14742Y38580D01*
X14138Y37449D01*
X13766Y36223D01*
X13640Y34948D01*
X13766Y33673D01*
X14138Y32446D01*
X14742Y31316D01*
X15555Y30325D01*
X16545Y29513D01*
X17676Y28909D01*
X18902Y28536D01*
X20177Y28411D01*
X21452Y28536D01*
X22679Y28909D01*
X23809Y29513D01*
X24800Y30325D01*
X25613Y31316D01*
X26217Y32446D01*
X26588Y33673D01*
X26714Y34948D01*
X26588Y36223D01*
X26217Y37449D01*
X25613Y38580D01*
X24800Y39570D01*
X23809Y40383D01*
X22679Y40987D01*
X21452Y41359D01*
X20177Y41485D01*
D02*
G37*
G36*
X12203Y94681D02*
X11419D01*
X11029Y94603D01*
X10306Y94304D01*
X9975Y94083D01*
X9421Y93529D01*
X9200Y93198D01*
X8901Y92475D01*
X8823Y92084D01*
Y91693D01*
X8823Y91692D01*
X8823Y91692D01*
X8861Y59861D01*
Y59520D01*
X8895Y59349D01*
X8920Y59176D01*
X9151Y58533D01*
X9241Y58383D01*
X9323Y58229D01*
X9757Y57701D01*
X9892Y57590D01*
X10022Y57473D01*
X10609Y57122D01*
X10773Y57063D01*
X10935Y56997D01*
X11261Y56933D01*
X13352Y56478D01*
X17487Y55338D01*
X21518Y53898D01*
X25432Y52166D01*
X29207Y50150D01*
X32824Y47861D01*
X36262Y45311D01*
X39503Y42516D01*
X42529Y39489D01*
X45323Y36247D01*
X47871Y32808D01*
X50159Y29191D01*
X52174Y25415D01*
X53905Y21500D01*
X55343Y17469D01*
X56483Y13334D01*
X56938Y11233D01*
X56939Y11232D01*
X56939Y11231D01*
X56940Y11223D01*
X57005Y10897D01*
X57071Y10736D01*
X57130Y10571D01*
X57481Y9984D01*
X57598Y9855D01*
X57709Y9720D01*
X58237Y9285D01*
X58391Y9203D01*
X58540Y9113D01*
X59184Y8883D01*
X59357Y8857D01*
X59528Y8823D01*
X59870D01*
X91693Y8823D01*
X92084D01*
X92475Y8901D01*
X93198Y9200D01*
X93529Y9421D01*
X94083Y9975D01*
X94304Y10306D01*
X94603Y11029D01*
X94681Y11419D01*
Y12203D01*
X94603Y12593D01*
X94304Y13316D01*
X94083Y13647D01*
X93529Y14201D01*
X93198Y14422D01*
X92475Y14721D01*
X92084Y14799D01*
X63116D01*
X63106Y14802D01*
X62908Y14818D01*
X62575Y14933D01*
X62332Y15123D01*
X62141Y15418D01*
X62090Y15566D01*
X61584Y17590D01*
X61569Y17622D01*
X61565Y17657D01*
X60256Y21707D01*
X60239Y21738D01*
X60233Y21772D01*
X58654Y25725D01*
X58635Y25754D01*
X58626Y25788D01*
X56783Y29625D01*
X56762Y29653D01*
X56752Y29687D01*
X54654Y33391D01*
X54631Y33417D01*
X54618Y33450D01*
X52276Y37004D01*
X52251Y37029D01*
X52236Y37060D01*
X49658Y40448D01*
X49632Y40471D01*
X49615Y40502D01*
X46815Y43708D01*
X46787Y43729D01*
X46768Y43758D01*
X43758Y46768D01*
X43729Y46788D01*
X43707Y46815D01*
X40501Y49615D01*
X40471Y49633D01*
X40448Y49659D01*
X37060Y52236D01*
X37028Y52251D01*
X37003Y52276D01*
X33449Y54619D01*
X33417Y54632D01*
X33390Y54655D01*
X29686Y56752D01*
X29653Y56763D01*
X29625Y56784D01*
X25787Y58626D01*
X25754Y58635D01*
X25724Y58654D01*
X21771Y60233D01*
X21737Y60240D01*
X21707Y60257D01*
X17656Y61565D01*
X17621Y61569D01*
X17590Y61584D01*
X15566Y62090D01*
X15418Y62141D01*
X15123Y62332D01*
X14933Y62575D01*
X14819Y62908D01*
X14806Y63064D01*
X14799Y91693D01*
X14799Y91693D01*
Y92084D01*
X14721Y92475D01*
X14422Y93198D01*
X14201Y93529D01*
X13647Y94083D01*
X13316Y94304D01*
X12593Y94603D01*
X12203Y94681D01*
D02*
G37*
G36*
X-11419Y94681D02*
X-12203D01*
X-12593Y94603D01*
X-13316Y94304D01*
X-13647Y94083D01*
X-14201Y93529D01*
X-14422Y93198D01*
X-14721Y92475D01*
X-14799Y92084D01*
Y91693D01*
Y63116D01*
X-14802Y63106D01*
X-14818Y62908D01*
X-14933Y62575D01*
X-15123Y62332D01*
X-15418Y62141D01*
X-15566Y62090D01*
X-17590Y61584D01*
X-17622Y61569D01*
X-17657Y61565D01*
X-21707Y60256D01*
X-21738Y60239D01*
X-21772Y60233D01*
X-25725Y58654D01*
X-25754Y58635D01*
X-25788Y58626D01*
X-29625Y56783D01*
X-29653Y56762D01*
X-29687Y56752D01*
X-33391Y54654D01*
X-33417Y54631D01*
X-33450Y54618D01*
X-37004Y52276D01*
X-37029Y52251D01*
X-37060Y52236D01*
X-40448Y49658D01*
X-40471Y49632D01*
X-40502Y49615D01*
X-43708Y46815D01*
X-43729Y46787D01*
X-43758Y46768D01*
X-46768Y43758D01*
X-46788Y43729D01*
X-46815Y43707D01*
X-49615Y40501D01*
X-49633Y40471D01*
X-49659Y40448D01*
X-52236Y37060D01*
X-52251Y37028D01*
X-52276Y37003D01*
X-54619Y33449D01*
X-54632Y33417D01*
X-54655Y33390D01*
X-56752Y29686D01*
X-56763Y29653D01*
X-56784Y29625D01*
X-58626Y25787D01*
X-58635Y25754D01*
X-58654Y25724D01*
X-60233Y21771D01*
X-60240Y21737D01*
X-60257Y21707D01*
X-61565Y17656D01*
X-61569Y17621D01*
X-61584Y17590D01*
X-62090Y15566D01*
X-62141Y15418D01*
X-62332Y15123D01*
X-62575Y14933D01*
X-62908Y14819D01*
X-63064Y14806D01*
X-91693Y14799D01*
X-92084D01*
X-92475Y14721D01*
X-93198Y14422D01*
X-93529Y14201D01*
X-94083Y13647D01*
X-94304Y13316D01*
X-94603Y12593D01*
X-94681Y12203D01*
Y11419D01*
X-94603Y11029D01*
X-94304Y10306D01*
X-94083Y9975D01*
X-93529Y9421D01*
X-93198Y9200D01*
X-92475Y8901D01*
X-92084Y8823D01*
X-91693D01*
X-91692Y8823D01*
X-91692Y8823D01*
X-59861Y8861D01*
X-59520D01*
X-59349Y8895D01*
X-59176Y8920D01*
X-58533Y9151D01*
X-58383Y9241D01*
X-58229Y9323D01*
X-57701Y9757D01*
X-57590Y9892D01*
X-57473Y10022D01*
X-57122Y10609D01*
X-57064Y10773D01*
X-56997Y10935D01*
X-56933Y11261D01*
X-56478Y13352D01*
X-55338Y17487D01*
X-53898Y21518D01*
X-52166Y25432D01*
X-50150Y29207D01*
X-47861Y32824D01*
X-45311Y36262D01*
X-42516Y39503D01*
X-39489Y42529D01*
X-36247Y45323D01*
X-32808Y47871D01*
X-29191Y50159D01*
X-25415Y52174D01*
X-21500Y53905D01*
X-17469Y55343D01*
X-13334Y56483D01*
X-11233Y56938D01*
X-11232Y56939D01*
X-11231Y56939D01*
X-11223Y56940D01*
X-10897Y57005D01*
X-10736Y57071D01*
X-10571Y57130D01*
X-9984Y57481D01*
X-9855Y57598D01*
X-9720Y57708D01*
X-9286Y58237D01*
X-9203Y58391D01*
X-9113Y58540D01*
X-8883Y59184D01*
X-8857Y59357D01*
X-8823Y59528D01*
X-8823Y59870D01*
X-8823Y91693D01*
Y92084D01*
X-8901Y92475D01*
X-9200Y93198D01*
X-9421Y93529D01*
X-9975Y94083D01*
X-10306Y94304D01*
X-11029Y94603D01*
X-11419Y94681D01*
D02*
G37*
G36*
X50630Y12017D02*
X49764D01*
X48965Y11686D01*
X48353Y11074D01*
X48022Y10275D01*
Y9410D01*
X48353Y8611D01*
X48965Y7999D01*
X49764Y7668D01*
X50630D01*
X51429Y7999D01*
X52041Y8611D01*
X52372Y9410D01*
Y10275D01*
X52041Y11074D01*
X51429Y11686D01*
X50630Y12017D01*
D02*
G37*
G36*
X-103898D02*
X-104763D01*
X-105563Y11686D01*
X-106174Y11074D01*
X-106506Y10275D01*
Y9410D01*
X-106174Y8611D01*
X-105563Y7999D01*
X-104763Y7668D01*
X-103898D01*
X-103099Y7999D01*
X-102487Y8611D01*
X-102156Y9410D01*
Y10275D01*
X-102487Y11074D01*
X-103099Y11686D01*
X-103898Y12017D01*
D02*
G37*
G36*
X-40354Y6537D02*
X-41630Y6411D01*
X-42856Y6039D01*
X-43986Y5435D01*
X-44977Y4622D01*
X-45790Y3632D01*
X-46394Y2502D01*
X-46766Y1275D01*
X-46891Y-0D01*
X-46766Y-1275D01*
X-46394Y-2502D01*
X-45790Y-3632D01*
X-44977Y-4622D01*
X-43986Y-5435D01*
X-42856Y-6039D01*
X-41630Y-6411D01*
X-40354Y-6537D01*
X-39079Y-6411D01*
X-37853Y-6039D01*
X-36723Y-5435D01*
X-35732Y-4622D01*
X-34919Y-3632D01*
X-34315Y-2502D01*
X-33943Y-1275D01*
X-33817Y-0D01*
X-33943Y1275D01*
X-34315Y2502D01*
X-34919Y3632D01*
X-35732Y4622D01*
X-36723Y5435D01*
X-37853Y6039D01*
X-39079Y6411D01*
X-40354Y6537D01*
D02*
G37*
G36*
X137795Y8515D02*
X136134Y8351D01*
X134537Y7867D01*
X133065Y7080D01*
X131774Y6021D01*
X130715Y4731D01*
X129928Y3258D01*
X129444Y1661D01*
X129280Y-0D01*
X129444Y-1661D01*
X129928Y-3259D01*
X130715Y-4731D01*
X131774Y-6021D01*
X133065Y-7080D01*
X134537Y-7867D01*
X136134Y-8351D01*
X137795Y-8515D01*
X139456Y-8351D01*
X141054Y-7867D01*
X142526Y-7080D01*
X143816Y-6021D01*
X144875Y-4731D01*
X145662Y-3259D01*
X146147Y-1661D01*
X146310Y-0D01*
X146147Y1661D01*
X145662Y3258D01*
X144875Y4731D01*
X143816Y6021D01*
X142526Y7080D01*
X141054Y7867D01*
X139456Y8351D01*
X137795Y8515D01*
D02*
G37*
G36*
X117323D02*
X115662Y8351D01*
X114064Y7867D01*
X112592Y7080D01*
X111302Y6021D01*
X110243Y4731D01*
X109456Y3258D01*
X108971Y1661D01*
X108808Y-0D01*
X108971Y-1661D01*
X109456Y-3259D01*
X110243Y-4731D01*
X111302Y-6021D01*
X112592Y-7080D01*
X114064Y-7867D01*
X115662Y-8351D01*
X117323Y-8515D01*
X118984Y-8351D01*
X120581Y-7867D01*
X122054Y-7080D01*
X123344Y-6021D01*
X124403Y-4731D01*
X125190Y-3259D01*
X125674Y-1661D01*
X125838Y-0D01*
X125674Y1661D01*
X125190Y3258D01*
X124403Y4731D01*
X123344Y6021D01*
X122054Y7080D01*
X120581Y7867D01*
X118984Y8351D01*
X117323Y8515D01*
D02*
G37*
G36*
X-117323D02*
X-118984Y8351D01*
X-120581Y7867D01*
X-122054Y7080D01*
X-123344Y6021D01*
X-124403Y4731D01*
X-125190Y3258D01*
X-125674Y1661D01*
X-125838Y-0D01*
X-125674Y-1661D01*
X-125190Y-3259D01*
X-124403Y-4731D01*
X-123344Y-6021D01*
X-122054Y-7080D01*
X-120581Y-7867D01*
X-118984Y-8351D01*
X-117323Y-8515D01*
X-115662Y-8351D01*
X-114064Y-7867D01*
X-112592Y-7080D01*
X-111302Y-6021D01*
X-110243Y-4731D01*
X-109456Y-3259D01*
X-108971Y-1661D01*
X-108808Y-0D01*
X-108971Y1661D01*
X-109456Y3258D01*
X-110243Y4731D01*
X-111302Y6021D01*
X-112592Y7080D01*
X-114064Y7867D01*
X-115662Y8351D01*
X-117323Y8515D01*
D02*
G37*
G36*
X-137795D02*
X-139456Y8351D01*
X-141054Y7867D01*
X-142526Y7080D01*
X-143816Y6021D01*
X-144875Y4731D01*
X-145662Y3258D01*
X-146147Y1661D01*
X-146310Y-0D01*
X-146147Y-1661D01*
X-145662Y-3259D01*
X-144875Y-4731D01*
X-143816Y-6021D01*
X-142526Y-7080D01*
X-141054Y-7867D01*
X-139456Y-8351D01*
X-137795Y-8515D01*
X-136134Y-8351D01*
X-134537Y-7867D01*
X-133065Y-7080D01*
X-131774Y-6021D01*
X-130715Y-4731D01*
X-129928Y-3259D01*
X-129444Y-1661D01*
X-129280Y-0D01*
X-129444Y1661D01*
X-129928Y3258D01*
X-130715Y4731D01*
X-131774Y6021D01*
X-133065Y7080D01*
X-134537Y7867D01*
X-136134Y8351D01*
X-137795Y8515D01*
D02*
G37*
G36*
X92084Y-8823D02*
X91693D01*
X91692Y-8823D01*
X91692Y-8823D01*
X59861Y-8861D01*
X59861Y-8861D01*
X59520D01*
X59349Y-8895D01*
X59176Y-8920D01*
X58533Y-9151D01*
X58383Y-9241D01*
X58229Y-9323D01*
X57701Y-9757D01*
X57590Y-9892D01*
X57473Y-10022D01*
X57122Y-10609D01*
X57063Y-10773D01*
X56997Y-10935D01*
X56933Y-11261D01*
X56478Y-13352D01*
X55338Y-17487D01*
X53898Y-21518D01*
X52166Y-25432D01*
X50150Y-29207D01*
X47861Y-32824D01*
X45311Y-36262D01*
X42516Y-39503D01*
X39489Y-42529D01*
X36247Y-45323D01*
X32808Y-47871D01*
X29191Y-50159D01*
X25415Y-52174D01*
X21500Y-53905D01*
X17469Y-55343D01*
X13334Y-56483D01*
X11233Y-56938D01*
X11232Y-56938D01*
X11232Y-56938D01*
X11223Y-56941D01*
X10897Y-57005D01*
X10736Y-57071D01*
X10571Y-57130D01*
X9984Y-57481D01*
X9855Y-57598D01*
X9720Y-57709D01*
X9285Y-58237D01*
X9203Y-58391D01*
X9113Y-58540D01*
X8883Y-59184D01*
X8857Y-59357D01*
X8823Y-59528D01*
Y-59870D01*
X8823Y-91693D01*
Y-92084D01*
X8901Y-92475D01*
X9200Y-93198D01*
X9421Y-93529D01*
X9975Y-94083D01*
X10306Y-94304D01*
X11029Y-94603D01*
X11419Y-94681D01*
X12203D01*
X12593Y-94603D01*
X13316Y-94304D01*
X13647Y-94083D01*
X14201Y-93529D01*
X14422Y-93198D01*
X14721Y-92475D01*
X14799Y-92084D01*
Y-91693D01*
Y-63116D01*
X14802Y-63106D01*
X14818Y-62908D01*
X14933Y-62575D01*
X15123Y-62332D01*
X15418Y-62141D01*
X15566Y-62090D01*
X17590Y-61584D01*
X17622Y-61569D01*
X17657Y-61565D01*
X21707Y-60256D01*
X21738Y-60239D01*
X21772Y-60233D01*
X25725Y-58654D01*
X25754Y-58635D01*
X25788Y-58626D01*
X29625Y-56783D01*
X29653Y-56762D01*
X29687Y-56752D01*
X33391Y-54654D01*
X33417Y-54631D01*
X33450Y-54618D01*
X37004Y-52276D01*
X37029Y-52251D01*
X37060Y-52236D01*
X40448Y-49658D01*
X40471Y-49632D01*
X40502Y-49615D01*
X43708Y-46815D01*
X43729Y-46787D01*
X43758Y-46768D01*
X46768Y-43758D01*
X46788Y-43729D01*
X46815Y-43707D01*
X49615Y-40501D01*
X49633Y-40471D01*
X49659Y-40448D01*
X52236Y-37060D01*
X52251Y-37028D01*
X52276Y-37003D01*
X54619Y-33449D01*
X54632Y-33417D01*
X54655Y-33390D01*
X56752Y-29686D01*
X56763Y-29653D01*
X56784Y-29625D01*
X58626Y-25787D01*
X58635Y-25754D01*
X58654Y-25724D01*
X60233Y-21771D01*
X60240Y-21737D01*
X60257Y-21707D01*
X61565Y-17656D01*
X61569Y-17621D01*
X61584Y-17590D01*
X62090Y-15565D01*
X62141Y-15418D01*
X62332Y-15123D01*
X62575Y-14933D01*
X62908Y-14819D01*
X63064Y-14806D01*
X91693Y-14799D01*
X92084D01*
X92475Y-14721D01*
X93198Y-14422D01*
X93529Y-14201D01*
X94083Y-13647D01*
X94304Y-13316D01*
X94603Y-12593D01*
X94681Y-12203D01*
Y-11419D01*
X94603Y-11029D01*
X94304Y-10306D01*
X94083Y-9975D01*
X93529Y-9421D01*
X93198Y-9200D01*
X92475Y-8901D01*
X92084Y-8823D01*
D02*
G37*
G36*
X38677Y14799D02*
X30221D01*
X30123Y14780D01*
X30022D01*
X29452Y14666D01*
X29359Y14628D01*
X29260Y14608D01*
X28723Y14385D01*
X28640Y14330D01*
X28547Y14291D01*
X28063Y13968D01*
X27992Y13897D01*
X27909Y13841D01*
X27497Y13430D01*
X27441Y13347D01*
X27371Y13275D01*
X27047Y12792D01*
X27009Y12699D01*
X26953Y12616D01*
X26730Y12078D01*
X26711Y11980D01*
X26673Y11887D01*
X26559Y11316D01*
Y11216D01*
X26539Y11118D01*
Y10827D01*
Y-10827D01*
X26539Y-10827D01*
Y-11118D01*
X26559Y-11216D01*
Y-11316D01*
X26673Y-11887D01*
X26711Y-11980D01*
X26731Y-12078D01*
X26953Y-12616D01*
X27009Y-12699D01*
X27047Y-12792D01*
X27371Y-13275D01*
X27441Y-13347D01*
X27497Y-13430D01*
X27909Y-13841D01*
X27992Y-13897D01*
X28063Y-13968D01*
X28547Y-14291D01*
X28640Y-14330D01*
X28723Y-14386D01*
X29260Y-14608D01*
X29359Y-14628D01*
X29452Y-14666D01*
X30022Y-14780D01*
X30123D01*
X30221Y-14799D01*
X38677Y-14799D01*
X38775Y-14780D01*
X38876D01*
X39446Y-14666D01*
X39539Y-14628D01*
X39637Y-14608D01*
X40175Y-14386D01*
X40258Y-14330D01*
X40351Y-14291D01*
X40835Y-13968D01*
X40906Y-13897D01*
X40989Y-13841D01*
X41400Y-13430D01*
X41456Y-13347D01*
X41527Y-13275D01*
X41850Y-12792D01*
X41889Y-12699D01*
X41945Y-12616D01*
X42167Y-12078D01*
X42187Y-11980D01*
X42225Y-11887D01*
X42339Y-11316D01*
Y-11216D01*
X42358Y-11118D01*
Y-10827D01*
Y10827D01*
Y11118D01*
X42339Y11216D01*
Y11316D01*
X42225Y11887D01*
X42187Y11980D01*
X42167Y12078D01*
X41945Y12616D01*
X41889Y12699D01*
X41850Y12792D01*
X41527Y13275D01*
X41456Y13347D01*
X41400Y13430D01*
X40989Y13841D01*
X40905Y13897D01*
X40835Y13968D01*
X40351Y14291D01*
X40258Y14330D01*
X40175Y14385D01*
X39637Y14608D01*
X39539Y14628D01*
X39446Y14666D01*
X38876Y14780D01*
X38775D01*
X38677Y14799D01*
D02*
G37*
G36*
X-7441Y-22432D02*
X-8307D01*
X-9106Y-22763D01*
X-9718Y-23374D01*
X-10049Y-24174D01*
Y-25039D01*
X-9718Y-25838D01*
X-9106Y-26450D01*
X-8307Y-26781D01*
X-7441D01*
X-6642Y-26450D01*
X-6030Y-25838D01*
X-5699Y-25039D01*
Y-24174D01*
X-6030Y-23374D01*
X-6642Y-22763D01*
X-7441Y-22432D01*
D02*
G37*
G36*
X433Y-25681D02*
X-433D01*
X-1232Y-26012D01*
X-1844Y-26624D01*
X-2175Y-27423D01*
Y-28288D01*
X-1844Y-29088D01*
X-1232Y-29699D01*
X-433Y-30031D01*
X433D01*
X1232Y-29699D01*
X1844Y-29088D01*
X2175Y-28288D01*
Y-27423D01*
X1844Y-26624D01*
X1232Y-26012D01*
X433Y-25681D01*
D02*
G37*
G36*
X-77323Y-26368D02*
X-78189D01*
X-78988Y-26700D01*
X-79600Y-27311D01*
X-79931Y-28111D01*
Y-28976D01*
X-79600Y-29775D01*
X-78988Y-30387D01*
X-78189Y-30718D01*
X-77323D01*
X-76524Y-30387D01*
X-75912Y-29775D01*
X-75581Y-28976D01*
Y-28111D01*
X-75912Y-27311D01*
X-76524Y-26700D01*
X-77323Y-26368D01*
D02*
G37*
G36*
X-27257Y-20914D02*
X-28420D01*
X-28519Y-20933D01*
X-28619D01*
X-29760Y-21160D01*
X-29853Y-21199D01*
X-29952Y-21218D01*
X-31026Y-21664D01*
X-31110Y-21719D01*
X-31203Y-21758D01*
X-32170Y-22404D01*
X-32241Y-22475D01*
X-32324Y-22531D01*
X-33147Y-23353D01*
X-33203Y-23437D01*
X-33274Y-23508D01*
X-33920Y-24475D01*
X-33958Y-24568D01*
X-34014Y-24651D01*
X-34459Y-25726D01*
X-34479Y-25825D01*
X-34517Y-25917D01*
X-34744Y-27058D01*
Y-27159D01*
X-34764Y-27257D01*
Y-28420D01*
X-34744Y-28519D01*
Y-28619D01*
X-34517Y-29760D01*
X-34479Y-29853D01*
X-34459Y-29952D01*
X-34014Y-31026D01*
X-33958Y-31110D01*
X-33920Y-31203D01*
X-33274Y-32170D01*
X-33203Y-32241D01*
X-33147Y-32324D01*
X-32324Y-33147D01*
X-32241Y-33203D01*
X-32170Y-33274D01*
X-31203Y-33920D01*
X-31110Y-33958D01*
X-31026Y-34014D01*
X-29952Y-34459D01*
X-29853Y-34479D01*
X-29760Y-34517D01*
X-28619Y-34744D01*
X-28519D01*
X-28420Y-34764D01*
X-27257D01*
X-27159Y-34744D01*
X-27058D01*
X-25917Y-34517D01*
X-25825Y-34479D01*
X-25726Y-34459D01*
X-24651Y-34014D01*
X-24568Y-33958D01*
X-24475Y-33920D01*
X-23508Y-33274D01*
X-23437Y-33203D01*
X-23353Y-33147D01*
X-22531Y-32324D01*
X-22475Y-32241D01*
X-22404Y-32170D01*
X-21758Y-31203D01*
X-21719Y-31110D01*
X-21664Y-31026D01*
X-21218Y-29952D01*
X-21199Y-29853D01*
X-21160Y-29760D01*
X-20933Y-28619D01*
Y-28519D01*
X-20914Y-28420D01*
Y-27257D01*
X-20933Y-27159D01*
Y-27058D01*
X-21160Y-25917D01*
X-21199Y-25825D01*
X-21218Y-25726D01*
X-21664Y-24651D01*
X-21719Y-24568D01*
X-21758Y-24475D01*
X-22404Y-23508D01*
X-22475Y-23437D01*
X-22531Y-23353D01*
X-23353Y-22531D01*
X-23437Y-22475D01*
X-23508Y-22404D01*
X-24475Y-21758D01*
X-24568Y-21719D01*
X-24651Y-21664D01*
X-25726Y-21218D01*
X-25825Y-21199D01*
X-25917Y-21160D01*
X-27058Y-20933D01*
X-27159D01*
X-27257Y-20914D01*
D02*
G37*
G36*
X-19252Y-31290D02*
X-20118D01*
X-20917Y-31621D01*
X-21529Y-32233D01*
X-21860Y-33032D01*
Y-33897D01*
X-21529Y-34696D01*
X-20917Y-35308D01*
X-20118Y-35639D01*
X-19252D01*
X-18453Y-35308D01*
X-17841Y-34696D01*
X-17510Y-33897D01*
Y-33032D01*
X-17841Y-32233D01*
X-18453Y-31621D01*
X-19252Y-31290D01*
D02*
G37*
G36*
X-14331Y-36211D02*
X-15196D01*
X-15996Y-36542D01*
X-16608Y-37154D01*
X-16939Y-37953D01*
Y-38818D01*
X-16608Y-39618D01*
X-15996Y-40229D01*
X-15196Y-40561D01*
X-14331D01*
X-13532Y-40229D01*
X-12920Y-39618D01*
X-12589Y-38818D01*
Y-37953D01*
X-12920Y-37154D01*
X-13532Y-36542D01*
X-14331Y-36211D01*
D02*
G37*
G36*
X20177Y-28412D02*
X18902Y-28537D01*
X17676Y-28909D01*
X16545Y-29513D01*
X15555Y-30327D01*
X14742Y-31317D01*
X14138Y-32447D01*
X13766Y-33674D01*
X13640Y-34949D01*
X13766Y-36224D01*
X14138Y-37450D01*
X14742Y-38581D01*
X15555Y-39571D01*
X16545Y-40384D01*
X17676Y-40988D01*
X18902Y-41360D01*
X20177Y-41486D01*
X21452Y-41360D01*
X22679Y-40988D01*
X23809Y-40384D01*
X24800Y-39571D01*
X25613Y-38581D01*
X26217Y-37450D01*
X26588Y-36224D01*
X26714Y-34949D01*
X26588Y-33674D01*
X26217Y-32447D01*
X25613Y-31317D01*
X24800Y-30327D01*
X23809Y-29513D01*
X22679Y-28909D01*
X21452Y-28537D01*
X20177Y-28412D01*
D02*
G37*
G36*
X-77323Y-37195D02*
X-78189D01*
X-78988Y-37526D01*
X-79600Y-38138D01*
X-79931Y-38938D01*
Y-39803D01*
X-79600Y-40602D01*
X-78988Y-41214D01*
X-78189Y-41545D01*
X-77323D01*
X-76524Y-41214D01*
X-75912Y-40602D01*
X-75581Y-39803D01*
Y-38938D01*
X-75912Y-38138D01*
X-76524Y-37526D01*
X-77323Y-37195D01*
D02*
G37*
G36*
X-72402Y-43101D02*
X-73267D01*
X-74067Y-43432D01*
X-74678Y-44044D01*
X-75010Y-44843D01*
Y-45708D01*
X-74678Y-46507D01*
X-74067Y-47119D01*
X-73267Y-47450D01*
X-72402D01*
X-71603Y-47119D01*
X-70991Y-46507D01*
X-70660Y-45708D01*
Y-44843D01*
X-70991Y-44044D01*
X-71603Y-43432D01*
X-72402Y-43101D01*
D02*
G37*
G36*
X-67481Y-49006D02*
X-68346D01*
X-69145Y-49337D01*
X-69757Y-49949D01*
X-70088Y-50748D01*
Y-51614D01*
X-69757Y-52413D01*
X-69145Y-53025D01*
X-68346Y-53356D01*
X-67481D01*
X-66681Y-53025D01*
X-66070Y-52413D01*
X-65739Y-51614D01*
Y-50748D01*
X-66070Y-49949D01*
X-66681Y-49337D01*
X-67481Y-49006D01*
D02*
G37*
G36*
X-62559Y-52943D02*
X-63425D01*
X-64224Y-53274D01*
X-64836Y-53886D01*
X-65167Y-54685D01*
Y-55551D01*
X-64836Y-56350D01*
X-64224Y-56962D01*
X-63425Y-57293D01*
X-62559D01*
X-61760Y-56962D01*
X-61148Y-56350D01*
X-60817Y-55551D01*
Y-54685D01*
X-61148Y-53886D01*
X-61760Y-53274D01*
X-62559Y-52943D01*
D02*
G37*
G36*
X-58622Y-55896D02*
X-59488D01*
X-60287Y-56227D01*
X-60899Y-56839D01*
X-61230Y-57638D01*
Y-58504D01*
X-60899Y-59303D01*
X-60287Y-59915D01*
X-59488Y-60246D01*
X-58622D01*
X-57823Y-59915D01*
X-57211Y-59303D01*
X-56880Y-58504D01*
Y-57638D01*
X-57211Y-56839D01*
X-57823Y-56227D01*
X-58622Y-55896D01*
D02*
G37*
G36*
X-48780Y-65739D02*
X-49645D01*
X-50445Y-66070D01*
X-51056Y-66681D01*
X-51387Y-67481D01*
Y-68346D01*
X-51056Y-69145D01*
X-50445Y-69757D01*
X-49645Y-70088D01*
X-48780D01*
X-47981Y-69757D01*
X-47369Y-69145D01*
X-47038Y-68346D01*
Y-67481D01*
X-47369Y-66681D01*
X-47981Y-66070D01*
X-48780Y-65739D01*
D02*
G37*
G36*
X-23189Y-70660D02*
X-24055D01*
X-24854Y-70991D01*
X-25466Y-71603D01*
X-25797Y-72402D01*
Y-73267D01*
X-25466Y-74067D01*
X-24854Y-74678D01*
X-24055Y-75010D01*
X-23189D01*
X-22390Y-74678D01*
X-21778Y-74067D01*
X-21447Y-73267D01*
Y-72402D01*
X-21778Y-71603D01*
X-22390Y-70991D01*
X-23189Y-70660D01*
D02*
G37*
G36*
X-29095Y-74597D02*
X-29960D01*
X-30760Y-74928D01*
X-31371Y-75540D01*
X-31702Y-76339D01*
Y-77204D01*
X-31371Y-78004D01*
X-30760Y-78615D01*
X-29960Y-78947D01*
X-29095D01*
X-28296Y-78615D01*
X-27684Y-78004D01*
X-27353Y-77204D01*
Y-76339D01*
X-27684Y-75540D01*
X-28296Y-74928D01*
X-29095Y-74597D01*
D02*
G37*
G36*
X-118662D02*
X-119527D01*
X-120326Y-74928D01*
X-120938Y-75540D01*
X-121269Y-76339D01*
Y-77152D01*
X-121454Y-77365D01*
X-121667Y-77550D01*
X-122480D01*
X-123279Y-77881D01*
X-123891Y-78492D01*
X-124222Y-79292D01*
Y-80157D01*
X-123891Y-80956D01*
X-123279Y-81568D01*
X-122480Y-81899D01*
X-121615D01*
X-120815Y-81568D01*
X-120203Y-80956D01*
X-119872Y-80157D01*
Y-79345D01*
X-119687Y-79131D01*
X-119474Y-78947D01*
X-118662D01*
X-117863Y-78615D01*
X-117251Y-78004D01*
X-116920Y-77204D01*
Y-76339D01*
X-117251Y-75540D01*
X-117863Y-74928D01*
X-118662Y-74597D01*
D02*
G37*
G36*
X-85197Y-79518D02*
X-86063D01*
X-86862Y-79849D01*
X-87474Y-80461D01*
X-87805Y-81260D01*
Y-82126D01*
X-87474Y-82925D01*
X-86862Y-83537D01*
X-86063Y-83868D01*
X-85197D01*
X-84398Y-83537D01*
X-83786Y-82925D01*
X-83455Y-82126D01*
Y-81260D01*
X-83786Y-80461D01*
X-84398Y-79849D01*
X-85197Y-79518D01*
D02*
G37*
G36*
X-32048Y-81487D02*
X-32913D01*
X-33712Y-81818D01*
X-34324Y-82429D01*
X-34655Y-83229D01*
Y-84094D01*
X-34324Y-84893D01*
X-33712Y-85505D01*
X-32913Y-85836D01*
X-32048D01*
X-31248Y-85505D01*
X-30637Y-84893D01*
X-30305Y-84094D01*
Y-83229D01*
X-30637Y-82429D01*
X-31248Y-81818D01*
X-32048Y-81487D01*
D02*
G37*
G36*
X104370Y-83652D02*
X103504D01*
X102705Y-83983D01*
X102093Y-84595D01*
X101762Y-85394D01*
Y-86259D01*
X102093Y-87059D01*
X102705Y-87670D01*
X103504Y-88002D01*
X104370D01*
X105169Y-87670D01*
X105781Y-87059D01*
X106112Y-86259D01*
Y-85394D01*
X105781Y-84595D01*
X105169Y-83983D01*
X104370Y-83652D01*
D02*
G37*
G36*
X-125552Y-80502D02*
X-126417D01*
X-127216Y-80834D01*
X-127828Y-81445D01*
X-128159Y-82245D01*
Y-83110D01*
X-127828Y-83909D01*
X-127341Y-84396D01*
X-127379Y-84953D01*
X-127413Y-84967D01*
X-128025Y-85579D01*
X-128356Y-86378D01*
Y-87244D01*
X-128025Y-88043D01*
X-127413Y-88655D01*
X-126614Y-88986D01*
X-125749D01*
X-124949Y-88655D01*
X-124337Y-88043D01*
X-124006Y-87244D01*
Y-86378D01*
X-124337Y-85579D01*
X-124825Y-85092D01*
X-124786Y-84535D01*
X-124752Y-84521D01*
X-124141Y-83909D01*
X-123809Y-83110D01*
Y-82245D01*
X-124141Y-81445D01*
X-124752Y-80834D01*
X-125552Y-80502D01*
D02*
G37*
G36*
X90000Y-85424D02*
X89134D01*
X88335Y-85755D01*
X87723Y-86366D01*
X87392Y-87166D01*
Y-88031D01*
X87723Y-88830D01*
X88335Y-89442D01*
X89134Y-89773D01*
X90000D01*
X90799Y-89442D01*
X91411Y-88830D01*
X91742Y-88031D01*
Y-87166D01*
X91411Y-86366D01*
X90799Y-85755D01*
X90000Y-85424D01*
D02*
G37*
G36*
X112637Y-86408D02*
X111772D01*
X110973Y-86739D01*
X110361Y-87351D01*
X110030Y-88150D01*
Y-89015D01*
X110361Y-89815D01*
X110973Y-90426D01*
X111772Y-90758D01*
X112637D01*
X113437Y-90426D01*
X114048Y-89815D01*
X114380Y-89015D01*
Y-88150D01*
X114048Y-87351D01*
X113437Y-86739D01*
X112637Y-86408D01*
D02*
G37*
G36*
X-23977Y-92313D02*
X-24842D01*
X-25641Y-92645D01*
X-26051Y-93054D01*
X-26378Y-93200D01*
X-26705Y-93054D01*
X-27114Y-92645D01*
X-27914Y-92313D01*
X-28779D01*
X-29578Y-92645D01*
X-29988Y-93054D01*
X-30315Y-93200D01*
X-30642Y-93054D01*
X-31051Y-92645D01*
X-31851Y-92313D01*
X-32716D01*
X-33515Y-92645D01*
X-34127Y-93256D01*
X-34458Y-94056D01*
Y-94921D01*
X-34127Y-95720D01*
X-33515Y-96332D01*
X-32716Y-96663D01*
X-31851D01*
X-31051Y-96332D01*
X-30642Y-95922D01*
X-30315Y-95776D01*
X-29988Y-95922D01*
X-29578Y-96332D01*
X-28779Y-96663D01*
X-27914D01*
X-27114Y-96332D01*
X-26705Y-95922D01*
X-26378Y-95776D01*
X-26051Y-95922D01*
X-25641Y-96332D01*
X-24842Y-96663D01*
X-23977D01*
X-23178Y-96332D01*
X-22566Y-95720D01*
X-22235Y-94921D01*
Y-94056D01*
X-22566Y-93256D01*
X-23178Y-92645D01*
X-23977Y-92313D01*
D02*
G37*
G36*
X-59870Y-8823D02*
X-91693Y-8823D01*
X-92084D01*
X-92475Y-8901D01*
X-93198Y-9200D01*
X-93529Y-9421D01*
X-94083Y-9975D01*
X-94304Y-10306D01*
X-94603Y-11029D01*
X-94681Y-11419D01*
Y-12203D01*
X-94603Y-12593D01*
X-94304Y-13316D01*
X-94083Y-13647D01*
X-93529Y-14201D01*
X-93198Y-14422D01*
X-92475Y-14721D01*
X-92084Y-14799D01*
X-63116D01*
X-63106Y-14802D01*
X-62908Y-14818D01*
X-62576Y-14933D01*
X-62332Y-15123D01*
X-62141Y-15417D01*
X-62090Y-15566D01*
X-61585Y-17589D01*
X-61570Y-17621D01*
X-61566Y-17656D01*
X-60257Y-21706D01*
X-60240Y-21737D01*
X-60233Y-21771D01*
X-58654Y-25724D01*
X-58635Y-25753D01*
X-58626Y-25787D01*
X-56784Y-29625D01*
X-56763Y-29653D01*
X-56752Y-29686D01*
X-54655Y-33390D01*
X-54632Y-33417D01*
X-54619Y-33449D01*
X-52276Y-37003D01*
X-52251Y-37028D01*
X-52236Y-37059D01*
X-49659Y-40448D01*
X-49633Y-40471D01*
X-49615Y-40501D01*
X-46815Y-43707D01*
X-46788Y-43729D01*
X-46768Y-43758D01*
X-43758Y-46768D01*
X-43729Y-46787D01*
X-43708Y-46815D01*
X-40502Y-49615D01*
X-40471Y-49632D01*
X-40448Y-49658D01*
X-37060Y-52236D01*
X-37029Y-52251D01*
X-37004Y-52275D01*
X-33450Y-54618D01*
X-33417Y-54631D01*
X-33391Y-54654D01*
X-29687Y-56751D01*
X-29653Y-56762D01*
X-29626Y-56783D01*
X-25788Y-58626D01*
X-25754Y-58635D01*
X-25725Y-58654D01*
X-21772Y-60233D01*
X-21738Y-60239D01*
X-21707Y-60256D01*
X-17657Y-61565D01*
X-17622Y-61569D01*
X-17590Y-61584D01*
X-15566Y-62090D01*
X-15418Y-62141D01*
X-15123Y-62332D01*
X-14933Y-62575D01*
X-14819Y-62908D01*
X-14806Y-63064D01*
X-14799Y-91693D01*
Y-92084D01*
X-14721Y-92475D01*
X-14422Y-93198D01*
X-14201Y-93529D01*
X-13647Y-94083D01*
X-13316Y-94304D01*
X-12593Y-94603D01*
X-12203Y-94681D01*
X-11419D01*
X-11029Y-94603D01*
X-10306Y-94304D01*
X-9975Y-94083D01*
X-9421Y-93529D01*
X-9200Y-93198D01*
X-8901Y-92475D01*
X-8823Y-92084D01*
Y-91693D01*
X-8823Y-91692D01*
X-8823Y-91692D01*
X-8861Y-59861D01*
Y-59520D01*
X-8895Y-59349D01*
X-8920Y-59176D01*
X-9151Y-58533D01*
X-9241Y-58383D01*
X-9323Y-58229D01*
X-9757Y-57701D01*
X-9892Y-57590D01*
X-10022Y-57473D01*
X-10609Y-57122D01*
X-10773Y-57064D01*
X-10935Y-56997D01*
X-11261Y-56933D01*
X-13352Y-56478D01*
X-17487Y-55338D01*
X-21518Y-53898D01*
X-25432Y-52166D01*
X-29207Y-50150D01*
X-32824Y-47861D01*
X-36262Y-45311D01*
X-39503Y-42516D01*
X-42529Y-39489D01*
X-45323Y-36247D01*
X-47871Y-32808D01*
X-50159Y-29191D01*
X-52174Y-25415D01*
X-53905Y-21500D01*
X-55343Y-17469D01*
X-56483Y-13334D01*
X-56938Y-11233D01*
X-56938Y-11232D01*
X-56938Y-11232D01*
X-56940Y-11223D01*
X-57005Y-10897D01*
X-57071Y-10736D01*
X-57130Y-10571D01*
X-57481Y-9984D01*
X-57598Y-9855D01*
X-57709Y-9720D01*
X-58237Y-9286D01*
X-58391Y-9203D01*
X-58540Y-9113D01*
X-59184Y-8883D01*
X-59357Y-8857D01*
X-59528Y-8823D01*
X-59870D01*
X-59870Y-8823D01*
D02*
G37*
G36*
X129173Y-94282D02*
X128308D01*
X127508Y-94613D01*
X126897Y-95225D01*
X126565Y-96024D01*
Y-96889D01*
X126897Y-97689D01*
X127508Y-98300D01*
X128308Y-98632D01*
X129173D01*
X129972Y-98300D01*
X130584Y-97689D01*
X130915Y-96889D01*
Y-96024D01*
X130584Y-95225D01*
X129972Y-94613D01*
X129173Y-94282D01*
D02*
G37*
G36*
X68346Y-95266D02*
X67481D01*
X66681Y-95597D01*
X66070Y-96209D01*
X65739Y-97008D01*
Y-97874D01*
X66070Y-98673D01*
X66681Y-99285D01*
X67481Y-99616D01*
X68346D01*
X69145Y-99285D01*
X69757Y-98673D01*
X70088Y-97874D01*
Y-97008D01*
X69757Y-96209D01*
X69145Y-95597D01*
X68346Y-95266D01*
D02*
G37*
G36*
X114606Y-102156D02*
X113741D01*
X112941Y-102487D01*
X112329Y-103099D01*
X111998Y-103898D01*
Y-104763D01*
X112329Y-105563D01*
X112941Y-106174D01*
X113741Y-106506D01*
X114606D01*
X115405Y-106174D01*
X116017Y-105563D01*
X116348Y-104763D01*
Y-103898D01*
X116017Y-103099D01*
X115405Y-102487D01*
X114606Y-102156D01*
D02*
G37*
G36*
X67362D02*
X66496D01*
X65697Y-102487D01*
X65085Y-103099D01*
X64754Y-103898D01*
Y-104763D01*
X65085Y-105563D01*
X65697Y-106174D01*
X66496Y-106506D01*
X67362D01*
X68161Y-106174D01*
X68773Y-105563D01*
X69104Y-104763D01*
Y-103898D01*
X68773Y-103099D01*
X68161Y-102487D01*
X67362Y-102156D01*
D02*
G37*
G36*
X-71418Y-105109D02*
X-72283D01*
X-73082Y-105440D01*
X-73694Y-106052D01*
X-74025Y-106851D01*
Y-107716D01*
X-73694Y-108515D01*
X-73082Y-109127D01*
X-72283Y-109458D01*
X-71418D01*
X-70618Y-109127D01*
X-70007Y-108515D01*
X-69676Y-107716D01*
Y-106851D01*
X-70007Y-106052D01*
X-70618Y-105440D01*
X-71418Y-105109D01*
D02*
G37*
G36*
X-128504Y-102156D02*
X-129370D01*
X-130169Y-102487D01*
X-130781Y-103099D01*
X-131112Y-103898D01*
Y-104763D01*
X-130781Y-105563D01*
X-130169Y-106174D01*
X-129587Y-106416D01*
X-129577Y-106431D01*
X-129485Y-106967D01*
X-129947Y-107430D01*
X-130278Y-108229D01*
Y-109094D01*
X-129947Y-109893D01*
X-129335Y-110505D01*
X-128536Y-110836D01*
X-127671D01*
X-126872Y-110505D01*
X-126260Y-109893D01*
X-125929Y-109094D01*
Y-108229D01*
X-126260Y-107430D01*
X-126872Y-106818D01*
X-127454Y-106577D01*
X-127463Y-106561D01*
X-127555Y-106025D01*
X-127093Y-105563D01*
X-126762Y-104763D01*
Y-103898D01*
X-127093Y-103099D01*
X-127705Y-102487D01*
X-128504Y-102156D01*
D02*
G37*
G36*
X-23189Y-110030D02*
X-24055D01*
X-24854Y-110361D01*
X-25264Y-110771D01*
X-25591Y-110917D01*
X-25917Y-110771D01*
X-26327Y-110361D01*
X-27127Y-110030D01*
X-27992D01*
X-28791Y-110361D01*
X-29201Y-110771D01*
X-29528Y-110917D01*
X-29854Y-110771D01*
X-30264Y-110361D01*
X-31064Y-110030D01*
X-31929D01*
X-32728Y-110361D01*
X-33340Y-110973D01*
X-33671Y-111772D01*
Y-112637D01*
X-33340Y-113437D01*
X-32728Y-114048D01*
X-31929Y-114380D01*
X-31064D01*
X-30264Y-114048D01*
X-29854Y-113638D01*
X-29528Y-113493D01*
X-29201Y-113638D01*
X-28791Y-114048D01*
X-27992Y-114380D01*
X-27127D01*
X-26327Y-114048D01*
X-25917Y-113638D01*
X-25591Y-113493D01*
X-25264Y-113638D01*
X-24854Y-114048D01*
X-24055Y-114380D01*
X-23189D01*
X-22390Y-114048D01*
X-21778Y-113437D01*
X-21447Y-112637D01*
Y-111772D01*
X-21778Y-110973D01*
X-22390Y-110361D01*
X-23189Y-110030D01*
D02*
G37*
G36*
X113622Y-109046D02*
X112756D01*
X111957Y-109377D01*
X111345Y-109988D01*
X111014Y-110788D01*
Y-111653D01*
X111345Y-112452D01*
X111957Y-113064D01*
X112756Y-113395D01*
X113622D01*
X114421Y-113064D01*
X115033Y-112452D01*
X115364Y-111653D01*
Y-110788D01*
X115033Y-109988D01*
X114421Y-109377D01*
X113622Y-109046D01*
D02*
G37*
G36*
X-70433Y-111014D02*
X-71299D01*
X-72098Y-111345D01*
X-72710Y-111957D01*
X-73041Y-112756D01*
Y-113622D01*
X-72710Y-114421D01*
X-72098Y-115033D01*
X-71299Y-115364D01*
X-70433D01*
X-69634Y-115033D01*
X-69022Y-114421D01*
X-68691Y-113622D01*
Y-112756D01*
X-69022Y-111957D01*
X-69634Y-111345D01*
X-70433Y-111014D01*
D02*
G37*
G36*
X-79292Y-114929D02*
X-80157D01*
X-80956Y-115260D01*
X-81568Y-115872D01*
X-81899Y-116671D01*
Y-117536D01*
X-81568Y-118336D01*
X-80956Y-118948D01*
X-80157Y-119279D01*
X-79292D01*
X-78492Y-118948D01*
X-77881Y-118336D01*
X-77550Y-117536D01*
Y-116671D01*
X-77881Y-115872D01*
X-78492Y-115260D01*
X-79292Y-114929D01*
D02*
G37*
G36*
X76220Y-114951D02*
X75355D01*
X74555Y-115282D01*
X73944Y-115894D01*
X73613Y-116693D01*
Y-117559D01*
X73944Y-118358D01*
X74555Y-118970D01*
X75355Y-119301D01*
X76220D01*
X77019Y-118970D01*
X77631Y-118358D01*
X77962Y-117559D01*
Y-116693D01*
X77631Y-115894D01*
X77019Y-115282D01*
X76220Y-114951D01*
D02*
G37*
G36*
X90000Y-114967D02*
X89134D01*
X88335Y-115298D01*
X87723Y-115910D01*
X87392Y-116709D01*
Y-117574D01*
X87723Y-118374D01*
X88335Y-118985D01*
X89134Y-119316D01*
X90000D01*
X90799Y-118985D01*
X91411Y-118374D01*
X91742Y-117574D01*
Y-116709D01*
X91411Y-115910D01*
X90799Y-115298D01*
X90000Y-114967D01*
D02*
G37*
G36*
X-114134Y-115148D02*
X-114999D01*
X-115799Y-115479D01*
X-116411Y-116091D01*
X-116742Y-116890D01*
Y-117755D01*
X-116411Y-118555D01*
X-115799Y-119167D01*
X-114999Y-119498D01*
X-114134D01*
X-113335Y-119167D01*
X-112723Y-118555D01*
X-112392Y-117755D01*
Y-116890D01*
X-112723Y-116091D01*
X-113335Y-115479D01*
X-114134Y-115148D01*
D02*
G37*
G36*
X86063Y-117904D02*
X85197D01*
X84398Y-118235D01*
X83786Y-118847D01*
X83455Y-119646D01*
Y-120511D01*
X83786Y-121311D01*
X84398Y-121923D01*
X85197Y-122254D01*
X86063D01*
X86862Y-121923D01*
X87474Y-121311D01*
X87805Y-120511D01*
Y-119646D01*
X87474Y-118847D01*
X86862Y-118235D01*
X86063Y-117904D01*
D02*
G37*
G36*
X-124567Y-118888D02*
X-125433D01*
X-126232Y-119219D01*
X-126844Y-119831D01*
X-127175Y-120630D01*
Y-121496D01*
X-126844Y-122295D01*
X-126232Y-122907D01*
X-125433Y-123238D01*
X-124567D01*
X-123768Y-122907D01*
X-123156Y-122295D01*
X-122825Y-121496D01*
Y-120630D01*
X-123156Y-119831D01*
X-123768Y-119219D01*
X-124567Y-118888D01*
D02*
G37*
G36*
X-0Y-108808D02*
X-1661Y-108971D01*
X-3259Y-109456D01*
X-4731Y-110243D01*
X-6021Y-111302D01*
X-7080Y-112592D01*
X-7867Y-114064D01*
X-8351Y-115662D01*
X-8515Y-117323D01*
X-8351Y-118984D01*
X-7867Y-120581D01*
X-7080Y-122054D01*
X-6021Y-123344D01*
X-4731Y-124403D01*
X-3259Y-125190D01*
X-1661Y-125674D01*
X-0Y-125838D01*
X1661Y-125674D01*
X3258Y-125190D01*
X4731Y-124403D01*
X6021Y-123344D01*
X7080Y-122054D01*
X7867Y-120581D01*
X8351Y-118984D01*
X8515Y-117323D01*
X8351Y-115662D01*
X7867Y-114064D01*
X7080Y-112592D01*
X6021Y-111302D01*
X4731Y-110243D01*
X3258Y-109456D01*
X1661Y-108971D01*
X-0Y-108808D01*
D02*
G37*
G36*
X104763Y-123809D02*
X103898D01*
X103099Y-124141D01*
X102487Y-124752D01*
X102156Y-125552D01*
Y-126417D01*
X102487Y-127216D01*
X103099Y-127828D01*
X103898Y-128159D01*
X104763D01*
X105563Y-127828D01*
X106174Y-127216D01*
X106506Y-126417D01*
Y-125552D01*
X106174Y-124752D01*
X105563Y-124141D01*
X104763Y-123809D01*
D02*
G37*
G36*
X-42722Y-124335D02*
X-42807D01*
Y-128279D01*
X-38862D01*
Y-128194D01*
X-39165Y-127064D01*
X-39750Y-126050D01*
X-40578Y-125223D01*
X-41591Y-124638D01*
X-42722Y-124335D01*
D02*
G37*
G36*
X-43807D02*
X-43892D01*
X-45023Y-124638D01*
X-46036Y-125223D01*
X-46864Y-126050D01*
X-47449Y-127064D01*
X-47752Y-128194D01*
Y-128279D01*
X-43807D01*
Y-124335D01*
D02*
G37*
G36*
X-123583Y-125778D02*
X-124448D01*
X-125248Y-126109D01*
X-125859Y-126721D01*
X-126191Y-127520D01*
Y-128385D01*
X-125859Y-129185D01*
X-125248Y-129797D01*
X-124448Y-130128D01*
X-123583D01*
X-122784Y-129797D01*
X-122172Y-129185D01*
X-121841Y-128385D01*
Y-127520D01*
X-122172Y-126721D01*
X-122784Y-126109D01*
X-123583Y-125778D01*
D02*
G37*
G36*
X-38862Y-129279D02*
X-42807D01*
Y-133224D01*
X-42722D01*
X-41591Y-132922D01*
X-40578Y-132336D01*
X-39750Y-131509D01*
X-39165Y-130495D01*
X-38862Y-129365D01*
Y-129279D01*
D02*
G37*
G36*
X-43807D02*
X-47752D01*
Y-129365D01*
X-47449Y-130495D01*
X-46864Y-131509D01*
X-46036Y-132336D01*
X-45023Y-132922D01*
X-43892Y-133224D01*
X-43807D01*
Y-129279D01*
D02*
G37*
G36*
X-116075Y-129097D02*
X-116940D01*
X-117740Y-129428D01*
X-118352Y-130040D01*
X-118683Y-130839D01*
Y-131704D01*
X-118352Y-132504D01*
X-117740Y-133115D01*
X-116940Y-133446D01*
X-116075D01*
X-115276Y-133115D01*
X-114664Y-132504D01*
X-114333Y-131704D01*
Y-130839D01*
X-114664Y-130040D01*
X-115276Y-129428D01*
X-116075Y-129097D01*
D02*
G37*
G36*
X-70433Y-129321D02*
X-71299D01*
X-72098Y-129652D01*
X-72710Y-130264D01*
X-73041Y-131063D01*
Y-131929D01*
X-72710Y-132728D01*
X-72098Y-133340D01*
X-71299Y-133671D01*
X-70433D01*
X-69634Y-133340D01*
X-69022Y-132728D01*
X-68691Y-131929D01*
Y-131063D01*
X-69022Y-130264D01*
X-69634Y-129652D01*
X-70433Y-129321D01*
D02*
G37*
G36*
X17008Y-131726D02*
X16256Y-131825D01*
X15556Y-132115D01*
X14954Y-132576D01*
X14493Y-133178D01*
X14202Y-133878D01*
X14104Y-134630D01*
Y-139053D01*
X14104Y-139189D01*
X13615Y-139311D01*
X13538Y-139125D01*
X13371Y-138721D01*
X12853Y-138204D01*
X12177Y-137924D01*
X11445D01*
X10769Y-138204D01*
X10251Y-138721D01*
X9971Y-139398D01*
Y-140130D01*
X10251Y-140806D01*
X10769Y-141324D01*
X11445Y-141604D01*
X12177D01*
X12853Y-141324D01*
X13371Y-140806D01*
X13651Y-140130D01*
Y-139783D01*
X13651Y-139584D01*
X14151Y-139551D01*
X14202Y-139941D01*
X14493Y-140641D01*
X14954Y-141243D01*
X15556Y-141704D01*
X16256Y-141994D01*
X17008Y-142093D01*
X17760Y-141994D01*
X18460Y-141704D01*
X19062Y-141243D01*
X19523Y-140641D01*
X19813Y-139941D01*
X19912Y-139189D01*
Y-134630D01*
X19813Y-133878D01*
X19523Y-133178D01*
X19062Y-132576D01*
X18460Y-132115D01*
X17760Y-131825D01*
X17008Y-131726D01*
D02*
G37*
G36*
X82322Y-135620D02*
X81457D01*
X80658Y-135952D01*
X80046Y-136563D01*
X79715Y-137363D01*
Y-138228D01*
X80046Y-139027D01*
X80658Y-139639D01*
X81457Y-139970D01*
X82322D01*
X83122Y-139639D01*
X83733Y-139027D01*
X84065Y-138228D01*
Y-137363D01*
X83733Y-136563D01*
X83122Y-135952D01*
X82322Y-135620D01*
D02*
G37*
G36*
X-17008Y-131726D02*
X-17760Y-131825D01*
X-18460Y-132115D01*
X-19062Y-132576D01*
X-19523Y-133178D01*
X-19813Y-133878D01*
X-19912Y-134630D01*
Y-139189D01*
X-19813Y-139941D01*
X-19523Y-140641D01*
X-19062Y-141243D01*
X-18460Y-141704D01*
X-17760Y-141994D01*
X-17008Y-142093D01*
X-16256Y-141994D01*
X-15556Y-141704D01*
X-14954Y-141243D01*
X-14493Y-140641D01*
X-14202Y-139941D01*
X-14151Y-139551D01*
X-13651Y-139584D01*
X-13651Y-139783D01*
Y-140130D01*
X-13371Y-140806D01*
X-12853Y-141324D01*
X-12177Y-141604D01*
X-11445D01*
X-10769Y-141324D01*
X-10251Y-140806D01*
X-9971Y-140130D01*
Y-139398D01*
X-10251Y-138721D01*
X-10769Y-138204D01*
X-11445Y-137924D01*
X-12177D01*
X-12853Y-138204D01*
X-13371Y-138721D01*
X-13538Y-139125D01*
X-13615Y-139311D01*
X-14104Y-139189D01*
X-14104Y-139053D01*
Y-134630D01*
X-14202Y-133878D01*
X-14493Y-133178D01*
X-14954Y-132576D01*
X-15556Y-132115D01*
X-16256Y-131825D01*
X-17008Y-131726D01*
D02*
G37*
G36*
X-42775Y-134735D02*
X-43840D01*
X-44868Y-135010D01*
X-45791Y-135543D01*
X-46544Y-136296D01*
X-47076Y-137218D01*
X-47352Y-138247D01*
Y-139312D01*
X-47076Y-140341D01*
X-46544Y-141263D01*
X-45791Y-142016D01*
X-44868Y-142549D01*
X-43840Y-142824D01*
X-42775D01*
X-41746Y-142549D01*
X-40824Y-142016D01*
X-40070Y-141263D01*
X-39538Y-140341D01*
X-39262Y-139312D01*
Y-138247D01*
X-39538Y-137218D01*
X-40070Y-136296D01*
X-40824Y-135543D01*
X-41746Y-135010D01*
X-42775Y-134735D01*
D02*
G37*
G36*
X-58622Y-146644D02*
X-59488D01*
X-60287Y-146975D01*
X-60899Y-147587D01*
X-61230Y-148386D01*
Y-149251D01*
X-60899Y-150051D01*
X-60287Y-150663D01*
X-59488Y-150994D01*
X-58622D01*
X-57823Y-150663D01*
X-57211Y-150051D01*
X-56880Y-149251D01*
Y-148386D01*
X-57211Y-147587D01*
X-57823Y-146975D01*
X-58622Y-146644D01*
D02*
G37*
G36*
X-42775Y-144735D02*
X-43840D01*
X-44868Y-145010D01*
X-45791Y-145543D01*
X-46544Y-146296D01*
X-47076Y-147218D01*
X-47352Y-148247D01*
Y-149312D01*
X-47076Y-150341D01*
X-46544Y-151263D01*
X-45791Y-152016D01*
X-44868Y-152549D01*
X-43840Y-152824D01*
X-42775D01*
X-41746Y-152549D01*
X-40824Y-152016D01*
X-40070Y-151263D01*
X-39538Y-150341D01*
X-39262Y-149312D01*
Y-148247D01*
X-39538Y-147218D01*
X-40070Y-146296D01*
X-40824Y-145543D01*
X-41746Y-145010D01*
X-42775Y-144735D01*
D02*
G37*
G36*
X-106851Y-142510D02*
X-107716D01*
X-108515Y-142841D01*
X-109127Y-143453D01*
X-109458Y-144252D01*
Y-145118D01*
X-109127Y-145917D01*
X-108515Y-146529D01*
X-107716Y-146860D01*
X-107616D01*
X-107338Y-147276D01*
X-107378Y-147372D01*
Y-148238D01*
X-107047Y-149037D01*
X-106436Y-149649D01*
X-105636Y-149980D01*
X-104885D01*
X-104505Y-150370D01*
X-104537Y-150447D01*
Y-151312D01*
X-104206Y-152112D01*
X-103594Y-152723D01*
X-102795Y-153054D01*
X-101930D01*
X-101130Y-152723D01*
X-100519Y-152112D01*
X-100187Y-151312D01*
Y-150447D01*
X-100519Y-149648D01*
X-101130Y-149036D01*
X-101930Y-148705D01*
X-102681D01*
X-103061Y-148315D01*
X-103029Y-148238D01*
Y-147372D01*
X-103360Y-146573D01*
X-103972Y-145961D01*
X-104771Y-145630D01*
X-104871D01*
X-105149Y-145214D01*
X-105109Y-145118D01*
Y-144252D01*
X-105440Y-143453D01*
X-106052Y-142841D01*
X-106851Y-142510D01*
D02*
G37*
G36*
X17008Y-146618D02*
X16235Y-146720D01*
X15514Y-147019D01*
X14895Y-147494D01*
X14420Y-148112D01*
X14122Y-148833D01*
X14020Y-149606D01*
Y-154331D01*
X14122Y-155104D01*
X14420Y-155825D01*
X14895Y-156443D01*
X15514Y-156918D01*
X16235Y-157217D01*
X17008Y-157318D01*
X17781Y-157217D01*
X18502Y-156918D01*
X19121Y-156443D01*
X19595Y-155825D01*
X19894Y-155104D01*
X19996Y-154331D01*
Y-149606D01*
X19894Y-148833D01*
X19595Y-148112D01*
X19121Y-147494D01*
X18502Y-147019D01*
X17781Y-146720D01*
X17008Y-146618D01*
D02*
G37*
G36*
X-17008D02*
X-17781Y-146720D01*
X-18502Y-147019D01*
X-19120Y-147494D01*
X-19595Y-148112D01*
X-19894Y-148833D01*
X-19996Y-149606D01*
Y-154331D01*
X-19894Y-155104D01*
X-19595Y-155825D01*
X-19120Y-156443D01*
X-18502Y-156918D01*
X-17781Y-157217D01*
X-17008Y-157318D01*
X-16235Y-157217D01*
X-15514Y-156918D01*
X-14895Y-156443D01*
X-14420Y-155825D01*
X-14122Y-155104D01*
X-14020Y-154331D01*
Y-149606D01*
X-14122Y-148833D01*
X-14420Y-148112D01*
X-14895Y-147494D01*
X-15514Y-147019D01*
X-16235Y-146720D01*
X-17008Y-146618D01*
D02*
G37*
%LPD*%
D129*
X-43307Y-128779D02*
D03*
D130*
X12795Y-108268D02*
D03*
X-54134Y-107283D02*
D03*
X125197Y-100000D02*
D03*
Y-92913D02*
D03*
X101181Y-121260D02*
D03*
X-94095Y19291D02*
D03*
X14173Y-129134D02*
D03*
X-106693Y-69291D02*
D03*
X-69882Y-96457D02*
D03*
X95600Y-85154D02*
D03*
X100394Y-95472D02*
D03*
X107306Y-120866D02*
D03*
X74803Y-97375D02*
D03*
X75203Y-109535D02*
D03*
X74803Y-103324D02*
D03*
X-54134Y-113189D02*
D03*
X-76772Y-137402D02*
D03*
X-107283Y-108646D02*
D03*
X-114173Y-102362D02*
D03*
X-101378Y-103347D02*
D03*
Y-108646D02*
D03*
X-107283Y-103347D02*
D03*
X-104331Y-106299D02*
D03*
X-29528Y-125984D02*
D03*
X-14764Y-129921D02*
D03*
X53543Y-112894D02*
D03*
X-66929Y-26575D02*
D03*
X10827Y12795D02*
D03*
X19685Y8858D02*
D03*
X-26575Y66929D02*
D03*
X-31496Y70866D02*
D03*
X-56102Y44291D02*
D03*
X-62008Y45276D02*
D03*
X44291Y56102D02*
D03*
X45276Y62992D02*
D03*
X70866Y31496D02*
D03*
X66929Y26575D02*
D03*
X62217Y-44772D02*
D03*
X55987Y-43823D02*
D03*
X29358Y-70214D02*
D03*
X25588Y-66901D02*
D03*
X-72835Y19685D02*
D03*
X-85280Y-76185D02*
D03*
X-60039Y63976D02*
D03*
X-53150Y80709D02*
D03*
X-98425Y98425D02*
D03*
Y92520D02*
D03*
X-90551Y109252D02*
D03*
X41339Y-121063D02*
D03*
X54134Y-137795D02*
D03*
X66929Y-124016D02*
D03*
X-82677Y-140748D02*
D03*
X-88583D02*
D03*
X-94488D02*
D03*
X-108268D02*
D03*
X-144685Y-104331D02*
D03*
Y-110236D02*
D03*
X-121063Y-145669D02*
D03*
X-125984Y-73819D02*
D03*
X-37402Y-94488D02*
D03*
X-142717Y-89567D02*
D03*
X-45276Y-70866D02*
D03*
X95472Y-121063D02*
D03*
X115157Y-74803D02*
D03*
X108268Y-86614D02*
D03*
X103347Y-106299D02*
D03*
M02*
