G04*
G04 #@! TF.GenerationSoftware,Altium Limited,Altium Designer,23.2.1 (34)*
G04*
G04 Layer_Color=16711935*
%FSLAX25Y25*%
%MOIN*%
G70*
G04*
G04 #@! TF.SameCoordinates,70F68BD7-EFF2-48EA-8D55-AD0B0ECCAA1F*
G04*
G04*
G04 #@! TF.FilePolarity,Negative*
G04*
G01*
G75*
%ADD78R,0.04147X0.03950*%
%ADD80R,0.04540X0.03556*%
%ADD115C,0.03280*%
%ADD116O,0.05524X0.10249*%
%ADD117O,0.05359X0.09918*%
%ADD118C,0.11811*%
%ADD119C,0.15748*%
%ADD120C,0.07690*%
G04:AMPARAMS|DCode=138|XSize=47.37mil|YSize=86.74mil|CornerRadius=0mil|HoleSize=0mil|Usage=FLASHONLY|Rotation=135.000|XOffset=0mil|YOffset=0mil|HoleType=Round|Shape=Round|*
%AMOVALD138*
21,1,0.03937,0.04737,0.00000,0.00000,225.0*
1,1,0.04737,0.01392,0.01392*
1,1,0.04737,-0.01392,-0.01392*
%
%ADD138OVALD138*%

G04:AMPARAMS|DCode=139|XSize=65.09mil|YSize=37.53mil|CornerRadius=0mil|HoleSize=0mil|Usage=FLASHONLY|Rotation=45.000|XOffset=0mil|YOffset=0mil|HoleType=Round|Shape=Rectangle|*
%AMROTATEDRECTD139*
4,1,4,-0.00974,-0.03628,-0.03628,-0.00974,0.00974,0.03628,0.03628,0.00974,-0.00974,-0.03628,0.0*
%
%ADD139ROTATEDRECTD139*%

%ADD140R,0.06115X0.13792*%
G04:AMPARAMS|DCode=141|XSize=39.5mil|YSize=70.99mil|CornerRadius=0mil|HoleSize=0mil|Usage=FLASHONLY|Rotation=225.000|XOffset=0mil|YOffset=0mil|HoleType=Round|Shape=Rectangle|*
%AMROTATEDRECTD141*
4,1,4,-0.01114,0.03906,0.03906,-0.01114,0.01114,-0.03906,-0.03906,0.01114,-0.01114,0.03906,0.0*
%
%ADD141ROTATEDRECTD141*%

G04:AMPARAMS|DCode=142|XSize=90.68mil|YSize=126.11mil|CornerRadius=0mil|HoleSize=0mil|Usage=FLASHONLY|Rotation=225.000|XOffset=0mil|YOffset=0mil|HoleType=Round|Shape=Rectangle|*
%AMROTATEDRECTD142*
4,1,4,-0.01253,0.07665,0.07665,-0.01253,0.01253,-0.07665,-0.07665,0.01253,-0.01253,0.07665,0.0*
%
%ADD142ROTATEDRECTD142*%

D78*
X-25591Y-2362D02*
D03*
Y-7480D02*
D03*
X-19685Y-2362D02*
D03*
Y-7480D02*
D03*
D80*
X19685Y4429D02*
D03*
Y-2461D02*
D03*
D115*
X11811Y-139764D02*
D03*
X-11811D02*
D03*
D116*
X17008Y-151969D02*
D03*
X-17008D02*
D03*
D117*
X17008Y-136909D02*
D03*
X-17008D02*
D03*
D118*
X20177Y-34949D02*
D03*
X20177Y34948D02*
D03*
X-40354Y-0D02*
D03*
D119*
X-0Y-117323D02*
D03*
X-137795Y-0D02*
D03*
X117323D02*
D03*
X-0Y117323D02*
D03*
X-117323Y-0D02*
D03*
X137795D02*
D03*
D120*
X-43307Y-148779D02*
D03*
Y-138779D02*
D03*
Y-128779D02*
D03*
D138*
X-33662Y-72637D02*
D03*
X-39230Y-67069D02*
D03*
X-44798Y-61501D02*
D03*
X-50366Y-55933D02*
D03*
X-55933Y-50366D02*
D03*
X-61501Y-44798D02*
D03*
X-67069Y-39230D02*
D03*
X-72637Y-33662D02*
D03*
D139*
X-49809Y-75191D02*
D03*
X-42710Y-82290D02*
D03*
D140*
X72933Y0D02*
D03*
X49902D02*
D03*
X104035D02*
D03*
X81004D02*
D03*
X-81004D02*
D03*
X-104035D02*
D03*
X-49902D02*
D03*
X-72933D02*
D03*
D141*
X72378Y-65418D02*
D03*
X68898Y-68898D02*
D03*
X65418Y-72378D02*
D03*
D142*
X50246Y-71403D02*
D03*
X71403Y-50246D02*
D03*
M02*
