G04*
G04 #@! TF.GenerationSoftware,Altium Limited,Altium Designer,23.1.1 (15)*
G04*
G04 Layer_Physical_Order=3*
G04 Layer_Color=16440176*
%FSLAX25Y25*%
%MOIN*%
G70*
G04*
G04 #@! TF.SameCoordinates,C2BF6480-066F-44F4-8187-D28EFCB1F43C*
G04*
G04*
G04 #@! TF.FilePolarity,Positive*
G04*
G01*
G75*
%ADD11C,0.01000*%
%ADD119C,0.01200*%
%ADD130C,0.03150*%
G36*
X145074Y159040D02*
X147016Y158784D01*
X148909Y158277D01*
X150719Y157527D01*
X152415Y156548D01*
X153970Y155355D01*
X155355Y153970D01*
X156548Y152415D01*
X157527Y150719D01*
X158277Y148909D01*
X158784Y147016D01*
X159040Y145074D01*
X159040Y144095D01*
X159040Y-144095D01*
X159040Y-145074D01*
X158784Y-147017D01*
X158277Y-148909D01*
X157527Y-150719D01*
X156548Y-152415D01*
X155355Y-153970D01*
X153970Y-155355D01*
X152415Y-156548D01*
X150719Y-157527D01*
X148909Y-158277D01*
X147016Y-158784D01*
X145074Y-159040D01*
X144095Y-159040D01*
X-144095Y-159040D01*
X-145074Y-159040D01*
X-147016Y-158784D01*
X-148909Y-158277D01*
X-150719Y-157527D01*
X-152415Y-156548D01*
X-153970Y-155355D01*
X-155355Y-153970D01*
X-156548Y-152416D01*
X-157527Y-150719D01*
X-158277Y-148909D01*
X-158784Y-147017D01*
X-159040Y-145074D01*
Y-144095D01*
Y144095D01*
X-159040Y145074D01*
X-158784Y147016D01*
X-158277Y148909D01*
X-157527Y150719D01*
X-156548Y152415D01*
X-155355Y153970D01*
X-153970Y155355D01*
X-152416Y156548D01*
X-150719Y157527D01*
X-148909Y158277D01*
X-147016Y158784D01*
X-145074Y159040D01*
X-144095Y159040D01*
X144094Y159040D01*
X145074Y159040D01*
D02*
G37*
%LPC*%
G36*
X-102914Y120285D02*
X-103779D01*
X-104578Y119954D01*
X-105190Y119342D01*
X-105521Y118543D01*
Y117678D01*
X-105190Y116878D01*
X-104578Y116267D01*
X-103779Y115935D01*
X-102914D01*
X-102114Y116267D01*
X-101503Y116878D01*
X-101172Y117678D01*
Y118543D01*
X-101503Y119342D01*
X-102114Y119954D01*
X-102914Y120285D01*
D02*
G37*
G36*
X-122599D02*
X-123464D01*
X-124263Y119954D01*
X-124875Y119342D01*
X-125206Y118543D01*
Y117678D01*
X-124875Y116878D01*
X-124263Y116267D01*
X-123464Y115935D01*
X-122599D01*
X-121800Y116267D01*
X-121188Y116878D01*
X-120857Y117678D01*
Y118543D01*
X-121188Y119342D01*
X-121800Y119954D01*
X-122599Y120285D01*
D02*
G37*
G36*
X-103898Y114380D02*
X-104763D01*
X-105563Y114048D01*
X-106174Y113437D01*
X-106506Y112637D01*
Y111772D01*
X-106174Y110973D01*
X-105563Y110361D01*
X-104763Y110030D01*
X-103898D01*
X-103099Y110361D01*
X-102487Y110973D01*
X-102156Y111772D01*
Y112637D01*
X-102487Y113437D01*
X-103099Y114048D01*
X-103898Y114380D01*
D02*
G37*
G36*
X-90119Y111427D02*
X-90984D01*
X-91783Y111096D01*
X-92395Y110484D01*
X-92726Y109685D01*
Y108819D01*
X-92395Y108020D01*
X-91783Y107408D01*
X-90984Y107077D01*
X-90119D01*
X-89319Y107408D01*
X-88708Y108020D01*
X-88376Y108819D01*
Y109685D01*
X-88708Y110484D01*
X-89319Y111096D01*
X-90119Y111427D01*
D02*
G37*
G36*
X-128504D02*
X-129370D01*
X-130169Y111096D01*
X-130781Y110484D01*
X-131112Y109685D01*
Y108819D01*
X-130781Y108020D01*
X-130169Y107408D01*
X-129370Y107077D01*
X-128504D01*
X-127705Y107408D01*
X-127093Y108020D01*
X-126762Y108819D01*
Y109685D01*
X-127093Y110484D01*
X-127705Y111096D01*
X-128504Y111427D01*
D02*
G37*
G36*
X-97993Y100600D02*
X-98858D01*
X-99657Y100269D01*
X-100269Y99657D01*
X-100600Y98858D01*
Y97993D01*
X-100269Y97193D01*
X-99657Y96582D01*
X-98858Y96250D01*
X-97993D01*
X-97193Y96582D01*
X-96582Y97193D01*
X-96250Y97993D01*
Y98858D01*
X-96582Y99657D01*
X-97193Y100269D01*
X-97993Y100600D01*
D02*
G37*
G36*
Y94695D02*
X-98858D01*
X-99657Y94363D01*
X-100269Y93752D01*
X-100600Y92952D01*
Y92087D01*
X-100269Y91288D01*
X-99657Y90676D01*
X-98858Y90345D01*
X-97993D01*
X-97193Y90676D01*
X-96582Y91288D01*
X-96250Y92087D01*
Y92952D01*
X-96582Y93752D01*
X-97193Y94363D01*
X-97993Y94695D01*
D02*
G37*
G36*
X-31064Y73041D02*
X-31929D01*
X-32728Y72710D01*
X-33340Y72098D01*
X-33671Y71299D01*
Y70433D01*
X-33340Y69634D01*
X-32728Y69022D01*
X-31929Y68691D01*
X-31064D01*
X-30264Y69022D01*
X-29652Y69634D01*
X-29321Y70433D01*
Y71299D01*
X-29652Y72098D01*
X-30264Y72710D01*
X-31064Y73041D01*
D02*
G37*
G36*
X-26142Y69104D02*
X-27007D01*
X-27807Y68773D01*
X-28418Y68161D01*
X-28750Y67362D01*
Y66496D01*
X-28418Y65697D01*
X-27807Y65085D01*
X-27007Y64754D01*
X-26142D01*
X-25343Y65085D01*
X-24731Y65697D01*
X-24400Y66496D01*
Y67362D01*
X-24731Y68161D01*
X-25343Y68773D01*
X-26142Y69104D01*
D02*
G37*
G36*
X-59607Y66151D02*
X-60472D01*
X-61271Y65820D01*
X-61883Y65208D01*
X-62214Y64409D01*
Y63544D01*
X-61883Y62744D01*
X-61271Y62133D01*
X-60472Y61802D01*
X-59607D01*
X-58807Y62133D01*
X-58196Y62744D01*
X-57865Y63544D01*
Y64409D01*
X-58196Y65208D01*
X-58807Y65820D01*
X-59607Y66151D01*
D02*
G37*
G36*
X45708Y65167D02*
X44843D01*
X44044Y64836D01*
X43432Y64224D01*
X43101Y63425D01*
Y62559D01*
X43432Y61760D01*
X44044Y61148D01*
X44843Y60817D01*
X45708D01*
X46507Y61148D01*
X47119Y61760D01*
X47450Y62559D01*
Y63425D01*
X47119Y64224D01*
X46507Y64836D01*
X45708Y65167D01*
D02*
G37*
G36*
X44724Y58277D02*
X43859D01*
X43059Y57946D01*
X42448Y57334D01*
X42116Y56535D01*
Y55670D01*
X42448Y54870D01*
X43059Y54259D01*
X43859Y53928D01*
X44724D01*
X45523Y54259D01*
X46135Y54870D01*
X46466Y55670D01*
Y56535D01*
X46135Y57334D01*
X45523Y57946D01*
X44724Y58277D01*
D02*
G37*
G36*
X-61575Y47450D02*
X-62441D01*
X-63240Y47119D01*
X-63852Y46507D01*
X-64183Y45708D01*
Y44843D01*
X-63852Y44044D01*
X-63240Y43432D01*
X-62441Y43101D01*
X-61575D01*
X-60776Y43432D01*
X-60164Y44044D01*
X-59833Y44843D01*
Y45708D01*
X-60164Y46507D01*
X-60776Y47119D01*
X-61575Y47450D01*
D02*
G37*
G36*
X-55670Y46466D02*
X-56535D01*
X-57334Y46135D01*
X-57946Y45523D01*
X-58277Y44724D01*
Y43859D01*
X-57946Y43059D01*
X-57334Y42448D01*
X-56535Y42116D01*
X-55670D01*
X-54870Y42448D01*
X-54259Y43059D01*
X-53928Y43859D01*
Y44724D01*
X-54259Y45523D01*
X-54870Y46135D01*
X-55670Y46466D01*
D02*
G37*
G36*
X71299Y33671D02*
X70433D01*
X69634Y33340D01*
X69022Y32728D01*
X68691Y31929D01*
Y31064D01*
X69022Y30264D01*
X69634Y29652D01*
X70433Y29321D01*
X71299D01*
X72098Y29652D01*
X72710Y30264D01*
X73041Y31064D01*
Y31929D01*
X72710Y32728D01*
X72098Y33340D01*
X71299Y33671D01*
D02*
G37*
G36*
X67362Y28750D02*
X66496D01*
X65697Y28418D01*
X65085Y27807D01*
X64754Y27007D01*
Y26142D01*
X65085Y25343D01*
X65697Y24731D01*
X66496Y24400D01*
X67362D01*
X68161Y24731D01*
X68773Y25343D01*
X69104Y26142D01*
Y27007D01*
X68773Y27807D01*
X68161Y28418D01*
X67362Y28750D01*
D02*
G37*
G36*
X-72402Y21860D02*
X-73267D01*
X-74067Y21529D01*
X-74678Y20917D01*
X-75010Y20118D01*
Y19252D01*
X-74678Y18453D01*
X-74067Y17841D01*
X-73267Y17510D01*
X-72402D01*
X-71603Y17841D01*
X-70991Y18453D01*
X-70660Y19252D01*
Y20118D01*
X-70991Y20917D01*
X-71603Y21529D01*
X-72402Y21860D01*
D02*
G37*
G36*
X-93662Y21466D02*
X-94527D01*
X-95326Y21135D01*
X-95938Y20523D01*
X-96269Y19724D01*
Y18859D01*
X-95938Y18059D01*
X-95326Y17448D01*
X-94527Y17117D01*
X-93662D01*
X-92863Y17448D01*
X-92251Y18059D01*
X-91920Y18859D01*
Y19724D01*
X-92251Y20523D01*
X-92863Y21135D01*
X-93662Y21466D01*
D02*
G37*
G36*
X9843Y138815D02*
X-73819D01*
X-74209Y138737D01*
X-74540Y138516D01*
X-74761Y138186D01*
X-74839Y137795D01*
Y78740D01*
X-74761Y78350D01*
X-74540Y78019D01*
X-74209Y77798D01*
X-73819Y77721D01*
X-54964D01*
X-54574Y77798D01*
X-54243Y78019D01*
X-54022Y78350D01*
X-53892Y78662D01*
X-53582Y78534D01*
X-52717D01*
X-52407Y78662D01*
X-52277Y78350D01*
X-52056Y78019D01*
X-51726Y77798D01*
X-51335Y77721D01*
X-24606D01*
X-24216Y77798D01*
X-23885Y78019D01*
X-15538Y86366D01*
X-14799Y86060D01*
Y63116D01*
X-14802Y63106D01*
X-14818Y62908D01*
X-14933Y62575D01*
X-15123Y62332D01*
X-15418Y62141D01*
X-15566Y62090D01*
X-17590Y61584D01*
X-17622Y61569D01*
X-17657Y61565D01*
X-21707Y60256D01*
X-21738Y60239D01*
X-21772Y60233D01*
X-25725Y58654D01*
X-25754Y58635D01*
X-25788Y58626D01*
X-29625Y56783D01*
X-29653Y56762D01*
X-29687Y56752D01*
X-33391Y54654D01*
X-33417Y54631D01*
X-33450Y54618D01*
X-37004Y52276D01*
X-37029Y52251D01*
X-37060Y52236D01*
X-40448Y49658D01*
X-40471Y49632D01*
X-40502Y49615D01*
X-43708Y46815D01*
X-43729Y46787D01*
X-43758Y46768D01*
X-46768Y43758D01*
X-46788Y43729D01*
X-46815Y43707D01*
X-49615Y40501D01*
X-49633Y40471D01*
X-49659Y40448D01*
X-52236Y37060D01*
X-52251Y37028D01*
X-52276Y37003D01*
X-54619Y33449D01*
X-54632Y33417D01*
X-54655Y33390D01*
X-56752Y29686D01*
X-56763Y29653D01*
X-56784Y29625D01*
X-58626Y25787D01*
X-58635Y25754D01*
X-58654Y25724D01*
X-60233Y21771D01*
X-60240Y21737D01*
X-60257Y21707D01*
X-61565Y17656D01*
X-61569Y17621D01*
X-61584Y17590D01*
X-62090Y15566D01*
X-62141Y15418D01*
X-62332Y15123D01*
X-62575Y14933D01*
X-62908Y14819D01*
X-63064Y14806D01*
X-91693Y14799D01*
X-92084D01*
X-92475Y14721D01*
X-93198Y14422D01*
X-93529Y14201D01*
X-93959Y13770D01*
X-94385Y13634D01*
X-94871Y13613D01*
X-94990Y13676D01*
X-95082Y13737D01*
X-95472Y13815D01*
X-113189D01*
X-113579Y13737D01*
X-113910Y13516D01*
X-114131Y13185D01*
X-114209Y12795D01*
Y8582D01*
X-114851Y8106D01*
X-115662Y8351D01*
X-117323Y8515D01*
X-118984Y8351D01*
X-120581Y7867D01*
X-122054Y7080D01*
X-123344Y6021D01*
X-124403Y4731D01*
X-125190Y3258D01*
X-125674Y1661D01*
X-125838Y-0D01*
X-125674Y-1661D01*
X-125190Y-3259D01*
X-124403Y-4731D01*
X-123344Y-6021D01*
X-122054Y-7080D01*
X-120581Y-7867D01*
X-118984Y-8351D01*
X-117323Y-8515D01*
X-115662Y-8351D01*
X-114851Y-8106D01*
X-114209Y-8582D01*
Y-9843D01*
X-114131Y-10233D01*
X-113910Y-10564D01*
X-113579Y-10785D01*
X-113189Y-10862D01*
X-95381D01*
X-94681Y-11419D01*
Y-12203D01*
X-94603Y-12593D01*
X-94304Y-13316D01*
X-94083Y-13647D01*
X-93529Y-14201D01*
X-93198Y-14422D01*
X-92475Y-14721D01*
X-92084Y-14799D01*
X-63116D01*
X-63106Y-14802D01*
X-62908Y-14818D01*
X-62576Y-14933D01*
X-62332Y-15123D01*
X-62141Y-15417D01*
X-62090Y-15566D01*
X-61585Y-17589D01*
X-61570Y-17621D01*
X-61566Y-17656D01*
X-60257Y-21706D01*
X-60240Y-21737D01*
X-60233Y-21771D01*
X-58654Y-25724D01*
X-58635Y-25753D01*
X-58626Y-25787D01*
X-56784Y-29625D01*
X-56763Y-29653D01*
X-56752Y-29686D01*
X-54655Y-33390D01*
X-54632Y-33417D01*
X-54619Y-33449D01*
X-52276Y-37003D01*
X-52251Y-37028D01*
X-52236Y-37059D01*
X-49659Y-40448D01*
X-49633Y-40471D01*
X-49615Y-40501D01*
X-46815Y-43707D01*
X-46788Y-43729D01*
X-46768Y-43758D01*
X-43758Y-46768D01*
X-43729Y-46787D01*
X-43708Y-46815D01*
X-40502Y-49615D01*
X-40471Y-49632D01*
X-40448Y-49658D01*
X-37060Y-52236D01*
X-37029Y-52251D01*
X-37004Y-52275D01*
X-33450Y-54618D01*
X-33417Y-54631D01*
X-33391Y-54654D01*
X-29687Y-56751D01*
X-29653Y-56762D01*
X-29626Y-56783D01*
X-25788Y-58626D01*
X-25754Y-58635D01*
X-25725Y-58654D01*
X-21772Y-60233D01*
X-21738Y-60239D01*
X-21707Y-60256D01*
X-17657Y-61565D01*
X-17622Y-61569D01*
X-17590Y-61584D01*
X-15566Y-62090D01*
X-15418Y-62141D01*
X-15123Y-62332D01*
X-14933Y-62575D01*
X-14819Y-62908D01*
X-14806Y-63064D01*
X-14799Y-91693D01*
Y-92084D01*
X-14721Y-92475D01*
X-14422Y-93198D01*
X-14201Y-93529D01*
X-13647Y-94083D01*
X-13316Y-94304D01*
X-12593Y-94603D01*
X-12203Y-94681D01*
X-11419D01*
X-11029Y-94603D01*
X-10306Y-94304D01*
X-9975Y-94083D01*
X-9421Y-93529D01*
X-9200Y-93198D01*
X-8901Y-92475D01*
X-8823Y-92084D01*
Y-91693D01*
X-8823Y-91692D01*
X-8823Y-91692D01*
X-8861Y-59861D01*
Y-59520D01*
X-8895Y-59349D01*
X-8920Y-59176D01*
X-9151Y-58533D01*
X-9241Y-58383D01*
X-9323Y-58229D01*
X-9757Y-57701D01*
X-9892Y-57590D01*
X-10022Y-57473D01*
X-10609Y-57122D01*
X-10773Y-57064D01*
X-10935Y-56997D01*
X-11261Y-56933D01*
X-13352Y-56478D01*
X-17487Y-55338D01*
X-21518Y-53898D01*
X-25432Y-52166D01*
X-29207Y-50150D01*
X-32824Y-47861D01*
X-36262Y-45311D01*
X-39503Y-42516D01*
X-42529Y-39489D01*
X-45323Y-36247D01*
X-47871Y-32808D01*
X-50159Y-29191D01*
X-52174Y-25415D01*
X-53905Y-21500D01*
X-54465Y-19931D01*
X-53789Y-19503D01*
X-52886Y-20406D01*
X-52556Y-20627D01*
X-52165Y-20705D01*
X-30802D01*
X-30643Y-21505D01*
X-31026Y-21664D01*
X-31110Y-21719D01*
X-31203Y-21758D01*
X-32170Y-22404D01*
X-32241Y-22475D01*
X-32324Y-22531D01*
X-33147Y-23353D01*
X-33203Y-23437D01*
X-33274Y-23508D01*
X-33920Y-24475D01*
X-33958Y-24568D01*
X-34014Y-24651D01*
X-34459Y-25726D01*
X-34479Y-25825D01*
X-34517Y-25917D01*
X-34744Y-27058D01*
Y-27159D01*
X-34764Y-27257D01*
Y-28420D01*
X-34744Y-28519D01*
Y-28619D01*
X-34517Y-29760D01*
X-34479Y-29853D01*
X-34459Y-29952D01*
X-34014Y-31026D01*
X-33958Y-31110D01*
X-33920Y-31203D01*
X-33274Y-32170D01*
X-33203Y-32241D01*
X-33147Y-32324D01*
X-32324Y-33147D01*
X-32241Y-33203D01*
X-32170Y-33274D01*
X-31203Y-33920D01*
X-31110Y-33958D01*
X-31026Y-34014D01*
X-29952Y-34459D01*
X-29853Y-34479D01*
X-29760Y-34517D01*
X-28619Y-34744D01*
X-28519D01*
X-28420Y-34764D01*
X-27257D01*
X-27159Y-34744D01*
X-27058D01*
X-25917Y-34517D01*
X-25825Y-34479D01*
X-25726Y-34459D01*
X-24651Y-34014D01*
X-24568Y-33958D01*
X-24475Y-33920D01*
X-23508Y-33274D01*
X-23437Y-33203D01*
X-23353Y-33147D01*
X-22531Y-32324D01*
X-22475Y-32241D01*
X-22404Y-32170D01*
X-22358Y-32143D01*
X-21650Y-32524D01*
X-21860Y-33032D01*
Y-33897D01*
X-21529Y-34696D01*
X-20917Y-35308D01*
X-20118Y-35639D01*
X-19252D01*
X-18453Y-35308D01*
X-17841Y-34696D01*
X-17796Y-34586D01*
X-8339D01*
X-1122Y-41803D01*
Y-95992D01*
X-7354Y-102225D01*
X-36417D01*
X-36417Y-102225D01*
X-36847Y-102310D01*
X-37210Y-102553D01*
X-37210Y-102553D01*
X-61817Y-127160D01*
X-62060Y-127524D01*
X-62145Y-127953D01*
X-62145Y-127953D01*
Y-139693D01*
X-66016Y-143563D01*
X-81701D01*
X-81860Y-142763D01*
X-81445Y-142592D01*
X-80834Y-141980D01*
X-80502Y-141181D01*
Y-140315D01*
X-80834Y-139516D01*
X-81445Y-138904D01*
X-82245Y-138573D01*
X-83110D01*
X-83909Y-138904D01*
X-84521Y-139516D01*
X-84852Y-140315D01*
Y-141181D01*
X-84521Y-141980D01*
X-83909Y-142592D01*
X-83495Y-142763D01*
X-83654Y-143563D01*
X-87606D01*
X-87765Y-142763D01*
X-87351Y-142592D01*
X-86739Y-141980D01*
X-86408Y-141181D01*
Y-140315D01*
X-86739Y-139516D01*
X-87351Y-138904D01*
X-88150Y-138573D01*
X-89015D01*
X-89815Y-138904D01*
X-90426Y-139516D01*
X-90758Y-140315D01*
Y-141181D01*
X-90426Y-141980D01*
X-89815Y-142592D01*
X-89400Y-142763D01*
X-89559Y-143563D01*
X-93512D01*
X-93671Y-142763D01*
X-93256Y-142592D01*
X-92645Y-141980D01*
X-92313Y-141181D01*
Y-140315D01*
X-92645Y-139516D01*
X-93256Y-138904D01*
X-94056Y-138573D01*
X-94921D01*
X-95720Y-138904D01*
X-96332Y-139516D01*
X-96663Y-140315D01*
Y-141181D01*
X-96332Y-141980D01*
X-95720Y-142592D01*
X-95306Y-142763D01*
X-95465Y-143563D01*
X-105394D01*
X-105440Y-143453D01*
X-106052Y-142841D01*
X-106124Y-142811D01*
X-106424Y-141980D01*
X-106093Y-141181D01*
Y-140315D01*
X-106424Y-139516D01*
X-107036Y-138904D01*
X-107835Y-138573D01*
X-108700D01*
X-109500Y-138904D01*
X-110111Y-139516D01*
X-110442Y-140315D01*
Y-141181D01*
X-110111Y-141980D01*
X-109500Y-142592D01*
X-109427Y-142622D01*
X-109127Y-143453D01*
X-109458Y-144252D01*
Y-145118D01*
X-109127Y-145917D01*
X-108515Y-146529D01*
X-107856Y-146802D01*
X-107378Y-147372D01*
Y-148238D01*
X-107047Y-149037D01*
X-106436Y-149649D01*
X-105636Y-149980D01*
X-105209D01*
X-104647Y-150371D01*
X-104537Y-150719D01*
Y-151312D01*
X-104206Y-152112D01*
X-103594Y-152723D01*
X-102795Y-153054D01*
X-101930D01*
X-101130Y-152723D01*
X-100519Y-152112D01*
X-100353Y-151712D01*
X-65945D01*
X-65945Y-151712D01*
X-65516Y-151627D01*
X-65152Y-151384D01*
X-56294Y-142525D01*
X-56294Y-142525D01*
X-56050Y-142162D01*
X-55965Y-141732D01*
X-55965Y-141732D01*
Y-130386D01*
X-33984Y-108405D01*
X-4921D01*
X-4921Y-108405D01*
X-4492Y-108320D01*
X-4128Y-108077D01*
X4730Y-99218D01*
X4730Y-99218D01*
X4973Y-98854D01*
X5059Y-98425D01*
X5059Y-98425D01*
Y-31793D01*
X4973Y-31363D01*
X4730Y-31000D01*
X4730Y-31000D01*
X2129Y-28399D01*
X2175Y-28288D01*
Y-27423D01*
X1844Y-26624D01*
X1232Y-26012D01*
X433Y-25681D01*
X-433D01*
X-1232Y-26012D01*
X-1844Y-26624D01*
X-2175Y-27423D01*
Y-27588D01*
X-2975Y-27919D01*
X-5745Y-25149D01*
X-5699Y-25039D01*
Y-24174D01*
X-6030Y-23374D01*
X-6642Y-22763D01*
X-7441Y-22432D01*
X-8307D01*
X-9106Y-22763D01*
X-9718Y-23374D01*
X-10049Y-24174D01*
Y-25039D01*
X-9718Y-25838D01*
X-9106Y-26450D01*
X-8307Y-26781D01*
X-7441D01*
X-7331Y-26735D01*
X847Y-34913D01*
Y-39468D01*
X47Y-39799D01*
X-7081Y-32671D01*
X-7445Y-32428D01*
X-7874Y-32343D01*
X-7874Y-32343D01*
X-17796D01*
X-17841Y-32233D01*
X-18453Y-31621D01*
X-19252Y-31290D01*
X-20118D01*
X-20917Y-31621D01*
X-21393Y-32097D01*
X-22015Y-31587D01*
X-21758Y-31203D01*
X-21719Y-31110D01*
X-21664Y-31026D01*
X-21218Y-29952D01*
X-21199Y-29853D01*
X-21160Y-29760D01*
X-20933Y-28619D01*
Y-28519D01*
X-20914Y-28420D01*
Y-27257D01*
X-20933Y-27159D01*
Y-27058D01*
X-21160Y-25917D01*
X-21199Y-25825D01*
X-21218Y-25726D01*
X-21664Y-24651D01*
X-21719Y-24568D01*
X-21758Y-24475D01*
X-22404Y-23508D01*
X-22475Y-23437D01*
X-22531Y-23353D01*
X-23353Y-22531D01*
X-23437Y-22475D01*
X-23508Y-22404D01*
X-24475Y-21758D01*
X-24568Y-21719D01*
X-24651Y-21664D01*
X-25035Y-21505D01*
X-24876Y-20705D01*
X52165D01*
X52556Y-20627D01*
X52886Y-20406D01*
X53789Y-19504D01*
X54465Y-19931D01*
X53898Y-21518D01*
X52166Y-25432D01*
X50150Y-29207D01*
X47861Y-32824D01*
X45311Y-36262D01*
X42516Y-39503D01*
X39489Y-42529D01*
X36247Y-45323D01*
X32808Y-47871D01*
X29191Y-50159D01*
X25415Y-52174D01*
X21500Y-53905D01*
X17469Y-55343D01*
X13334Y-56483D01*
X11233Y-56938D01*
X11232Y-56938D01*
X11232Y-56938D01*
X11223Y-56941D01*
X10897Y-57005D01*
X10736Y-57071D01*
X10571Y-57130D01*
X9984Y-57481D01*
X9855Y-57598D01*
X9720Y-57709D01*
X9285Y-58237D01*
X9203Y-58391D01*
X9113Y-58540D01*
X8883Y-59184D01*
X8857Y-59357D01*
X8823Y-59528D01*
Y-59870D01*
X8823Y-91693D01*
Y-92084D01*
X8901Y-92475D01*
X9200Y-93198D01*
X9421Y-93529D01*
X9975Y-94083D01*
X10306Y-94304D01*
X11029Y-94603D01*
X11419Y-94681D01*
X12203D01*
X12593Y-94603D01*
X13316Y-94304D01*
X13647Y-94083D01*
X14201Y-93529D01*
X14422Y-93198D01*
X14721Y-92475D01*
X14799Y-92084D01*
Y-91693D01*
Y-63116D01*
X14802Y-63106D01*
X14818Y-62908D01*
X14933Y-62575D01*
X15123Y-62332D01*
X15418Y-62141D01*
X15566Y-62090D01*
X17590Y-61584D01*
X17622Y-61569D01*
X17657Y-61565D01*
X21707Y-60256D01*
X21738Y-60239D01*
X21772Y-60233D01*
X25725Y-58654D01*
X25754Y-58635D01*
X25788Y-58626D01*
X29625Y-56783D01*
X29653Y-56762D01*
X29687Y-56752D01*
X33391Y-54654D01*
X33417Y-54631D01*
X33450Y-54618D01*
X37004Y-52276D01*
X37029Y-52251D01*
X37060Y-52236D01*
X40448Y-49658D01*
X40471Y-49632D01*
X40502Y-49615D01*
X43708Y-46815D01*
X43729Y-46787D01*
X43758Y-46768D01*
X46768Y-43758D01*
X46788Y-43729D01*
X46815Y-43707D01*
X49615Y-40501D01*
X49633Y-40471D01*
X49659Y-40448D01*
X52236Y-37060D01*
X52251Y-37028D01*
X52276Y-37003D01*
X54619Y-33449D01*
X54632Y-33417D01*
X54655Y-33390D01*
X56752Y-29686D01*
X56763Y-29653D01*
X56784Y-29625D01*
X58626Y-25787D01*
X58635Y-25754D01*
X58654Y-25724D01*
X60233Y-21771D01*
X60240Y-21737D01*
X60257Y-21707D01*
X61565Y-17656D01*
X61569Y-17621D01*
X61584Y-17590D01*
X62090Y-15565D01*
X62141Y-15418D01*
X62332Y-15123D01*
X62575Y-14933D01*
X62908Y-14819D01*
X63064Y-14806D01*
X91693Y-14799D01*
X92084D01*
X92475Y-14721D01*
X93198Y-14422D01*
X93529Y-14201D01*
X94083Y-13647D01*
X94304Y-13316D01*
X94603Y-12593D01*
X94681Y-12203D01*
Y-11419D01*
X94681Y-11419D01*
X95381Y-10862D01*
X113189D01*
X113579Y-10785D01*
X113910Y-10564D01*
X114131Y-10233D01*
X114209Y-9843D01*
Y-8582D01*
X114851Y-8106D01*
X115662Y-8351D01*
X117323Y-8515D01*
X118984Y-8351D01*
X120581Y-7867D01*
X122054Y-7080D01*
X123344Y-6021D01*
X124403Y-4731D01*
X125190Y-3259D01*
X125674Y-1661D01*
X125838Y-0D01*
X125674Y1661D01*
X125190Y3258D01*
X124403Y4731D01*
X123344Y6021D01*
X122054Y7080D01*
X120581Y7867D01*
X118984Y8351D01*
X117323Y8515D01*
X115662Y8351D01*
X114851Y8106D01*
X114209Y8582D01*
Y9843D01*
X114131Y10233D01*
X113910Y10564D01*
X113579Y10785D01*
X113189Y10862D01*
X95381D01*
X94681Y11419D01*
Y12203D01*
X94603Y12593D01*
X94304Y13316D01*
X94083Y13647D01*
X93529Y14201D01*
X93198Y14422D01*
X92475Y14721D01*
X92084Y14799D01*
X63116D01*
X63106Y14802D01*
X62908Y14818D01*
X62575Y14933D01*
X62332Y15123D01*
X62141Y15418D01*
X62090Y15566D01*
X61584Y17590D01*
X61569Y17622D01*
X61565Y17657D01*
X60256Y21707D01*
X60239Y21738D01*
X60233Y21772D01*
X58654Y25725D01*
X58635Y25754D01*
X58626Y25788D01*
X56783Y29625D01*
X56762Y29653D01*
X56752Y29687D01*
X54654Y33391D01*
X54631Y33417D01*
X54618Y33450D01*
X52276Y37004D01*
X52251Y37029D01*
X52236Y37060D01*
X49658Y40448D01*
X49632Y40471D01*
X49615Y40502D01*
X46815Y43708D01*
X46787Y43729D01*
X46768Y43758D01*
X43758Y46768D01*
X43729Y46788D01*
X43707Y46815D01*
X40501Y49615D01*
X40471Y49633D01*
X40448Y49659D01*
X37060Y52236D01*
X37028Y52251D01*
X37003Y52276D01*
X33449Y54619D01*
X33417Y54632D01*
X33390Y54655D01*
X29686Y56752D01*
X29653Y56763D01*
X29625Y56784D01*
X25787Y58626D01*
X25754Y58635D01*
X25724Y58654D01*
X21771Y60233D01*
X21737Y60240D01*
X21707Y60257D01*
X17656Y61565D01*
X17621Y61569D01*
X17590Y61584D01*
X15566Y62090D01*
X15418Y62141D01*
X15123Y62332D01*
X14933Y62575D01*
X14819Y62908D01*
X14806Y63064D01*
X14799Y91693D01*
X14799Y91693D01*
Y92084D01*
X14721Y92475D01*
X14422Y93198D01*
X14201Y93529D01*
X13647Y94083D01*
X13316Y94304D01*
X12593Y94603D01*
X12203Y94681D01*
X11662D01*
X11102Y95079D01*
X10862Y95381D01*
X10862Y137795D01*
X10785Y138186D01*
X10564Y138516D01*
X10233Y138737D01*
X9843Y138815D01*
D02*
G37*
G36*
X137795Y8515D02*
X136134Y8351D01*
X134537Y7867D01*
X133065Y7080D01*
X131774Y6021D01*
X130715Y4731D01*
X129928Y3258D01*
X129444Y1661D01*
X129280Y-0D01*
X129444Y-1661D01*
X129928Y-3259D01*
X130715Y-4731D01*
X131774Y-6021D01*
X133065Y-7080D01*
X134537Y-7867D01*
X136134Y-8351D01*
X137795Y-8515D01*
X139456Y-8351D01*
X141054Y-7867D01*
X142526Y-7080D01*
X143816Y-6021D01*
X144875Y-4731D01*
X145662Y-3259D01*
X146147Y-1661D01*
X146310Y-0D01*
X146147Y1661D01*
X145662Y3258D01*
X144875Y4731D01*
X143816Y6021D01*
X142526Y7080D01*
X141054Y7867D01*
X139456Y8351D01*
X137795Y8515D01*
D02*
G37*
G36*
X-137795D02*
X-139456Y8351D01*
X-141054Y7867D01*
X-142526Y7080D01*
X-143816Y6021D01*
X-144875Y4731D01*
X-145662Y3258D01*
X-146147Y1661D01*
X-146310Y-0D01*
X-146147Y-1661D01*
X-145662Y-3259D01*
X-144875Y-4731D01*
X-143816Y-6021D01*
X-142526Y-7080D01*
X-141054Y-7867D01*
X-139456Y-8351D01*
X-137795Y-8515D01*
X-136134Y-8351D01*
X-134537Y-7867D01*
X-133065Y-7080D01*
X-131774Y-6021D01*
X-130715Y-4731D01*
X-129928Y-3259D01*
X-129444Y-1661D01*
X-129280Y-0D01*
X-129444Y1661D01*
X-129928Y3258D01*
X-130715Y4731D01*
X-131774Y6021D01*
X-133065Y7080D01*
X-134537Y7867D01*
X-136134Y8351D01*
X-137795Y8515D01*
D02*
G37*
G36*
X-66496Y-24400D02*
X-67362D01*
X-68161Y-24731D01*
X-68773Y-25343D01*
X-69104Y-26142D01*
Y-27007D01*
X-68773Y-27807D01*
X-68161Y-28418D01*
X-67362Y-28750D01*
X-66496D01*
X-65697Y-28418D01*
X-65085Y-27807D01*
X-64754Y-27007D01*
Y-26142D01*
X-65085Y-25343D01*
X-65697Y-24731D01*
X-66496Y-24400D01*
D02*
G37*
G36*
X20177Y-28412D02*
X18902Y-28537D01*
X17676Y-28909D01*
X16545Y-29513D01*
X15555Y-30327D01*
X14742Y-31317D01*
X14138Y-32447D01*
X13766Y-33674D01*
X13640Y-34949D01*
X13766Y-36224D01*
X14138Y-37450D01*
X14742Y-38581D01*
X15555Y-39571D01*
X16545Y-40384D01*
X17676Y-40988D01*
X18902Y-41360D01*
X20177Y-41486D01*
X21452Y-41360D01*
X22679Y-40988D01*
X23809Y-40384D01*
X24800Y-39571D01*
X25613Y-38581D01*
X26217Y-37450D01*
X26588Y-36224D01*
X26714Y-34949D01*
X26588Y-33674D01*
X26217Y-32447D01*
X25613Y-31317D01*
X24800Y-30327D01*
X23809Y-29513D01*
X22679Y-28909D01*
X21452Y-28537D01*
X20177Y-28412D01*
D02*
G37*
G36*
X-77323Y-37195D02*
X-78189D01*
X-78988Y-37526D01*
X-79600Y-38138D01*
X-79931Y-38938D01*
Y-39803D01*
X-79600Y-40602D01*
X-78988Y-41214D01*
X-78189Y-41545D01*
X-77323D01*
X-76524Y-41214D01*
X-75912Y-40602D01*
X-75581Y-39803D01*
Y-38938D01*
X-75912Y-38138D01*
X-76524Y-37526D01*
X-77323Y-37195D01*
D02*
G37*
G36*
X56419Y-41648D02*
X55554D01*
X54755Y-41979D01*
X54143Y-42591D01*
X53812Y-43390D01*
Y-44255D01*
X54143Y-45055D01*
X54755Y-45666D01*
X55554Y-45997D01*
X56419D01*
X57219Y-45666D01*
X57831Y-45055D01*
X58162Y-44255D01*
Y-43390D01*
X57831Y-42591D01*
X57219Y-41979D01*
X56419Y-41648D01*
D02*
G37*
G36*
X62650Y-42597D02*
X61785D01*
X60985Y-42928D01*
X60374Y-43540D01*
X60043Y-44339D01*
Y-45204D01*
X60374Y-46003D01*
X60985Y-46615D01*
X61785Y-46946D01*
X62650D01*
X63449Y-46615D01*
X64061Y-46003D01*
X64392Y-45204D01*
Y-44339D01*
X64061Y-43540D01*
X63449Y-42928D01*
X62650Y-42597D01*
D02*
G37*
G36*
X-72402Y-43101D02*
X-73267D01*
X-74067Y-43432D01*
X-74678Y-44044D01*
X-75010Y-44843D01*
Y-45708D01*
X-74678Y-46507D01*
X-74067Y-47119D01*
X-73267Y-47450D01*
X-72402D01*
X-71603Y-47119D01*
X-70991Y-46507D01*
X-70660Y-45708D01*
Y-44843D01*
X-70991Y-44044D01*
X-71603Y-43432D01*
X-72402Y-43101D01*
D02*
G37*
G36*
X-67481Y-49006D02*
X-68346D01*
X-69145Y-49337D01*
X-69757Y-49949D01*
X-70088Y-50748D01*
Y-51614D01*
X-69757Y-52413D01*
X-69145Y-53025D01*
X-68346Y-53356D01*
X-67481D01*
X-66681Y-53025D01*
X-66070Y-52413D01*
X-65739Y-51614D01*
Y-50748D01*
X-66070Y-49949D01*
X-66681Y-49337D01*
X-67481Y-49006D01*
D02*
G37*
G36*
X-62559Y-52943D02*
X-63425D01*
X-64224Y-53274D01*
X-64836Y-53886D01*
X-65167Y-54685D01*
Y-55551D01*
X-64836Y-56350D01*
X-64224Y-56962D01*
X-63425Y-57293D01*
X-62559D01*
X-61827Y-56990D01*
X-61609Y-57104D01*
X-61177Y-57510D01*
X-61230Y-57638D01*
Y-58504D01*
X-60899Y-59303D01*
X-60287Y-59915D01*
X-59488Y-60246D01*
X-58622D01*
X-57823Y-59915D01*
X-57211Y-59303D01*
X-56880Y-58504D01*
Y-57638D01*
X-57211Y-56839D01*
X-57823Y-56227D01*
X-58622Y-55896D01*
X-59488D01*
X-60220Y-56199D01*
X-60439Y-56085D01*
X-60871Y-55679D01*
X-60817Y-55551D01*
Y-54685D01*
X-61148Y-53886D01*
X-61760Y-53274D01*
X-62559Y-52943D01*
D02*
G37*
G36*
X-106260Y-67116D02*
X-107125D01*
X-107925Y-67448D01*
X-108537Y-68059D01*
X-108868Y-68859D01*
Y-69724D01*
X-108537Y-70523D01*
X-107925Y-71135D01*
X-107125Y-71466D01*
X-106260D01*
X-105461Y-71135D01*
X-104849Y-70523D01*
X-104518Y-69724D01*
Y-68859D01*
X-104849Y-68059D01*
X-105461Y-67448D01*
X-106260Y-67116D01*
D02*
G37*
G36*
X26021Y-64726D02*
X25155D01*
X24356Y-65057D01*
X23744Y-65669D01*
X23413Y-66468D01*
Y-67333D01*
X23744Y-68133D01*
X24356Y-68744D01*
X25155Y-69076D01*
X26021D01*
X26731Y-68781D01*
X27008Y-68937D01*
X27377Y-69314D01*
X27183Y-69781D01*
Y-70646D01*
X27514Y-71446D01*
X28126Y-72057D01*
X28925Y-72388D01*
X29790D01*
X30590Y-72057D01*
X31201Y-71446D01*
X31533Y-70646D01*
Y-69781D01*
X31201Y-68982D01*
X30590Y-68370D01*
X29790Y-68039D01*
X28925D01*
X28214Y-68333D01*
X27938Y-68178D01*
X27569Y-67801D01*
X27763Y-67333D01*
Y-66468D01*
X27432Y-65669D01*
X26820Y-65057D01*
X26021Y-64726D01*
D02*
G37*
G36*
X-48780Y-65739D02*
X-49645D01*
X-50445Y-66070D01*
X-51056Y-66681D01*
X-51387Y-67481D01*
Y-68346D01*
X-51056Y-69145D01*
X-50445Y-69757D01*
X-49645Y-70088D01*
X-48780D01*
X-48048Y-69785D01*
X-47829Y-69899D01*
X-47397Y-70305D01*
X-47450Y-70433D01*
Y-71299D01*
X-47119Y-72098D01*
X-46507Y-72710D01*
X-45708Y-73041D01*
X-44843D01*
X-44044Y-72710D01*
X-43432Y-72098D01*
X-43101Y-71299D01*
Y-70433D01*
X-43432Y-69634D01*
X-44044Y-69022D01*
X-44843Y-68691D01*
X-45708D01*
X-46441Y-68995D01*
X-46659Y-68880D01*
X-47091Y-68475D01*
X-47038Y-68346D01*
Y-67481D01*
X-47369Y-66681D01*
X-47981Y-66070D01*
X-48780Y-65739D01*
D02*
G37*
G36*
X-77323Y-26368D02*
X-78189D01*
X-78988Y-26700D01*
X-79600Y-27311D01*
X-79931Y-28111D01*
Y-28976D01*
X-79600Y-29775D01*
X-78988Y-30387D01*
X-78189Y-30718D01*
X-77323D01*
X-76524Y-30387D01*
X-75912Y-29775D01*
X-75909Y-29767D01*
X-74326D01*
X-30393Y-73700D01*
X-29996Y-73965D01*
X-29528Y-74058D01*
X-25469D01*
X-25466Y-74067D01*
X-24854Y-74678D01*
X-24055Y-75010D01*
X-23189D01*
X-22390Y-74678D01*
X-21778Y-74067D01*
X-21447Y-73267D01*
Y-72402D01*
X-21778Y-71603D01*
X-22390Y-70991D01*
X-23189Y-70660D01*
X-24055D01*
X-24854Y-70991D01*
X-25466Y-71603D01*
X-25469Y-71611D01*
X-29021D01*
X-72954Y-27678D01*
X-73351Y-27413D01*
X-73819Y-27320D01*
X-75909D01*
X-75912Y-27311D01*
X-76524Y-26700D01*
X-77323Y-26368D01*
D02*
G37*
G36*
X-125552Y-71644D02*
X-126417D01*
X-127216Y-71975D01*
X-127828Y-72587D01*
X-128159Y-73386D01*
Y-74252D01*
X-127828Y-75051D01*
X-127216Y-75663D01*
X-126417Y-75994D01*
X-125552D01*
X-124752Y-75663D01*
X-124141Y-75051D01*
X-123809Y-74252D01*
Y-73386D01*
X-124141Y-72587D01*
X-124752Y-71975D01*
X-125552Y-71644D01*
D02*
G37*
G36*
X115590Y-72628D02*
X114725D01*
X113926Y-72959D01*
X113314Y-73571D01*
X112983Y-74371D01*
Y-75236D01*
X113314Y-76035D01*
X113926Y-76647D01*
X114725Y-76978D01*
X115590D01*
X116389Y-76647D01*
X117001Y-76035D01*
X117332Y-75236D01*
Y-74371D01*
X117001Y-73571D01*
X116389Y-72959D01*
X115590Y-72628D01*
D02*
G37*
G36*
X-84847Y-74010D02*
X-85712D01*
X-86511Y-74341D01*
X-87123Y-74953D01*
X-87454Y-75752D01*
Y-76618D01*
X-87123Y-77417D01*
X-86511Y-78029D01*
X-85712Y-78360D01*
X-84847D01*
X-84048Y-78029D01*
X-83436Y-77417D01*
X-83105Y-76618D01*
Y-75752D01*
X-83436Y-74953D01*
X-84048Y-74341D01*
X-84847Y-74010D01*
D02*
G37*
G36*
X-118662Y-74597D02*
X-119527D01*
X-120326Y-74928D01*
X-120938Y-75540D01*
X-121269Y-76339D01*
Y-76827D01*
X-121503Y-77316D01*
X-121992Y-77550D01*
X-122480D01*
X-123279Y-77881D01*
X-123891Y-78492D01*
X-124222Y-79292D01*
Y-80157D01*
X-124169Y-80286D01*
X-124601Y-80691D01*
X-124819Y-80806D01*
X-125552Y-80502D01*
X-126417D01*
X-127216Y-80834D01*
X-127828Y-81445D01*
X-128159Y-82245D01*
Y-83110D01*
X-127828Y-83909D01*
X-127570Y-84167D01*
X-127432Y-84872D01*
X-127614Y-85168D01*
X-128025Y-85579D01*
X-128356Y-86378D01*
Y-87244D01*
X-128025Y-88043D01*
X-127413Y-88655D01*
X-126614Y-88986D01*
X-125749D01*
X-124949Y-88655D01*
X-124337Y-88043D01*
X-124006Y-87244D01*
Y-86378D01*
X-124337Y-85579D01*
X-124595Y-85322D01*
X-124733Y-84616D01*
X-124551Y-84320D01*
X-124141Y-83909D01*
X-123809Y-83110D01*
Y-82245D01*
X-123863Y-82116D01*
X-123431Y-81710D01*
X-123212Y-81596D01*
X-122480Y-81899D01*
X-121615D01*
X-120815Y-81568D01*
X-120203Y-80956D01*
X-119872Y-80157D01*
Y-79669D01*
X-119639Y-79180D01*
X-119150Y-78947D01*
X-118662D01*
X-117863Y-78615D01*
X-117251Y-78004D01*
X-116920Y-77204D01*
Y-76339D01*
X-117251Y-75540D01*
X-117863Y-74928D01*
X-118662Y-74597D01*
D02*
G37*
G36*
X96032Y-82979D02*
X95167D01*
X94368Y-83310D01*
X93756Y-83922D01*
X93425Y-84721D01*
Y-85586D01*
X93756Y-86386D01*
X94368Y-86997D01*
X95167Y-87328D01*
X96032D01*
X96831Y-86997D01*
X97443Y-86386D01*
X97774Y-85586D01*
Y-84721D01*
X97443Y-83922D01*
X96831Y-83310D01*
X96032Y-82979D01*
D02*
G37*
G36*
X90000Y-85424D02*
X89134D01*
X88335Y-85755D01*
X87723Y-86366D01*
X87392Y-87166D01*
Y-88031D01*
X87723Y-88830D01*
X88335Y-89442D01*
X89134Y-89773D01*
X90000D01*
X90799Y-89442D01*
X91411Y-88830D01*
X91742Y-88031D01*
Y-87166D01*
X91411Y-86366D01*
X90799Y-85755D01*
X90000Y-85424D01*
D02*
G37*
G36*
X104370Y-83652D02*
X103504D01*
X102705Y-83983D01*
X102093Y-84595D01*
X101762Y-85394D01*
Y-86259D01*
X102093Y-87059D01*
X102705Y-87670D01*
X103504Y-88002D01*
X104370D01*
X105169Y-87670D01*
X105393Y-87447D01*
X106336Y-87634D01*
X106424Y-87846D01*
X107036Y-88458D01*
X107835Y-88789D01*
X108700D01*
X109230Y-88570D01*
X109952Y-88934D01*
X110030Y-89015D01*
X110361Y-89815D01*
X110973Y-90426D01*
X111772Y-90758D01*
X112637D01*
X113437Y-90426D01*
X114048Y-89815D01*
X114380Y-89015D01*
Y-88150D01*
X114048Y-87351D01*
X113437Y-86739D01*
X112637Y-86408D01*
X111772D01*
X111242Y-86627D01*
X110520Y-86263D01*
X110442Y-86182D01*
X110111Y-85382D01*
X109500Y-84771D01*
X108700Y-84439D01*
X107835D01*
X107036Y-84771D01*
X106812Y-84994D01*
X105868Y-84807D01*
X105781Y-84595D01*
X105169Y-83983D01*
X104370Y-83652D01*
D02*
G37*
G36*
X-142284Y-87392D02*
X-143149D01*
X-143948Y-87723D01*
X-144560Y-88335D01*
X-144891Y-89134D01*
Y-90000D01*
X-144560Y-90799D01*
X-143948Y-91411D01*
X-143149Y-91742D01*
X-142284D01*
X-141485Y-91411D01*
X-140873Y-90799D01*
X-140542Y-90000D01*
Y-89134D01*
X-140873Y-88335D01*
X-141485Y-87723D01*
X-142284Y-87392D01*
D02*
G37*
G36*
X-36969Y-92313D02*
X-37834D01*
X-38633Y-92645D01*
X-39245Y-93256D01*
X-39576Y-94056D01*
Y-94921D01*
X-39245Y-95720D01*
X-38633Y-96332D01*
X-37834Y-96663D01*
X-36969D01*
X-36170Y-96332D01*
X-35558Y-95720D01*
X-35227Y-94921D01*
Y-94056D01*
X-35558Y-93256D01*
X-36170Y-92645D01*
X-36969Y-92313D01*
D02*
G37*
G36*
X100826Y-93298D02*
X99961D01*
X99162Y-93629D01*
X98550Y-94240D01*
X98219Y-95040D01*
Y-95905D01*
X98550Y-96704D01*
X99162Y-97316D01*
X99961Y-97647D01*
X100826D01*
X101626Y-97316D01*
X102237Y-96704D01*
X102568Y-95905D01*
Y-95040D01*
X102237Y-94240D01*
X101626Y-93629D01*
X100826Y-93298D01*
D02*
G37*
G36*
X125629Y-90739D02*
X124764D01*
X123965Y-91070D01*
X123353Y-91681D01*
X123022Y-92481D01*
Y-93346D01*
X123353Y-94145D01*
X123965Y-94757D01*
X124764Y-95088D01*
X125629D01*
X126241Y-94835D01*
X126819Y-95412D01*
X126565Y-96024D01*
Y-96889D01*
X126819Y-97501D01*
X126241Y-98079D01*
X125629Y-97825D01*
X124764D01*
X123965Y-98156D01*
X123353Y-98768D01*
X123022Y-99567D01*
Y-100433D01*
X123353Y-101232D01*
X123965Y-101844D01*
X124764Y-102175D01*
X125629D01*
X126429Y-101844D01*
X127041Y-101232D01*
X127372Y-100433D01*
Y-99567D01*
X127118Y-98956D01*
X127696Y-98378D01*
X128308Y-98632D01*
X129173D01*
X129972Y-98300D01*
X130584Y-97689D01*
X130915Y-96889D01*
Y-96024D01*
X130584Y-95225D01*
X129972Y-94613D01*
X129173Y-94282D01*
X128308D01*
X127696Y-94535D01*
X127118Y-93958D01*
X127372Y-93346D01*
Y-92481D01*
X127041Y-91681D01*
X126429Y-91070D01*
X125629Y-90739D01*
D02*
G37*
G36*
X-69449Y-94282D02*
X-70315D01*
X-71114Y-94613D01*
X-71726Y-95225D01*
X-72057Y-96024D01*
Y-96889D01*
X-71726Y-97689D01*
X-71114Y-98300D01*
X-70315Y-98632D01*
X-69449D01*
X-68650Y-98300D01*
X-68038Y-97689D01*
X-67707Y-96889D01*
Y-96024D01*
X-68038Y-95225D01*
X-68650Y-94613D01*
X-69449Y-94282D01*
D02*
G37*
G36*
X75236Y-95200D02*
X74371D01*
X73571Y-95531D01*
X72959Y-96143D01*
X72628Y-96942D01*
Y-97807D01*
X72959Y-98607D01*
X73571Y-99218D01*
X74371Y-99550D01*
X75236D01*
X76035Y-99218D01*
X76647Y-98607D01*
X76978Y-97807D01*
Y-96942D01*
X76647Y-96143D01*
X76035Y-95531D01*
X75236Y-95200D01*
D02*
G37*
G36*
X68346Y-95266D02*
X67481D01*
X66681Y-95597D01*
X66070Y-96209D01*
X65739Y-97008D01*
Y-97874D01*
X66070Y-98673D01*
X66681Y-99285D01*
X67481Y-99616D01*
X68346D01*
X69145Y-99285D01*
X69757Y-98673D01*
X70088Y-97874D01*
Y-97008D01*
X69757Y-96209D01*
X69145Y-95597D01*
X68346Y-95266D01*
D02*
G37*
G36*
X-100945Y-101172D02*
X-101811D01*
X-102610Y-101503D01*
X-103222Y-102114D01*
X-103553Y-102914D01*
Y-103402D01*
X-103787Y-103891D01*
X-104276Y-104124D01*
X-104386D01*
X-104875Y-103891D01*
X-105109Y-103402D01*
Y-102914D01*
X-105440Y-102114D01*
X-106052Y-101503D01*
X-106851Y-101172D01*
X-107716D01*
X-108515Y-101503D01*
X-109127Y-102114D01*
X-109458Y-102914D01*
Y-103779D01*
X-109127Y-104578D01*
X-108515Y-105190D01*
X-107716Y-105521D01*
X-107608D01*
X-107350Y-105783D01*
X-107213Y-106115D01*
X-107468Y-106471D01*
X-107716D01*
X-108515Y-106802D01*
X-109127Y-107414D01*
X-109458Y-108213D01*
Y-109078D01*
X-109127Y-109878D01*
X-108515Y-110489D01*
X-107716Y-110820D01*
X-106851D01*
X-106052Y-110489D01*
X-105440Y-109878D01*
X-105109Y-109078D01*
X-104621Y-108660D01*
X-103730Y-108780D01*
X-103511Y-109179D01*
X-103222Y-109878D01*
X-102610Y-110489D01*
X-101811Y-110820D01*
X-100945D01*
X-100146Y-110489D01*
X-99534Y-109878D01*
X-99203Y-109078D01*
Y-108213D01*
X-99534Y-107414D01*
X-100146Y-106802D01*
X-100945Y-106471D01*
X-101193D01*
X-101448Y-106115D01*
X-101312Y-105783D01*
X-101053Y-105521D01*
X-100945D01*
X-100146Y-105190D01*
X-99534Y-104578D01*
X-99203Y-103779D01*
Y-102914D01*
X-99534Y-102114D01*
X-100146Y-101503D01*
X-100945Y-101172D01*
D02*
G37*
G36*
X-113741Y-100187D02*
X-114606D01*
X-115405Y-100519D01*
X-116017Y-101130D01*
X-116348Y-101930D01*
Y-102795D01*
X-116017Y-103594D01*
X-115405Y-104206D01*
X-114606Y-104537D01*
X-113741D01*
X-112941Y-104206D01*
X-112329Y-103594D01*
X-111998Y-102795D01*
Y-101930D01*
X-112329Y-101130D01*
X-112941Y-100519D01*
X-113741Y-100187D01*
D02*
G37*
G36*
X75236Y-101150D02*
X74371D01*
X73571Y-101481D01*
X72959Y-102093D01*
X72628Y-102892D01*
Y-103757D01*
X72959Y-104556D01*
X73571Y-105168D01*
X74371Y-105499D01*
X75236D01*
X76035Y-105168D01*
X76647Y-104556D01*
X76978Y-103757D01*
Y-102892D01*
X76647Y-102093D01*
X76035Y-101481D01*
X75236Y-101150D01*
D02*
G37*
G36*
X-144252Y-102156D02*
X-145118D01*
X-145917Y-102487D01*
X-146529Y-103099D01*
X-146860Y-103898D01*
Y-104763D01*
X-146529Y-105563D01*
X-145917Y-106174D01*
X-145118Y-106506D01*
X-144252D01*
X-143453Y-106174D01*
X-142841Y-105563D01*
X-142510Y-104763D01*
Y-103898D01*
X-142841Y-103099D01*
X-143453Y-102487D01*
X-144252Y-102156D01*
D02*
G37*
G36*
X103779Y-104124D02*
X102914D01*
X102114Y-104455D01*
X101503Y-105067D01*
X101172Y-105867D01*
Y-106732D01*
X101503Y-107531D01*
X102114Y-108143D01*
X102914Y-108474D01*
X103779D01*
X104578Y-108143D01*
X105190Y-107531D01*
X105521Y-106732D01*
Y-105867D01*
X105190Y-105067D01*
X104578Y-104455D01*
X103779Y-104124D01*
D02*
G37*
G36*
X-53701Y-105109D02*
X-54567D01*
X-55366Y-105440D01*
X-55978Y-106052D01*
X-56309Y-106851D01*
Y-107716D01*
X-55978Y-108515D01*
X-55366Y-109127D01*
X-54567Y-109458D01*
X-53701D01*
X-52902Y-109127D01*
X-52290Y-108515D01*
X-51959Y-107716D01*
Y-106851D01*
X-52290Y-106052D01*
X-52902Y-105440D01*
X-53701Y-105109D01*
D02*
G37*
G36*
X-71418D02*
X-72283D01*
X-73082Y-105440D01*
X-73694Y-106052D01*
X-74025Y-106851D01*
Y-107716D01*
X-73694Y-108515D01*
X-73082Y-109127D01*
X-72283Y-109458D01*
X-71418D01*
X-70618Y-109127D01*
X-70007Y-108515D01*
X-69676Y-107716D01*
Y-106851D01*
X-70007Y-106052D01*
X-70618Y-105440D01*
X-71418Y-105109D01*
D02*
G37*
G36*
X13228Y-106093D02*
X12363D01*
X11563Y-106424D01*
X10952Y-107036D01*
X10621Y-107835D01*
Y-108700D01*
X10952Y-109500D01*
X11563Y-110111D01*
X12363Y-110442D01*
X13228D01*
X14027Y-110111D01*
X14639Y-109500D01*
X14970Y-108700D01*
Y-107835D01*
X14639Y-107036D01*
X14027Y-106424D01*
X13228Y-106093D01*
D02*
G37*
G36*
X-127671Y-106487D02*
X-128536D01*
X-129335Y-106818D01*
X-129947Y-107430D01*
X-130278Y-108229D01*
Y-109094D01*
X-129947Y-109893D01*
X-129335Y-110505D01*
X-128536Y-110836D01*
X-127671D01*
X-126872Y-110505D01*
X-126260Y-109893D01*
X-125929Y-109094D01*
Y-108229D01*
X-126260Y-107430D01*
X-126872Y-106818D01*
X-127671Y-106487D01*
D02*
G37*
G36*
X75636Y-107360D02*
X74771D01*
X73971Y-107691D01*
X73359Y-108303D01*
X73028Y-109102D01*
Y-109967D01*
X73359Y-110767D01*
X73971Y-111379D01*
X74771Y-111710D01*
X75636D01*
X76435Y-111379D01*
X77047Y-110767D01*
X77378Y-109967D01*
Y-109102D01*
X77047Y-108303D01*
X76435Y-107691D01*
X75636Y-107360D01*
D02*
G37*
G36*
X-144252Y-108061D02*
X-145118D01*
X-145917Y-108393D01*
X-146529Y-109004D01*
X-146860Y-109804D01*
Y-110669D01*
X-146529Y-111468D01*
X-145917Y-112080D01*
X-145118Y-112411D01*
X-144252D01*
X-143453Y-112080D01*
X-142841Y-111468D01*
X-142510Y-110669D01*
Y-109804D01*
X-142841Y-109004D01*
X-143453Y-108393D01*
X-144252Y-108061D01*
D02*
G37*
G36*
X113622Y-109046D02*
X112756D01*
X111957Y-109377D01*
X111345Y-109988D01*
X111014Y-110788D01*
Y-111653D01*
X111345Y-112452D01*
X111957Y-113064D01*
X112756Y-113395D01*
X113622D01*
X114421Y-113064D01*
X115033Y-112452D01*
X115364Y-111653D01*
Y-110788D01*
X115033Y-109988D01*
X114421Y-109377D01*
X113622Y-109046D01*
D02*
G37*
G36*
X53976Y-110719D02*
X53111D01*
X52311Y-111050D01*
X51700Y-111662D01*
X51368Y-112461D01*
Y-113326D01*
X51700Y-114126D01*
X52311Y-114737D01*
X53111Y-115068D01*
X53976D01*
X54775Y-114737D01*
X55387Y-114126D01*
X55718Y-113326D01*
Y-112461D01*
X55387Y-111662D01*
X54775Y-111050D01*
X53976Y-110719D01*
D02*
G37*
G36*
X-53701Y-111014D02*
X-54567D01*
X-55366Y-111345D01*
X-55978Y-111957D01*
X-56309Y-112756D01*
Y-113622D01*
X-55978Y-114421D01*
X-55366Y-115033D01*
X-54567Y-115364D01*
X-53701D01*
X-52902Y-115033D01*
X-52290Y-114421D01*
X-51959Y-113622D01*
Y-112756D01*
X-52290Y-111957D01*
X-52902Y-111345D01*
X-53701Y-111014D01*
D02*
G37*
G36*
X90000Y-114967D02*
X89134D01*
X88335Y-115298D01*
X87723Y-115910D01*
X87392Y-116709D01*
Y-117574D01*
X87434Y-117676D01*
X87024Y-118076D01*
X86787Y-118204D01*
X86063Y-117904D01*
X85197D01*
X84398Y-118235D01*
X83786Y-118847D01*
X83455Y-119646D01*
Y-120511D01*
X83786Y-121311D01*
X84398Y-121923D01*
X85197Y-122254D01*
X86063D01*
X86862Y-121923D01*
X87474Y-121311D01*
X87805Y-120511D01*
Y-119646D01*
X87763Y-119544D01*
X88173Y-119144D01*
X88410Y-119016D01*
X89134Y-119316D01*
X90000D01*
X90799Y-118985D01*
X91411Y-118374D01*
X91742Y-117574D01*
Y-116709D01*
X91411Y-115910D01*
X90799Y-115298D01*
X90000Y-114967D01*
D02*
G37*
G36*
X-79292Y-114929D02*
X-80157D01*
X-80956Y-115260D01*
X-81568Y-115872D01*
X-81899Y-116671D01*
Y-117536D01*
X-81568Y-118336D01*
X-80956Y-118948D01*
X-80157Y-119279D01*
X-79292D01*
X-78492Y-118948D01*
X-77881Y-118336D01*
X-77550Y-117536D01*
Y-116671D01*
X-77881Y-115872D01*
X-78492Y-115260D01*
X-79292Y-114929D01*
D02*
G37*
G36*
X76220Y-114951D02*
X75355D01*
X74555Y-115282D01*
X73944Y-115894D01*
X73613Y-116693D01*
Y-117559D01*
X73944Y-118358D01*
X74555Y-118970D01*
X75355Y-119301D01*
X76220D01*
X77019Y-118970D01*
X77631Y-118358D01*
X77962Y-117559D01*
Y-116693D01*
X77631Y-115894D01*
X77019Y-115282D01*
X76220Y-114951D01*
D02*
G37*
G36*
X-114134Y-115148D02*
X-114999D01*
X-115799Y-115479D01*
X-116411Y-116091D01*
X-116742Y-116890D01*
Y-117755D01*
X-116411Y-118555D01*
X-115799Y-119167D01*
X-114999Y-119498D01*
X-114134D01*
X-113335Y-119167D01*
X-112723Y-118555D01*
X-112392Y-117755D01*
Y-116890D01*
X-112723Y-116091D01*
X-113335Y-115479D01*
X-114134Y-115148D01*
D02*
G37*
G36*
X107738Y-118691D02*
X106873D01*
X106074Y-119022D01*
X105462Y-119634D01*
X105131Y-120433D01*
Y-121299D01*
X105462Y-122098D01*
X106074Y-122710D01*
X106873Y-123041D01*
X107738D01*
X108537Y-122710D01*
X109149Y-122098D01*
X109480Y-121299D01*
Y-120433D01*
X109149Y-119634D01*
X108537Y-119022D01*
X107738Y-118691D01*
D02*
G37*
G36*
X95905Y-118888D02*
X95040D01*
X94240Y-119219D01*
X93629Y-119831D01*
X93298Y-120630D01*
Y-121496D01*
X93629Y-122295D01*
X94240Y-122907D01*
X95040Y-123238D01*
X95905D01*
X96704Y-122907D01*
X97316Y-122295D01*
X97647Y-121496D01*
Y-120630D01*
X97316Y-119831D01*
X96704Y-119219D01*
X95905Y-118888D01*
D02*
G37*
G36*
X41771D02*
X40906D01*
X40107Y-119219D01*
X39495Y-119831D01*
X39164Y-120630D01*
Y-121496D01*
X39495Y-122295D01*
X40107Y-122907D01*
X40906Y-123238D01*
X41771D01*
X42570Y-122907D01*
X43182Y-122295D01*
X43513Y-121496D01*
Y-120630D01*
X43182Y-119831D01*
X42570Y-119219D01*
X41771Y-118888D01*
D02*
G37*
G36*
X-124567D02*
X-125433D01*
X-126232Y-119219D01*
X-126844Y-119831D01*
X-127175Y-120630D01*
Y-121496D01*
X-126844Y-122295D01*
X-126232Y-122907D01*
X-125433Y-123238D01*
X-124567D01*
X-123768Y-122907D01*
X-123156Y-122295D01*
X-122825Y-121496D01*
Y-120630D01*
X-123156Y-119831D01*
X-123768Y-119219D01*
X-124567Y-118888D01*
D02*
G37*
G36*
X101614Y-119085D02*
X100749D01*
X99949Y-119416D01*
X99337Y-120028D01*
X99006Y-120827D01*
Y-121692D01*
X99337Y-122492D01*
X99949Y-123103D01*
X100749Y-123435D01*
X101614D01*
X102413Y-123103D01*
X103025Y-122492D01*
X103356Y-121692D01*
Y-120827D01*
X103025Y-120028D01*
X102413Y-119416D01*
X101614Y-119085D01*
D02*
G37*
G36*
X-0Y-108808D02*
X-1661Y-108971D01*
X-3259Y-109456D01*
X-4731Y-110243D01*
X-6021Y-111302D01*
X-7080Y-112592D01*
X-7867Y-114064D01*
X-8351Y-115662D01*
X-8515Y-117323D01*
X-8351Y-118984D01*
X-7867Y-120581D01*
X-7080Y-122054D01*
X-6021Y-123344D01*
X-4731Y-124403D01*
X-3259Y-125190D01*
X-1661Y-125674D01*
X-0Y-125838D01*
X1661Y-125674D01*
X3258Y-125190D01*
X4731Y-124403D01*
X6021Y-123344D01*
X7080Y-122054D01*
X7867Y-120581D01*
X8351Y-118984D01*
X8515Y-117323D01*
X8351Y-115662D01*
X7867Y-114064D01*
X7080Y-112592D01*
X6021Y-111302D01*
X4731Y-110243D01*
X3258Y-109456D01*
X1661Y-108971D01*
X-0Y-108808D01*
D02*
G37*
G36*
X67362Y-121841D02*
X66496D01*
X65697Y-122172D01*
X65085Y-122784D01*
X64754Y-123583D01*
Y-124448D01*
X65085Y-125248D01*
X65697Y-125859D01*
X66496Y-126191D01*
X67362D01*
X68161Y-125859D01*
X68773Y-125248D01*
X69104Y-124448D01*
Y-123583D01*
X68773Y-122784D01*
X68161Y-122172D01*
X67362Y-121841D01*
D02*
G37*
G36*
X104763Y-123809D02*
X103898D01*
X103099Y-124141D01*
X102487Y-124752D01*
X102156Y-125552D01*
Y-126417D01*
X102487Y-127216D01*
X103099Y-127828D01*
X103898Y-128159D01*
X104763D01*
X105563Y-127828D01*
X106174Y-127216D01*
X106506Y-126417D01*
Y-125552D01*
X106174Y-124752D01*
X105563Y-124141D01*
X104763Y-123809D01*
D02*
G37*
G36*
X-29095D02*
X-29960D01*
X-30760Y-124141D01*
X-31371Y-124752D01*
X-31702Y-125552D01*
Y-126417D01*
X-31371Y-127216D01*
X-30760Y-127828D01*
X-29960Y-128159D01*
X-29095D01*
X-28296Y-127828D01*
X-27684Y-127216D01*
X-27353Y-126417D01*
Y-125552D01*
X-27684Y-124752D01*
X-28296Y-124141D01*
X-29095Y-123809D01*
D02*
G37*
G36*
X-123583Y-125778D02*
X-124448D01*
X-125248Y-126109D01*
X-125859Y-126721D01*
X-126191Y-127520D01*
Y-128385D01*
X-125859Y-129185D01*
X-125248Y-129797D01*
X-124448Y-130128D01*
X-123583D01*
X-122784Y-129797D01*
X-122172Y-129185D01*
X-121841Y-128385D01*
Y-127520D01*
X-122172Y-126721D01*
X-122784Y-126109D01*
X-123583Y-125778D01*
D02*
G37*
G36*
X14606Y-126959D02*
X13741D01*
X12941Y-127290D01*
X12330Y-127902D01*
X11998Y-128701D01*
Y-129567D01*
X12330Y-130366D01*
X12941Y-130978D01*
X13741Y-131309D01*
X14606D01*
X15405Y-130978D01*
X16017Y-130366D01*
X16348Y-129567D01*
Y-128701D01*
X16017Y-127902D01*
X15405Y-127290D01*
X14606Y-126959D01*
D02*
G37*
G36*
X-42775Y-124735D02*
X-43840D01*
X-44868Y-125010D01*
X-45791Y-125543D01*
X-46544Y-126296D01*
X-47076Y-127218D01*
X-47352Y-128247D01*
Y-129312D01*
X-47076Y-130341D01*
X-46544Y-131263D01*
X-45791Y-132016D01*
X-44868Y-132549D01*
X-43840Y-132824D01*
X-42775D01*
X-41746Y-132549D01*
X-40824Y-132016D01*
X-40070Y-131263D01*
X-39538Y-130341D01*
X-39262Y-129312D01*
Y-128247D01*
X-39538Y-127218D01*
X-40070Y-126296D01*
X-40824Y-125543D01*
X-41746Y-125010D01*
X-42775Y-124735D01*
D02*
G37*
G36*
X17008Y-131726D02*
X16256Y-131825D01*
X15556Y-132115D01*
X14954Y-132576D01*
X14493Y-133178D01*
X14202Y-133878D01*
X14104Y-134630D01*
Y-138409D01*
X13617Y-138617D01*
X13304Y-138654D01*
X12853Y-138204D01*
X12177Y-137924D01*
X11445D01*
X10769Y-138204D01*
X10251Y-138721D01*
X9971Y-139398D01*
Y-140130D01*
X10251Y-140806D01*
X10769Y-141324D01*
X11445Y-141604D01*
X12177D01*
X12853Y-141324D01*
X13371Y-140806D01*
X13533Y-140415D01*
X14390Y-140394D01*
X14493Y-140641D01*
X14954Y-141243D01*
X15556Y-141704D01*
X16256Y-141994D01*
X17008Y-142093D01*
X17760Y-141994D01*
X18460Y-141704D01*
X19062Y-141243D01*
X19523Y-140641D01*
X19813Y-139941D01*
X19912Y-139189D01*
Y-134630D01*
X19813Y-133878D01*
X19523Y-133178D01*
X19062Y-132576D01*
X18460Y-132115D01*
X17760Y-131825D01*
X17008Y-131726D01*
D02*
G37*
G36*
X-76339Y-135227D02*
X-77204D01*
X-78004Y-135558D01*
X-78615Y-136170D01*
X-78947Y-136969D01*
Y-137834D01*
X-78615Y-138634D01*
X-78004Y-139245D01*
X-77204Y-139576D01*
X-76339D01*
X-75540Y-139245D01*
X-74928Y-138634D01*
X-74597Y-137834D01*
Y-136969D01*
X-74928Y-136170D01*
X-75540Y-135558D01*
X-76339Y-135227D01*
D02*
G37*
G36*
X54567Y-135620D02*
X53701D01*
X52902Y-135952D01*
X52290Y-136563D01*
X51959Y-137363D01*
Y-138228D01*
X52290Y-139027D01*
X52902Y-139639D01*
X53701Y-139970D01*
X54567D01*
X55366Y-139639D01*
X55978Y-139027D01*
X56309Y-138228D01*
Y-137363D01*
X55978Y-136563D01*
X55366Y-135952D01*
X54567Y-135620D01*
D02*
G37*
G36*
X-14331Y-127746D02*
X-15196D01*
X-15996Y-128077D01*
X-16608Y-128689D01*
X-16939Y-129489D01*
Y-130354D01*
X-16687Y-130961D01*
X-16889Y-131443D01*
X-16926Y-131501D01*
X-17148Y-131744D01*
X-17760Y-131825D01*
X-18460Y-132115D01*
X-19062Y-132576D01*
X-19523Y-133178D01*
X-19813Y-133878D01*
X-19912Y-134630D01*
Y-139189D01*
X-19813Y-139941D01*
X-19523Y-140641D01*
X-19062Y-141243D01*
X-18460Y-141704D01*
X-17760Y-141994D01*
X-17008Y-142093D01*
X-16256Y-141994D01*
X-15556Y-141704D01*
X-14954Y-141243D01*
X-14493Y-140641D01*
X-14390Y-140394D01*
X-13533Y-140415D01*
X-13371Y-140806D01*
X-12853Y-141324D01*
X-12177Y-141604D01*
X-11445D01*
X-10769Y-141324D01*
X-10251Y-140806D01*
X-9971Y-140130D01*
Y-139398D01*
X-10251Y-138721D01*
X-10769Y-138204D01*
X-11445Y-137924D01*
X-12177D01*
X-12853Y-138204D01*
X-13304Y-138654D01*
X-13617Y-138617D01*
X-14104Y-138409D01*
Y-134630D01*
X-14202Y-133878D01*
X-14493Y-133178D01*
X-14709Y-132896D01*
X-14331Y-132096D01*
X-13532Y-131765D01*
X-12920Y-131153D01*
X-12589Y-130354D01*
Y-129489D01*
X-12920Y-128689D01*
X-13532Y-128077D01*
X-14331Y-127746D01*
D02*
G37*
G36*
X-42775Y-134735D02*
X-43840D01*
X-44868Y-135010D01*
X-45791Y-135543D01*
X-46544Y-136296D01*
X-47076Y-137218D01*
X-47352Y-138247D01*
Y-139312D01*
X-47076Y-140341D01*
X-46544Y-141263D01*
X-45791Y-142016D01*
X-44868Y-142549D01*
X-43840Y-142824D01*
X-42775D01*
X-41746Y-142549D01*
X-40824Y-142016D01*
X-40070Y-141263D01*
X-39538Y-140341D01*
X-39262Y-139312D01*
Y-138247D01*
X-39538Y-137218D01*
X-40070Y-136296D01*
X-40824Y-135543D01*
X-41746Y-135010D01*
X-42775Y-134735D01*
D02*
G37*
G36*
X-120630Y-143494D02*
X-121496D01*
X-122295Y-143826D01*
X-122907Y-144437D01*
X-123238Y-145237D01*
Y-146102D01*
X-122907Y-146901D01*
X-122295Y-147513D01*
X-121496Y-147844D01*
X-120630D01*
X-119831Y-147513D01*
X-119219Y-146901D01*
X-118888Y-146102D01*
Y-145237D01*
X-119219Y-144437D01*
X-119831Y-143826D01*
X-120630Y-143494D01*
D02*
G37*
G36*
X-42775Y-144735D02*
X-43840D01*
X-44868Y-145010D01*
X-45791Y-145543D01*
X-46544Y-146296D01*
X-47076Y-147218D01*
X-47352Y-148247D01*
Y-149312D01*
X-47076Y-150341D01*
X-46544Y-151263D01*
X-45791Y-152016D01*
X-44868Y-152549D01*
X-43840Y-152824D01*
X-42775D01*
X-41746Y-152549D01*
X-40824Y-152016D01*
X-40070Y-151263D01*
X-39538Y-150341D01*
X-39262Y-149312D01*
Y-148247D01*
X-39538Y-147218D01*
X-40070Y-146296D01*
X-40824Y-145543D01*
X-41746Y-145010D01*
X-42775Y-144735D01*
D02*
G37*
G36*
X17008Y-146618D02*
X16235Y-146720D01*
X15514Y-147019D01*
X14895Y-147494D01*
X14420Y-148112D01*
X14122Y-148833D01*
X14020Y-149606D01*
Y-154331D01*
X14122Y-155104D01*
X14420Y-155825D01*
X14895Y-156443D01*
X15514Y-156918D01*
X16235Y-157217D01*
X17008Y-157318D01*
X17781Y-157217D01*
X18502Y-156918D01*
X19121Y-156443D01*
X19595Y-155825D01*
X19894Y-155104D01*
X19996Y-154331D01*
Y-149606D01*
X19894Y-148833D01*
X19595Y-148112D01*
X19121Y-147494D01*
X18502Y-147019D01*
X17781Y-146720D01*
X17008Y-146618D01*
D02*
G37*
G36*
X-17008D02*
X-17781Y-146720D01*
X-18502Y-147019D01*
X-19120Y-147494D01*
X-19595Y-148112D01*
X-19894Y-148833D01*
X-19996Y-149606D01*
Y-154331D01*
X-19894Y-155104D01*
X-19595Y-155825D01*
X-19120Y-156443D01*
X-18502Y-156918D01*
X-17781Y-157217D01*
X-17008Y-157318D01*
X-16235Y-157217D01*
X-15514Y-156918D01*
X-14895Y-156443D01*
X-14420Y-155825D01*
X-14122Y-155104D01*
X-14020Y-154331D01*
Y-149606D01*
X-14122Y-148833D01*
X-14420Y-148112D01*
X-14895Y-147494D01*
X-15514Y-147019D01*
X-16235Y-146720D01*
X-17008Y-146618D01*
D02*
G37*
%LPD*%
G36*
X29207Y50150D02*
X32824Y47861D01*
X36262Y45311D01*
X39503Y42516D01*
X42529Y39489D01*
X45323Y36247D01*
X47871Y32808D01*
X50159Y29191D01*
X51291Y27070D01*
X50641Y26588D01*
X26588Y50641D01*
X27070Y51291D01*
X29207Y50150D01*
D02*
G37*
G36*
X-26588Y50641D02*
X-50641Y26588D01*
X-51291Y27070D01*
X-50150Y29207D01*
X-47861Y32824D01*
X-45311Y36262D01*
X-42516Y39503D01*
X-39489Y42529D01*
X-36247Y45323D01*
X-32808Y47871D01*
X-29191Y50159D01*
X-27070Y51291D01*
X-26588Y50641D01*
D02*
G37*
G36*
X9843Y94603D02*
Y93950D01*
X9421Y93529D01*
X9200Y93198D01*
X8901Y92475D01*
X8823Y92084D01*
Y91693D01*
X8823Y91692D01*
X8823Y91692D01*
X8861Y59861D01*
Y59520D01*
X8895Y59349D01*
X8920Y59176D01*
X9151Y58533D01*
X9241Y58383D01*
X9323Y58229D01*
X9757Y57701D01*
X9892Y57590D01*
X10022Y57473D01*
X10609Y57122D01*
X10773Y57063D01*
X10935Y56997D01*
X11261Y56933D01*
X13352Y56478D01*
X17487Y55338D01*
X21518Y53898D01*
X22184Y53603D01*
X53602Y22185D01*
X53602Y22185D01*
X53905Y21500D01*
X55343Y17469D01*
X56483Y13334D01*
X56938Y11233D01*
X56939Y11232D01*
X56939Y11231D01*
X56940Y11223D01*
X57005Y10897D01*
X57071Y10736D01*
X57130Y10571D01*
X57481Y9984D01*
X57598Y9855D01*
X57709Y9720D01*
X58237Y9285D01*
X58391Y9203D01*
X58540Y9113D01*
X59184Y8883D01*
X59357Y8857D01*
X59528Y8823D01*
X59870D01*
X91693Y8823D01*
X92084D01*
X92475Y8901D01*
X93198Y9200D01*
X93529Y9421D01*
X93950Y9843D01*
X113189D01*
Y7399D01*
X112592Y7080D01*
X111302Y6021D01*
X110243Y4731D01*
X109456Y3258D01*
X108971Y1661D01*
X108808Y-0D01*
X108971Y-1661D01*
X109456Y-3259D01*
X110243Y-4731D01*
X111302Y-6021D01*
X112592Y-7080D01*
X113189Y-7399D01*
Y-9843D01*
X93950D01*
X93529Y-9421D01*
X93198Y-9200D01*
X92475Y-8901D01*
X92084Y-8823D01*
X91693D01*
X91692Y-8823D01*
X91692Y-8823D01*
X59861Y-8861D01*
X59861Y-8861D01*
X59520D01*
X59349Y-8895D01*
X59176Y-8920D01*
X58533Y-9151D01*
X58383Y-9241D01*
X58229Y-9323D01*
X57701Y-9757D01*
X57590Y-9892D01*
X57473Y-10022D01*
X57122Y-10609D01*
X57063Y-10773D01*
X56997Y-10935D01*
X56933Y-11261D01*
X56478Y-13352D01*
X55709Y-16142D01*
X52165Y-19685D01*
X-52165D01*
X-55709Y-16141D01*
X-56483Y-13334D01*
X-56938Y-11233D01*
X-56938Y-11232D01*
X-56938Y-11232D01*
X-56940Y-11223D01*
X-57005Y-10897D01*
X-57071Y-10736D01*
X-57130Y-10571D01*
X-57481Y-9984D01*
X-57598Y-9855D01*
X-57709Y-9720D01*
X-58237Y-9286D01*
X-58391Y-9203D01*
X-58540Y-9113D01*
X-59184Y-8883D01*
X-59357Y-8857D01*
X-59528Y-8823D01*
X-59870D01*
X-59870Y-8823D01*
X-91693Y-8823D01*
X-92084D01*
X-92475Y-8901D01*
X-93198Y-9200D01*
X-93529Y-9421D01*
X-93950Y-9843D01*
X-113189D01*
Y-7399D01*
X-112592Y-7080D01*
X-111302Y-6021D01*
X-110243Y-4731D01*
X-109456Y-3259D01*
X-108971Y-1661D01*
X-108808Y-0D01*
X-108971Y1661D01*
X-109456Y3258D01*
X-110243Y4731D01*
X-111302Y6021D01*
X-112592Y7080D01*
X-113189Y7399D01*
Y12795D01*
X-95472D01*
Y9843D01*
X-93950D01*
X-93529Y9421D01*
X-93198Y9200D01*
X-92475Y8901D01*
X-92084Y8823D01*
X-91693D01*
X-91692Y8823D01*
X-91692Y8823D01*
X-59861Y8861D01*
X-59520D01*
X-59349Y8895D01*
X-59176Y8920D01*
X-58533Y9151D01*
X-58383Y9241D01*
X-58229Y9323D01*
X-57701Y9757D01*
X-57590Y9892D01*
X-57473Y10022D01*
X-57122Y10609D01*
X-57064Y10773D01*
X-56997Y10935D01*
X-56933Y11261D01*
X-56478Y13352D01*
X-55338Y17487D01*
X-53898Y21518D01*
X-53603Y22184D01*
X-22185Y53602D01*
X-21500Y53905D01*
X-17469Y55343D01*
X-13334Y56483D01*
X-11233Y56938D01*
X-11232Y56939D01*
X-11231Y56939D01*
X-11223Y56940D01*
X-10897Y57005D01*
X-10736Y57071D01*
X-10571Y57130D01*
X-9984Y57481D01*
X-9855Y57598D01*
X-9720Y57708D01*
X-9286Y58237D01*
X-9203Y58391D01*
X-9113Y58540D01*
X-8883Y59184D01*
X-8857Y59357D01*
X-8823Y59528D01*
X-8823Y59870D01*
X-8823Y91693D01*
Y92084D01*
X-8901Y92475D01*
X-9200Y93198D01*
X-9421Y93529D01*
X-9975Y94083D01*
X-10306Y94304D01*
X-11029Y94603D01*
X-11419Y94681D01*
X-12203D01*
X-12593Y94603D01*
X-13316Y94304D01*
X-13647Y94083D01*
X-14201Y93529D01*
X-14218Y93504D01*
X-14764D01*
Y92262D01*
X-14799Y92084D01*
Y88547D01*
X-24606Y78740D01*
X-51335D01*
X-51543Y79240D01*
X-51306Y79477D01*
X-50975Y80276D01*
Y81141D01*
X-51306Y81941D01*
X-51918Y82552D01*
X-52717Y82884D01*
X-53582D01*
X-54382Y82552D01*
X-54993Y81941D01*
X-55324Y81141D01*
Y80276D01*
X-54993Y79477D01*
X-54757Y79240D01*
X-54964Y78740D01*
X-73819D01*
Y137795D01*
X9843D01*
X9843Y94603D01*
D02*
G37*
%LPC*%
G36*
X-44843Y114380D02*
X-45708D01*
X-46507Y114048D01*
X-47119Y113437D01*
X-47450Y112637D01*
Y111772D01*
X-47119Y110973D01*
X-46507Y110361D01*
X-45708Y110030D01*
X-44843D01*
X-44044Y110361D01*
X-43432Y110973D01*
X-43101Y111772D01*
Y112637D01*
X-43432Y113437D01*
X-44044Y114048D01*
X-44843Y114380D01*
D02*
G37*
G36*
X-0Y125838D02*
X-1661Y125674D01*
X-3259Y125190D01*
X-4731Y124403D01*
X-6021Y123344D01*
X-7080Y122054D01*
X-7867Y120581D01*
X-8351Y118984D01*
X-8515Y117323D01*
X-8351Y115662D01*
X-7867Y114064D01*
X-7080Y112592D01*
X-6021Y111302D01*
X-4731Y110243D01*
X-3259Y109456D01*
X-1661Y108971D01*
X-0Y108808D01*
X1661Y108971D01*
X3258Y109456D01*
X4731Y110243D01*
X6021Y111302D01*
X7080Y112592D01*
X7867Y114064D01*
X8351Y115662D01*
X8515Y117323D01*
X8351Y118984D01*
X7867Y120581D01*
X7080Y122054D01*
X6021Y123344D01*
X4731Y124403D01*
X3258Y125190D01*
X1661Y125674D01*
X-0Y125838D01*
D02*
G37*
G36*
X-33032Y107490D02*
X-33897D01*
X-34696Y107159D01*
X-35308Y106547D01*
X-35639Y105748D01*
Y104882D01*
X-35308Y104083D01*
X-34696Y103471D01*
X-33897Y103140D01*
X-33032D01*
X-32233Y103471D01*
X-31621Y104083D01*
X-31290Y104882D01*
Y105748D01*
X-31621Y106547D01*
X-32233Y107159D01*
X-33032Y107490D01*
D02*
G37*
G36*
X-64528Y101584D02*
X-65393D01*
X-66193Y101253D01*
X-66804Y100641D01*
X-67135Y99842D01*
Y98977D01*
X-66804Y98177D01*
X-66193Y97566D01*
X-65393Y97235D01*
X-64528D01*
X-63729Y97566D01*
X-63117Y98177D01*
X-62786Y98977D01*
Y99842D01*
X-63117Y100641D01*
X-63729Y101253D01*
X-64528Y101584D01*
D02*
G37*
G36*
X-33032Y97647D02*
X-33897D01*
X-34696Y97316D01*
X-35308Y96704D01*
X-35639Y95905D01*
Y95040D01*
X-35308Y94240D01*
X-34696Y93629D01*
X-33897Y93298D01*
X-33032D01*
X-32233Y93629D01*
X-31621Y94240D01*
X-31290Y95040D01*
Y95905D01*
X-31621Y96704D01*
X-32233Y97316D01*
X-33032Y97647D01*
D02*
G37*
G36*
X20177Y41485D02*
X18902Y41359D01*
X17676Y40987D01*
X16545Y40383D01*
X15555Y39570D01*
X14742Y38580D01*
X14138Y37449D01*
X13766Y36223D01*
X13640Y34948D01*
X13766Y33673D01*
X14138Y32446D01*
X14742Y31316D01*
X15555Y30325D01*
X16545Y29513D01*
X17676Y28909D01*
X18902Y28536D01*
X20177Y28411D01*
X21452Y28536D01*
X22679Y28909D01*
X23809Y29513D01*
X24800Y30325D01*
X25613Y31316D01*
X26217Y32446D01*
X26588Y33673D01*
X26714Y34948D01*
X26588Y36223D01*
X26217Y37449D01*
X25613Y38580D01*
X24800Y39570D01*
X23809Y40383D01*
X22679Y40987D01*
X21452Y41359D01*
X20177Y41485D01*
D02*
G37*
G36*
X11259Y14970D02*
X10394D01*
X9595Y14639D01*
X8983Y14027D01*
X8652Y13228D01*
Y12363D01*
X8983Y11563D01*
X9595Y10952D01*
X10394Y10621D01*
X11259D01*
X12059Y10952D01*
X12671Y11563D01*
X13002Y12363D01*
Y13228D01*
X12671Y14027D01*
X12059Y14639D01*
X11259Y14970D01*
D02*
G37*
G36*
X20118Y11033D02*
X19252D01*
X18453Y10702D01*
X17841Y10090D01*
X17510Y9291D01*
Y8426D01*
X17841Y7626D01*
X18453Y7015D01*
X19252Y6684D01*
X20118D01*
X20917Y7015D01*
X21529Y7626D01*
X21860Y8426D01*
Y9291D01*
X21529Y10090D01*
X20917Y10702D01*
X20118Y11033D01*
D02*
G37*
G36*
X-40354Y6537D02*
X-41630Y6411D01*
X-42856Y6039D01*
X-43986Y5435D01*
X-44977Y4622D01*
X-45790Y3632D01*
X-46394Y2502D01*
X-46766Y1275D01*
X-46891Y-0D01*
X-46766Y-1275D01*
X-46394Y-2502D01*
X-45790Y-3632D01*
X-44977Y-4622D01*
X-43986Y-5435D01*
X-42856Y-6039D01*
X-41630Y-6411D01*
X-40354Y-6537D01*
X-39079Y-6411D01*
X-37853Y-6039D01*
X-36723Y-5435D01*
X-35732Y-4622D01*
X-34919Y-3632D01*
X-34315Y-2502D01*
X-33943Y-1275D01*
X-33817Y-0D01*
X-33943Y1275D01*
X-34315Y2502D01*
X-34919Y3632D01*
X-35732Y4622D01*
X-36723Y5435D01*
X-37853Y6039D01*
X-39079Y6411D01*
X-40354Y6537D01*
D02*
G37*
G36*
X38677Y14799D02*
X30221D01*
X30123Y14780D01*
X30022D01*
X29452Y14666D01*
X29359Y14628D01*
X29260Y14608D01*
X28723Y14385D01*
X28640Y14330D01*
X28547Y14291D01*
X28063Y13968D01*
X27992Y13897D01*
X27909Y13841D01*
X27497Y13430D01*
X27441Y13347D01*
X27371Y13275D01*
X27047Y12792D01*
X27009Y12699D01*
X26953Y12616D01*
X26730Y12078D01*
X26711Y11980D01*
X26673Y11887D01*
X26559Y11316D01*
Y11216D01*
X26539Y11118D01*
Y10827D01*
Y-10827D01*
X26539Y-10827D01*
Y-11118D01*
X26559Y-11216D01*
Y-11316D01*
X26673Y-11887D01*
X26711Y-11980D01*
X26731Y-12078D01*
X26953Y-12616D01*
X27009Y-12699D01*
X27047Y-12792D01*
X27371Y-13275D01*
X27441Y-13347D01*
X27497Y-13430D01*
X27909Y-13841D01*
X27992Y-13897D01*
X28063Y-13968D01*
X28547Y-14291D01*
X28640Y-14330D01*
X28723Y-14386D01*
X29260Y-14608D01*
X29359Y-14628D01*
X29452Y-14666D01*
X30022Y-14780D01*
X30123D01*
X30221Y-14799D01*
X38677Y-14799D01*
X38775Y-14780D01*
X38876D01*
X39446Y-14666D01*
X39539Y-14628D01*
X39637Y-14608D01*
X40175Y-14386D01*
X40258Y-14330D01*
X40351Y-14291D01*
X40835Y-13968D01*
X40906Y-13897D01*
X40989Y-13841D01*
X41400Y-13430D01*
X41456Y-13347D01*
X41527Y-13275D01*
X41850Y-12792D01*
X41889Y-12699D01*
X41945Y-12616D01*
X42167Y-12078D01*
X42187Y-11980D01*
X42225Y-11887D01*
X42339Y-11316D01*
Y-11216D01*
X42358Y-11118D01*
Y-10827D01*
Y10827D01*
Y11118D01*
X42339Y11216D01*
Y11316D01*
X42225Y11887D01*
X42187Y11980D01*
X42167Y12078D01*
X41945Y12616D01*
X41889Y12699D01*
X41850Y12792D01*
X41527Y13275D01*
X41456Y13347D01*
X41400Y13430D01*
X40989Y13841D01*
X40905Y13897D01*
X40835Y13968D01*
X40351Y14291D01*
X40258Y14330D01*
X40175Y14385D01*
X39637Y14608D01*
X39539Y14628D01*
X39446Y14666D01*
X38876Y14780D01*
X38775D01*
X38677Y14799D01*
D02*
G37*
%LPD*%
D11*
X-34449Y-107283D02*
X-4921D01*
X3937Y-98425D02*
Y-31793D01*
X-4921Y-107283D02*
X3937Y-98425D01*
X-6890Y-103347D02*
X0Y-96457D01*
Y-41339D01*
X-36417Y-103347D02*
X-6890D01*
X-35433Y-105315D02*
X-5906D01*
X1969Y-97441D01*
Y-34449D01*
X-7874Y-33465D02*
X0Y-41339D01*
X-7874Y-24606D02*
X1969Y-34449D01*
X0Y-27856D02*
X3937Y-31793D01*
X-19685Y-33465D02*
X-7874D01*
X-59055Y-128937D02*
X-35433Y-105315D01*
X-57087Y-129921D02*
X-34449Y-107283D01*
X-61024Y-127953D02*
X-36417Y-103347D01*
X-107283Y-144685D02*
X-65551D01*
X-61024Y-140157D02*
Y-127953D01*
X-65551Y-144685D02*
X-61024Y-140157D01*
X-102073Y-150591D02*
X-65945D01*
X-57087Y-141732D02*
Y-129921D01*
X-65945Y-150591D02*
X-57087Y-141732D01*
X-102362Y-150880D02*
X-102073Y-150591D01*
X-105204Y-147805D02*
X-66309D01*
X-59055Y-140551D02*
Y-128937D01*
X-66309Y-147805D02*
X-59055Y-140551D01*
D119*
X-77756Y-28543D02*
X-73819D01*
X-29528Y-72835D01*
X-23622D01*
D130*
X-14764Y-38386D02*
D03*
X-104331Y9843D02*
D03*
X-128937Y-104331D02*
D03*
X-32283Y-94488D02*
D03*
X-28346D02*
D03*
X-24409D02*
D03*
X-27559Y-112205D02*
D03*
X-23622D02*
D03*
X-31496D02*
D03*
X-102362Y-150880D02*
D03*
X-23622Y-72835D02*
D03*
X-77756Y-28543D02*
D03*
X-32480Y-83661D02*
D03*
X-85630Y-81693D02*
D03*
X-70866Y-113189D02*
D03*
X-29528Y-76772D02*
D03*
X-87598Y75787D02*
D03*
X-80709Y79724D02*
D03*
X-59055Y-148819D02*
D03*
X-70866Y-131496D02*
D03*
X-116508Y-131272D02*
D03*
X81890Y-137795D02*
D03*
X-19685Y-33465D02*
D03*
X-7874Y-24606D02*
D03*
X0Y-27856D02*
D03*
X114173Y-104331D02*
D03*
X66929D02*
D03*
X-105204Y-147805D02*
D03*
X-107283Y-144685D02*
D03*
X-40354Y129921D02*
D03*
Y108268D02*
D03*
X50197Y9843D02*
D03*
X-55118Y110236D02*
D03*
M02*
