G04*
G04 #@! TF.GenerationSoftware,Altium Limited,Altium Designer,23.2.1 (34)*
G04*
G04 Layer_Physical_Order=2*
G04 Layer_Color=16711680*
%FSLAX25Y25*%
%MOIN*%
G70*
G04*
G04 #@! TF.SameCoordinates,367E1BAD-0148-4484-8A4B-4069D69ABC48*
G04*
G04*
G04 #@! TF.FilePolarity,Positive*
G04*
G01*
G75*
%ADD31C,0.03937*%
G36*
X6639Y67404D02*
X11033Y66825D01*
X15380Y65960D01*
X19661Y64813D01*
X23858Y63389D01*
X27953Y61693D01*
X31928Y59732D01*
X35766Y57516D01*
X39451Y55054D01*
X42967Y52356D01*
X46299Y49434D01*
X49433Y46299D01*
X52356Y42967D01*
X55054Y39451D01*
X57516Y35766D01*
X59732Y31928D01*
X61693Y27952D01*
X63389Y23858D01*
X64813Y19661D01*
X65960Y15380D01*
X66825Y11033D01*
X67404Y6639D01*
X67693Y2216D01*
Y-2216D01*
X67404Y-6639D01*
X66825Y-11033D01*
X65960Y-15380D01*
X64813Y-19661D01*
X63389Y-23858D01*
X61693Y-27953D01*
X59732Y-31928D01*
X57516Y-35766D01*
X55054Y-39451D01*
X52356Y-42967D01*
X49434Y-46299D01*
X46299Y-49433D01*
X42967Y-52356D01*
X39451Y-55054D01*
X35766Y-57516D01*
X31928Y-59732D01*
X27952Y-61693D01*
X23858Y-63389D01*
X19661Y-64813D01*
X15380Y-65960D01*
X11033Y-66825D01*
X6639Y-67404D01*
X2216Y-67694D01*
X0Y-67693D01*
X-2216D01*
X-6639Y-67404D01*
X-11033Y-66825D01*
X-15380Y-65960D01*
X-19661Y-64813D01*
X-23858Y-63389D01*
X-27953Y-61693D01*
X-31928Y-59732D01*
X-35766Y-57516D01*
X-39451Y-55054D01*
X-42967Y-52356D01*
X-46299Y-49434D01*
X-49433Y-46300D01*
X-52356Y-42967D01*
X-55054Y-39451D01*
X-57516Y-35766D01*
X-59732Y-31928D01*
X-61693Y-27952D01*
X-63389Y-23858D01*
X-64813Y-19661D01*
X-65960Y-15380D01*
X-66825Y-11033D01*
X-67404Y-6639D01*
X-67694Y-2216D01*
X-67693Y-0D01*
Y2216D01*
X-67404Y6639D01*
X-66825Y11033D01*
X-65960Y15380D01*
X-64813Y19661D01*
X-63389Y23858D01*
X-61693Y27953D01*
X-59732Y31928D01*
X-57516Y35766D01*
X-55054Y39451D01*
X-52356Y42967D01*
X-49434Y46299D01*
X-46300Y49433D01*
X-42967Y52356D01*
X-39451Y55054D01*
X-35766Y57516D01*
X-31928Y59732D01*
X-27952Y61693D01*
X-23858Y63389D01*
X-19661Y64813D01*
X-15380Y65960D01*
X-11033Y66825D01*
X-6639Y67404D01*
X-2216Y67693D01*
X2216D01*
X6639Y67404D01*
D02*
G37*
%LPC*%
G36*
X518Y64196D02*
X-518D01*
X-673Y64166D01*
X-830Y64155D01*
X-1831Y63887D01*
X-1973Y63817D01*
X-2122Y63767D01*
X-3019Y63248D01*
X-3138Y63144D01*
X-3269Y63057D01*
X-4002Y62324D01*
X-4090Y62193D01*
X-4193Y62075D01*
X-4712Y61177D01*
X-4762Y61028D01*
X-4832Y60886D01*
X-5100Y59885D01*
X-5111Y59728D01*
X-5141Y59573D01*
Y59055D01*
Y35433D01*
Y34915D01*
X-5111Y34760D01*
X-5100Y34603D01*
X-4832Y33602D01*
X-4762Y33461D01*
X-4712Y33311D01*
X-4193Y32414D01*
X-4089Y32295D01*
X-4002Y32164D01*
X-3269Y31431D01*
X-3138Y31344D01*
X-3019Y31240D01*
X-2122Y30721D01*
X-1973Y30671D01*
X-1831Y30601D01*
X-830Y30333D01*
X-673Y30323D01*
X-518Y30292D01*
X518D01*
X673Y30323D01*
X830Y30333D01*
X1831Y30601D01*
X1973Y30671D01*
X2122Y30721D01*
X3019Y31240D01*
X3138Y31344D01*
X3269Y31431D01*
X4002Y32164D01*
X4090Y32295D01*
X4193Y32414D01*
X4712Y33311D01*
X4762Y33461D01*
X4832Y33602D01*
X5100Y34603D01*
X5111Y34760D01*
X5141Y34915D01*
Y35433D01*
Y59055D01*
Y59573D01*
X5111Y59728D01*
X5100Y59885D01*
X4832Y60886D01*
X4762Y61028D01*
X4712Y61177D01*
X4193Y62075D01*
X4089Y62193D01*
X4002Y62324D01*
X3269Y63057D01*
X3138Y63145D01*
X3019Y63248D01*
X2122Y63767D01*
X1973Y63817D01*
X1831Y63887D01*
X830Y64155D01*
X673Y64166D01*
X518Y64196D01*
D02*
G37*
G36*
X1045Y17149D02*
X-1045D01*
X-1123Y17134D01*
X-1202Y17139D01*
X-3275Y16866D01*
X-3350Y16840D01*
X-3429Y16835D01*
X-5448Y16294D01*
X-5519Y16259D01*
X-5597Y16244D01*
X-7528Y15444D01*
X-7594Y15400D01*
X-7670Y15374D01*
X-9480Y14329D01*
X-9539Y14277D01*
X-9611Y14242D01*
X-11269Y12969D01*
X-11321Y12909D01*
X-11387Y12865D01*
X-12865Y11387D01*
X-12909Y11321D01*
X-12969Y11269D01*
X-14242Y9611D01*
X-14277Y9539D01*
X-14329Y9480D01*
X-15374Y7670D01*
X-15400Y7594D01*
X-15444Y7528D01*
X-16244Y5597D01*
X-16259Y5519D01*
X-16294Y5448D01*
X-16835Y3429D01*
X-16840Y3350D01*
X-16866Y3274D01*
X-17139Y1202D01*
X-17134Y1123D01*
X-17149Y1045D01*
Y-1045D01*
X-17134Y-1123D01*
X-17139Y-1202D01*
X-16866Y-3274D01*
X-16840Y-3350D01*
X-16835Y-3429D01*
X-16294Y-5448D01*
X-16259Y-5519D01*
X-16244Y-5597D01*
X-15444Y-7528D01*
X-15400Y-7594D01*
X-15374Y-7670D01*
X-14329Y-9480D01*
X-14277Y-9539D01*
X-14242Y-9611D01*
X-12969Y-11269D01*
X-12909Y-11321D01*
X-12865Y-11387D01*
X-11387Y-12865D01*
X-11321Y-12909D01*
X-11269Y-12969D01*
X-9611Y-14242D01*
X-9539Y-14277D01*
X-9480Y-14329D01*
X-7670Y-15374D01*
X-7594Y-15400D01*
X-7528Y-15444D01*
X-5597Y-16244D01*
X-5519Y-16259D01*
X-5448Y-16294D01*
X-3429Y-16835D01*
X-3350Y-16840D01*
X-3274Y-16866D01*
X-1202Y-17139D01*
X-1123Y-17134D01*
X-1045Y-17149D01*
X1045D01*
X1123Y-17134D01*
X1202Y-17139D01*
X3274Y-16866D01*
X3350Y-16840D01*
X3429Y-16835D01*
X5448Y-16294D01*
X5519Y-16259D01*
X5597Y-16244D01*
X7528Y-15444D01*
X7594Y-15400D01*
X7670Y-15374D01*
X9480Y-14329D01*
X9539Y-14277D01*
X9611Y-14242D01*
X11269Y-12969D01*
X11321Y-12909D01*
X11387Y-12865D01*
X12865Y-11387D01*
X12909Y-11321D01*
X12969Y-11269D01*
X14242Y-9611D01*
X14277Y-9539D01*
X14329Y-9480D01*
X15374Y-7670D01*
X15400Y-7594D01*
X15444Y-7528D01*
X16244Y-5597D01*
X16259Y-5519D01*
X16294Y-5448D01*
X16835Y-3429D01*
X16840Y-3350D01*
X16866Y-3275D01*
X16996Y-2289D01*
X17505Y-2247D01*
X17583Y-2502D01*
X18187Y-3632D01*
X19000Y-4622D01*
X19990Y-5435D01*
X21120Y-6039D01*
X22347Y-6411D01*
X23622Y-6537D01*
X24897Y-6411D01*
X26124Y-6039D01*
X27254Y-5435D01*
X28244Y-4622D01*
X29057Y-3632D01*
X29661Y-2502D01*
X30033Y-1275D01*
X30159Y0D01*
X30033Y1275D01*
X29661Y2502D01*
X29057Y3632D01*
X28244Y4622D01*
X27254Y5435D01*
X26124Y6039D01*
X24897Y6411D01*
X23622Y6537D01*
X22347Y6411D01*
X21120Y6039D01*
X19990Y5435D01*
X19000Y4622D01*
X18187Y3632D01*
X17583Y2502D01*
X17505Y2247D01*
X16996Y2289D01*
X16866Y3274D01*
X16840Y3350D01*
X16835Y3429D01*
X16294Y5448D01*
X16259Y5519D01*
X16244Y5597D01*
X15444Y7528D01*
X15400Y7594D01*
X15374Y7670D01*
X14329Y9480D01*
X14277Y9539D01*
X14242Y9611D01*
X12969Y11269D01*
X12909Y11321D01*
X12865Y11387D01*
X11387Y12865D01*
X11321Y12909D01*
X11269Y12969D01*
X9611Y14242D01*
X9539Y14277D01*
X9480Y14329D01*
X7670Y15374D01*
X7594Y15400D01*
X7528Y15444D01*
X5597Y16244D01*
X5519Y16259D01*
X5448Y16294D01*
X3429Y16835D01*
X3350Y16840D01*
X3274Y16866D01*
X1202Y17139D01*
X1123Y17134D01*
X1045Y17149D01*
D02*
G37*
%LPD*%
D31*
X53150Y-24606D02*
D03*
X-19685Y-56102D02*
D03*
X-61024Y984D02*
D03*
X-13780Y55118D02*
D03*
X-51181Y38386D02*
D03*
X19685Y-48228D02*
D03*
X-1969Y-57087D02*
D03*
X-31496Y-9843D02*
D03*
X-8858Y43307D02*
D03*
X-984Y22638D02*
D03*
X21654Y15748D02*
D03*
X4921Y-23622D02*
D03*
X-42323Y-30512D02*
D03*
X-32480Y6890D02*
D03*
X-56102Y12795D02*
D03*
M02*
