G04*
G04 #@! TF.GenerationSoftware,Altium Limited,Altium Designer,23.2.1 (34)*
G04*
G04 Layer_Color=8388736*
%FSLAX25Y25*%
%MOIN*%
G70*
G04*
G04 #@! TF.SameCoordinates,367E1BAD-0148-4484-8A4B-4069D69ABC48*
G04*
G04*
G04 #@! TF.FilePolarity,Negative*
G04*
G01*
G75*
%ADD20R,0.04147X0.03950*%
%ADD21R,0.03950X0.04147*%
%ADD22R,0.03162X0.04737*%
%ADD23O,0.08674X0.04737*%
G04:AMPARAMS|DCode=24|XSize=86.74mil|YSize=21.78mil|CornerRadius=5.72mil|HoleSize=0mil|Usage=FLASHONLY|Rotation=90.000|XOffset=0mil|YOffset=0mil|HoleType=Round|Shape=RoundedRectangle|*
%AMROUNDEDRECTD24*
21,1,0.08674,0.01034,0,0,90.0*
21,1,0.07530,0.02178,0,0,90.0*
1,1,0.01145,0.00517,0.03765*
1,1,0.01145,0.00517,-0.03765*
1,1,0.01145,-0.00517,-0.03765*
1,1,0.01145,-0.00517,0.03765*
%
%ADD24ROUNDEDRECTD24*%
%ADD25R,0.06509X0.03753*%
%ADD26R,0.03556X0.04540*%
%ADD27C,0.11811*%
D20*
X-56102Y-11220D02*
D03*
Y-16339D02*
D03*
D21*
X-49606Y-3937D02*
D03*
X-54724D02*
D03*
X-29921Y-37402D02*
D03*
X-35039D02*
D03*
D22*
X-42125Y-10139D02*
D03*
X-49605D02*
D03*
X-45865Y-19588D02*
D03*
D23*
X-23622Y31496D02*
D03*
Y39370D02*
D03*
Y47244D02*
D03*
Y55118D02*
D03*
X23622Y31496D02*
D03*
Y39370D02*
D03*
Y47244D02*
D03*
Y55118D02*
D03*
D24*
X15157Y-42913D02*
D03*
X12402D02*
D03*
X9646D02*
D03*
X6890D02*
D03*
X4134D02*
D03*
X1378D02*
D03*
X-1378D02*
D03*
X-4134D02*
D03*
X-6890D02*
D03*
X-9646D02*
D03*
X-12402D02*
D03*
X-15157D02*
D03*
D25*
X-34449Y-30610D02*
D03*
Y-20571D02*
D03*
X-26575Y-30610D02*
D03*
Y-20571D02*
D03*
D26*
X0Y-31496D02*
D03*
X-6890D02*
D03*
D27*
X23622Y0D02*
D03*
M02*
