G04*
G04 #@! TF.GenerationSoftware,Altium Limited,Altium Designer,23.1.1 (15)*
G04*
G04 Layer_Color=32768*
%FSLAX25Y25*%
%MOIN*%
G70*
G04*
G04 #@! TF.SameCoordinates,F6A7181F-DDE4-4A95-89CB-3D27ECFAE574*
G04*
G04*
G04 #@! TF.FilePolarity,Positive*
G04*
G01*
G75*
%ADD13C,0.00394*%
D13*
X68898Y0D02*
X68890Y1000D01*
X68869Y1999D01*
X68832Y2998D01*
X68782Y3997D01*
X68716Y4994D01*
X68637Y5991D01*
X68542Y6986D01*
X68434Y7980D01*
X68311Y8972D01*
X68173Y9963D01*
X68022Y10951D01*
X67856Y11937D01*
X67675Y12920D01*
X67481Y13901D01*
X67272Y14878D01*
X67049Y15853D01*
X66812Y16824D01*
X66561Y17792D01*
X66296Y18756D01*
X66017Y19716D01*
X65724Y20672D01*
X65417Y21623D01*
X65096Y22570D01*
X64762Y23512D01*
X64414Y24449D01*
X64052Y25381D01*
X63677Y26308D01*
X63289Y27229D01*
X62887Y28145D01*
X62472Y29054D01*
X62044Y29958D01*
X61602Y30855D01*
X61148Y31746D01*
X60681Y32630D01*
X60201Y33507D01*
X59709Y34377D01*
X59204Y35239D01*
X58686Y36095D01*
X58156Y36942D01*
X57614Y37782D01*
X57060Y38614D01*
X56493Y39438D01*
X55915Y40254D01*
X55325Y41061D01*
X54724Y41860D01*
X54110Y42649D01*
X53486Y43430D01*
X52850Y44201D01*
X52203Y44964D01*
X51545Y45716D01*
X50876Y46459D01*
X50197Y47193D01*
X49507Y47916D01*
X48806Y48630D01*
X48096Y49333D01*
X47375Y50025D01*
X46644Y50708D01*
X45903Y51379D01*
X45153Y52040D01*
X44393Y52689D01*
X43624Y53328D01*
X42845Y53955D01*
X42058Y54571D01*
X41262Y55176D01*
X40457Y55769D01*
X39643Y56350D01*
X38821Y56919D01*
X37991Y57477D01*
X37153Y58022D01*
X36307Y58555D01*
X35454Y59075D01*
X34593Y59584D01*
X33725Y60079D01*
X32849Y60562D01*
X31967Y61033D01*
X31078Y61490D01*
X30183Y61935D01*
X29281Y62366D01*
X28373Y62784D01*
X27459Y63189D01*
X26539Y63581D01*
X25614Y63960D01*
X24683Y64324D01*
X23747Y64676D01*
X22806Y65014D01*
X21860Y65338D01*
X20910Y65648D01*
X19955Y65944D01*
X18996Y66227D01*
X18033Y66496D01*
X17066Y66751D01*
X16096Y66991D01*
X15122Y67218D01*
X14145Y67430D01*
X13165Y67628D01*
X12183Y67812D01*
X11197Y67982D01*
X10210Y68137D01*
X9220Y68278D01*
X8228Y68405D01*
X7235Y68517D01*
X6240Y68615D01*
X5244Y68698D01*
X4246Y68767D01*
X3248Y68821D01*
X2249Y68861D01*
X1250Y68886D01*
X250Y68897D01*
X-750Y68894D01*
X-1749Y68875D01*
X-2748Y68843D01*
X-3747Y68796D01*
X-4745Y68734D01*
X-5742Y68658D01*
X-6737Y68567D01*
X-7732Y68462D01*
X-8724Y68343D01*
X-9715Y68209D01*
X-10704Y68061D01*
X-11690Y67899D01*
X-12674Y67722D01*
X-13656Y67531D01*
X-14634Y67326D01*
X-15609Y67106D01*
X-16581Y66873D01*
X-17550Y66625D01*
X-18515Y66363D01*
X-19476Y66088D01*
X-20433Y65798D01*
X-21385Y65495D01*
X-22333Y65177D01*
X-23277Y64846D01*
X-24215Y64502D01*
X-25149Y64144D01*
X-26077Y63772D01*
X-27000Y63387D01*
X-27916Y62989D01*
X-28828Y62577D01*
X-29732Y62152D01*
X-30631Y61714D01*
X-31523Y61263D01*
X-32409Y60799D01*
X-33288Y60322D01*
X-34160Y59833D01*
X-35024Y59331D01*
X-35882Y58817D01*
X-36731Y58290D01*
X-37573Y57751D01*
X-38407Y57200D01*
X-39233Y56636D01*
X-40051Y56061D01*
X-40860Y55474D01*
X-41661Y54875D01*
X-42452Y54265D01*
X-43235Y53643D01*
X-44009Y53010D01*
X-44774Y52366D01*
X-45529Y51711D01*
X-46274Y51045D01*
X-47010Y50368D01*
X-47736Y49681D01*
X-48452Y48983D01*
X-49158Y48274D01*
X-49853Y47556D01*
X-50538Y46828D01*
X-51212Y46089D01*
X-51875Y45341D01*
X-52528Y44584D01*
X-53169Y43817D01*
X-53799Y43041D01*
X-54418Y42256D01*
X-55026Y41462D01*
X-55621Y40659D01*
X-56205Y39847D01*
X-56778Y39028D01*
X-57338Y38200D01*
X-57886Y37364D01*
X-58422Y36520D01*
X-58946Y35668D01*
X-59458Y34809D01*
X-59956Y33943D01*
X-60443Y33069D01*
X-60916Y32189D01*
X-61377Y31302D01*
X-61825Y30408D01*
X-62259Y29507D01*
X-62681Y28601D01*
X-63089Y27688D01*
X-63484Y26770D01*
X-63866Y25846D01*
X-64234Y24916D01*
X-64589Y23982D01*
X-64930Y23042D01*
X-65258Y22097D01*
X-65572Y21148D01*
X-65872Y20195D01*
X-66158Y19237D01*
X-66430Y18275D01*
X-66688Y17309D01*
X-66932Y16339D01*
X-67162Y15366D01*
X-67378Y14390D01*
X-67580Y13411D01*
X-67767Y12429D01*
X-67940Y11444D01*
X-68099Y10457D01*
X-68244Y9468D01*
X-68374Y8477D01*
X-68490Y7484D01*
X-68591Y6489D01*
X-68678Y5493D01*
X-68751Y4496D01*
X-68809Y3498D01*
X-68852Y2499D01*
X-68881Y1500D01*
X-68896Y500D01*
X-68896Y-499D01*
X-68881Y-1499D01*
X-68852Y-2498D01*
X-68809Y-3497D01*
X-68751Y-4495D01*
X-68678Y-5492D01*
X-68591Y-6488D01*
X-68490Y-7483D01*
X-68374Y-8476D01*
X-68244Y-9467D01*
X-68099Y-10456D01*
X-67941Y-11443D01*
X-67767Y-12428D01*
X-67580Y-13410D01*
X-67378Y-14389D01*
X-67162Y-15365D01*
X-66932Y-16338D01*
X-66688Y-17308D01*
X-66430Y-18274D01*
X-66158Y-19236D01*
X-65872Y-20194D01*
X-65572Y-21147D01*
X-65258Y-22097D01*
X-64931Y-23041D01*
X-64590Y-23981D01*
X-64235Y-24916D01*
X-63866Y-25845D01*
X-63485Y-26769D01*
X-63090Y-27687D01*
X-62681Y-28600D01*
X-62260Y-29506D01*
X-61825Y-30407D01*
X-61377Y-31301D01*
X-60917Y-32188D01*
X-60443Y-33068D01*
X-59957Y-33942D01*
X-59458Y-34808D01*
X-58947Y-35667D01*
X-58423Y-36519D01*
X-57887Y-37363D01*
X-57339Y-38199D01*
X-56778Y-39027D01*
X-56206Y-39847D01*
X-55622Y-40658D01*
X-55026Y-41461D01*
X-54419Y-42255D01*
X-53800Y-43040D01*
X-53170Y-43816D01*
X-52528Y-44583D01*
X-51876Y-45341D01*
X-51213Y-46089D01*
X-50538Y-46827D01*
X-49854Y-47555D01*
X-49158Y-48274D01*
X-48453Y-48982D01*
X-47737Y-49680D01*
X-47011Y-50367D01*
X-46275Y-51044D01*
X-45530Y-51710D01*
X-44774Y-52365D01*
X-44010Y-53009D01*
X-43236Y-53643D01*
X-42453Y-54264D01*
X-41661Y-54875D01*
X-40861Y-55473D01*
X-40051Y-56060D01*
X-39234Y-56636D01*
X-38408Y-57199D01*
X-37574Y-57750D01*
X-36732Y-58289D01*
X-35882Y-58816D01*
X-35025Y-59331D01*
X-34161Y-59833D01*
X-33289Y-60322D01*
X-32410Y-60799D01*
X-31524Y-61263D01*
X-30632Y-61714D01*
X-29733Y-62151D01*
X-28828Y-62576D01*
X-27917Y-62988D01*
X-27000Y-63387D01*
X-26078Y-63772D01*
X-25150Y-64143D01*
X-24216Y-64502D01*
X-23278Y-64846D01*
X-22334Y-65177D01*
X-21386Y-65494D01*
X-20434Y-65798D01*
X-19477Y-66087D01*
X-18516Y-66363D01*
X-17551Y-66625D01*
X-16582Y-66872D01*
X-15610Y-67106D01*
X-14635Y-67325D01*
X-13656Y-67531D01*
X-12675Y-67722D01*
X-11691Y-67898D01*
X-10705Y-68061D01*
X-9716Y-68209D01*
X-8725Y-68343D01*
X-7733Y-68462D01*
X-6738Y-68567D01*
X-5743Y-68658D01*
X-4746Y-68734D01*
X-3748Y-68796D01*
X-2749Y-68843D01*
X-1750Y-68875D01*
X-750Y-68894D01*
X249Y-68897D01*
X1249Y-68886D01*
X2248Y-68861D01*
X3247Y-68821D01*
X4246Y-68767D01*
X5243Y-68698D01*
X6239Y-68615D01*
X7234Y-68517D01*
X8228Y-68405D01*
X9220Y-68278D01*
X10209Y-68137D01*
X11197Y-67982D01*
X12182Y-67812D01*
X13165Y-67628D01*
X14145Y-67430D01*
X15122Y-67218D01*
X16096Y-66991D01*
X17066Y-66751D01*
X18033Y-66496D01*
X18996Y-66227D01*
X19955Y-65945D01*
X20910Y-65648D01*
X21860Y-65338D01*
X22806Y-65014D01*
X23747Y-64676D01*
X24683Y-64324D01*
X25613Y-63960D01*
X26539Y-63581D01*
X27459Y-63189D01*
X28373Y-62784D01*
X29281Y-62366D01*
X30183Y-61935D01*
X31078Y-61490D01*
X31967Y-61033D01*
X32849Y-60562D01*
X33725Y-60079D01*
X34593Y-59584D01*
X35454Y-59075D01*
X36307Y-58555D01*
X37153Y-58022D01*
X37991Y-57477D01*
X38821Y-56919D01*
X39643Y-56350D01*
X40457Y-55769D01*
X41262Y-55176D01*
X42058Y-54571D01*
X42845Y-53955D01*
X43624Y-53328D01*
X44393Y-52689D01*
X45153Y-52039D01*
X45903Y-51379D01*
X46644Y-50707D01*
X47375Y-50025D01*
X48096Y-49332D01*
X48806Y-48629D01*
X49507Y-47916D01*
X50197Y-47193D01*
X50876Y-46459D01*
X51545Y-45716D01*
X52203Y-44963D01*
X52850Y-44201D01*
X53486Y-43430D01*
X54111Y-42649D01*
X54724Y-41859D01*
X55325Y-41061D01*
X55915Y-40254D01*
X56494Y-39438D01*
X57060Y-38614D01*
X57614Y-37782D01*
X58156Y-36942D01*
X58686Y-36094D01*
X59204Y-35239D01*
X59709Y-34376D01*
X60202Y-33506D01*
X60681Y-32629D01*
X61148Y-31745D01*
X61603Y-30854D01*
X62044Y-29957D01*
X62472Y-29054D01*
X62887Y-28144D01*
X63289Y-27229D01*
X63677Y-26308D01*
X64052Y-25381D01*
X64414Y-24449D01*
X64762Y-23512D01*
X65096Y-22569D01*
X65417Y-21622D01*
X65724Y-20671D01*
X66017Y-19715D01*
X66296Y-18755D01*
X66561Y-17791D01*
X66812Y-16823D01*
X67049Y-15852D01*
X67272Y-14877D01*
X67481Y-13900D01*
X67676Y-12919D01*
X67856Y-11936D01*
X68022Y-10950D01*
X68174Y-9962D01*
X68311Y-8971D01*
X68434Y-7979D01*
X68543Y-6985D01*
X68637Y-5990D01*
X68716Y-4993D01*
X68782Y-3996D01*
X68832Y-2997D01*
X68869Y-1998D01*
X68890Y-999D01*
X68898Y0D01*
X15945D02*
X15913Y1001D01*
X15819Y1998D01*
X15663Y2988D01*
X15444Y3965D01*
X15165Y4927D01*
X14825Y5870D01*
X14427Y6789D01*
X13973Y7682D01*
X13463Y8544D01*
X12900Y9372D01*
X12286Y10164D01*
X11623Y10915D01*
X10915Y11623D01*
X10164Y12286D01*
X9372Y12900D01*
X8544Y13463D01*
X7682Y13973D01*
X6789Y14427D01*
X5870Y14825D01*
X4927Y15165D01*
X3965Y15444D01*
X2988Y15663D01*
X1998Y15819D01*
X1001Y15913D01*
X0Y15945D01*
X-1001Y15913D01*
X-1998Y15819D01*
X-2988Y15663D01*
X-3965Y15444D01*
X-4927Y15165D01*
X-5870Y14825D01*
X-6789Y14427D01*
X-7682Y13973D01*
X-8544Y13463D01*
X-9372Y12900D01*
X-10164Y12286D01*
X-10915Y11623D01*
X-11623Y10915D01*
X-12286Y10164D01*
X-12900Y9372D01*
X-13463Y8544D01*
X-13973Y7682D01*
X-14427Y6789D01*
X-14825Y5870D01*
X-15165Y4927D01*
X-15444Y3965D01*
X-15663Y2988D01*
X-15819Y1998D01*
X-15913Y1001D01*
X-15945Y-0D01*
X-15913Y-1001D01*
X-15819Y-1998D01*
X-15663Y-2988D01*
X-15444Y-3965D01*
X-15165Y-4927D01*
X-14825Y-5870D01*
X-14427Y-6789D01*
X-13973Y-7682D01*
X-13463Y-8544D01*
X-12900Y-9372D01*
X-12286Y-10164D01*
X-11623Y-10915D01*
X-10915Y-11623D01*
X-10164Y-12286D01*
X-9372Y-12900D01*
X-8544Y-13463D01*
X-7682Y-13973D01*
X-6789Y-14427D01*
X-5870Y-14825D01*
X-4927Y-15165D01*
X-3965Y-15444D01*
X-2988Y-15663D01*
X-1998Y-15819D01*
X-1001Y-15913D01*
X0Y-15945D01*
X1001Y-15913D01*
X1998Y-15819D01*
X2988Y-15662D01*
X3965Y-15444D01*
X4927Y-15165D01*
X5870Y-14825D01*
X6789Y-14427D01*
X7682Y-13973D01*
X8544Y-13463D01*
X9372Y-12900D01*
X10164Y-12286D01*
X10915Y-11623D01*
X11623Y-10915D01*
X12286Y-10164D01*
X12900Y-9372D01*
X13463Y-8544D01*
X13973Y-7681D01*
X14427Y-6789D01*
X14825Y-5870D01*
X15165Y-4927D01*
X15444Y-3965D01*
X15663Y-2988D01*
X15819Y-1998D01*
X15913Y-1001D01*
X15945Y0D01*
X3937Y59055D02*
X3803Y60074D01*
X3410Y61024D01*
X2784Y61839D01*
X1969Y62465D01*
X1019Y62858D01*
X0Y62992D01*
X-1019Y62858D01*
X-1969Y62465D01*
X-2784Y61839D01*
X-3410Y61024D01*
X-3803Y60074D01*
X-3937Y59055D01*
Y35433D02*
X-3803Y34414D01*
X-3410Y33465D01*
X-2784Y32649D01*
X-1969Y32024D01*
X-1019Y31630D01*
X0Y31496D01*
X1019Y31630D01*
X1969Y32024D01*
X2784Y32649D01*
X3410Y33465D01*
X3803Y34414D01*
X3937Y35433D01*
Y59055D01*
X-3937Y35433D02*
Y59055D01*
M02*
