G04*
G04 #@! TF.GenerationSoftware,Altium Limited,Altium Designer,23.1.1 (15)*
G04*
G04 Layer_Color=8388736*
%FSLAX25Y25*%
%MOIN*%
G70*
G04*
G04 #@! TF.SameCoordinates,F6A7181F-DDE4-4A95-89CB-3D27ECFAE574*
G04*
G04*
G04 #@! TF.FilePolarity,Negative*
G04*
G01*
G75*
%ADD21O,0.08674X0.04737*%
%ADD22R,0.04147X0.03950*%
%ADD23R,0.03950X0.04147*%
%ADD24R,0.03162X0.04737*%
G04:AMPARAMS|DCode=25|XSize=86.74mil|YSize=21.78mil|CornerRadius=5.72mil|HoleSize=0mil|Usage=FLASHONLY|Rotation=90.000|XOffset=0mil|YOffset=0mil|HoleType=Round|Shape=RoundedRectangle|*
%AMROUNDEDRECTD25*
21,1,0.08674,0.01034,0,0,90.0*
21,1,0.07530,0.02178,0,0,90.0*
1,1,0.01145,0.00517,0.03765*
1,1,0.01145,0.00517,-0.03765*
1,1,0.01145,-0.00517,-0.03765*
1,1,0.01145,-0.00517,0.03765*
%
%ADD25ROUNDEDRECTD25*%
%ADD26R,0.06509X0.03753*%
%ADD27R,0.03753X0.06509*%
%ADD28R,0.03556X0.04540*%
%ADD29C,0.11811*%
D21*
X-23622Y31496D02*
D03*
Y39370D02*
D03*
Y47244D02*
D03*
Y55118D02*
D03*
X23622Y31496D02*
D03*
Y39370D02*
D03*
Y47244D02*
D03*
Y55118D02*
D03*
D22*
X-12795Y-31102D02*
D03*
Y-25984D02*
D03*
X-45276Y-28150D02*
D03*
Y-23031D02*
D03*
D23*
X-43898Y-15748D02*
D03*
X-38780D02*
D03*
D24*
X-35038Y-31399D02*
D03*
X-38778Y-21950D02*
D03*
X-31298D02*
D03*
D25*
X15157Y-42913D02*
D03*
X12402D02*
D03*
X9646D02*
D03*
X6890D02*
D03*
X4134D02*
D03*
X1378D02*
D03*
X-1378D02*
D03*
X-4134D02*
D03*
X-6890D02*
D03*
X-9646D02*
D03*
X-12402D02*
D03*
X-15157D02*
D03*
D26*
X-21654Y-25689D02*
D03*
Y-15650D02*
D03*
D27*
X-6988Y-24606D02*
D03*
X3051D02*
D03*
D28*
X-492Y-31496D02*
D03*
X-7382D02*
D03*
D29*
X23622Y0D02*
D03*
M02*
