G04*
G04 #@! TF.GenerationSoftware,Altium Limited,Altium Designer,23.2.1 (34)*
G04*
G04 Layer_Physical_Order=1*
G04 Layer_Color=255*
%FSLAX25Y25*%
%MOIN*%
G70*
G04*
G04 #@! TF.SameCoordinates,367E1BAD-0148-4484-8A4B-4069D69ABC48*
G04*
G04*
G04 #@! TF.FilePolarity,Positive*
G04*
G01*
G75*
%ADD10C,0.01000*%
%ADD14R,0.03347X0.03150*%
%ADD15R,0.03150X0.03347*%
%ADD16R,0.02362X0.03937*%
G04:AMPARAMS|DCode=17|XSize=78.74mil|YSize=13.78mil|CornerRadius=1.72mil|HoleSize=0mil|Usage=FLASHONLY|Rotation=90.000|XOffset=0mil|YOffset=0mil|HoleType=Round|Shape=RoundedRectangle|*
%AMROUNDEDRECTD17*
21,1,0.07874,0.01034,0,0,90.0*
21,1,0.07530,0.01378,0,0,90.0*
1,1,0.00345,0.00517,0.03765*
1,1,0.00345,0.00517,-0.03765*
1,1,0.00345,-0.00517,-0.03765*
1,1,0.00345,-0.00517,0.03765*
%
%ADD17ROUNDEDRECTD17*%
%ADD18R,0.05709X0.02953*%
%ADD19R,0.02756X0.03740*%
%ADD28O,0.07874X0.03937*%
%ADD29C,0.01500*%
%ADD30C,0.01181*%
%ADD31C,0.03937*%
G36*
X6639Y67404D02*
X11033Y66825D01*
X15380Y65960D01*
X19661Y64813D01*
X23858Y63389D01*
X27953Y61693D01*
X31928Y59732D01*
X35766Y57516D01*
X39451Y55054D01*
X42967Y52356D01*
X46299Y49434D01*
X49433Y46299D01*
X52356Y42967D01*
X55054Y39451D01*
X57516Y35766D01*
X59732Y31928D01*
X61693Y27952D01*
X63389Y23858D01*
X64813Y19661D01*
X65960Y15380D01*
X66825Y11033D01*
X67404Y6639D01*
X67693Y2216D01*
Y-2216D01*
X67404Y-6639D01*
X66825Y-11033D01*
X65960Y-15380D01*
X64813Y-19661D01*
X63389Y-23858D01*
X61693Y-27953D01*
X59732Y-31928D01*
X57516Y-35766D01*
X55054Y-39451D01*
X52356Y-42967D01*
X49434Y-46299D01*
X46299Y-49433D01*
X42967Y-52356D01*
X39451Y-55054D01*
X35766Y-57516D01*
X31928Y-59732D01*
X27952Y-61693D01*
X23858Y-63389D01*
X19661Y-64813D01*
X15380Y-65960D01*
X11033Y-66825D01*
X6639Y-67404D01*
X2216Y-67694D01*
X0Y-67693D01*
X-2216D01*
X-6639Y-67404D01*
X-11033Y-66825D01*
X-15380Y-65960D01*
X-19661Y-64813D01*
X-23858Y-63389D01*
X-27953Y-61693D01*
X-31928Y-59732D01*
X-35766Y-57516D01*
X-39451Y-55054D01*
X-42967Y-52356D01*
X-46299Y-49434D01*
X-49433Y-46300D01*
X-52356Y-42967D01*
X-55054Y-39451D01*
X-57516Y-35766D01*
X-59732Y-31928D01*
X-61693Y-27952D01*
X-63389Y-23858D01*
X-64813Y-19661D01*
X-65960Y-15380D01*
X-66825Y-11033D01*
X-67404Y-6639D01*
X-67694Y-2216D01*
X-67693Y-0D01*
Y2216D01*
X-67404Y6639D01*
X-66825Y11033D01*
X-65960Y15380D01*
X-64813Y19661D01*
X-63389Y23858D01*
X-61693Y27953D01*
X-59732Y31928D01*
X-57516Y35766D01*
X-55054Y39451D01*
X-52356Y42967D01*
X-49434Y46299D01*
X-46300Y49433D01*
X-42967Y52356D01*
X-39451Y55054D01*
X-35766Y57516D01*
X-31928Y59732D01*
X-27952Y61693D01*
X-23858Y63389D01*
X-19661Y64813D01*
X-15380Y65960D01*
X-11033Y66825D01*
X-6639Y67404D01*
X-2216Y67693D01*
X2216D01*
X6639Y67404D01*
D02*
G37*
%LPC*%
G36*
X-21654Y58112D02*
X-23122D01*
Y55618D01*
X-18725D01*
X-18761Y55893D01*
X-19061Y56615D01*
X-19536Y57235D01*
X-20156Y57711D01*
X-20879Y58010D01*
X-21654Y58112D01*
D02*
G37*
G36*
X-24122D02*
X-25591D01*
X-26366Y58010D01*
X-27088Y57711D01*
X-27708Y57235D01*
X-28183Y56615D01*
X-28483Y55893D01*
X-28519Y55618D01*
X-24122D01*
Y58112D01*
D02*
G37*
G36*
X-18725Y54618D02*
X-23122D01*
Y52124D01*
X-21654D01*
X-20879Y52226D01*
X-20156Y52525D01*
X-19536Y53001D01*
X-19061Y53621D01*
X-18761Y54343D01*
X-18725Y54618D01*
D02*
G37*
G36*
X-24122D02*
X-28519D01*
X-28483Y54343D01*
X-28183Y53621D01*
X-27708Y53001D01*
X-27088Y52525D01*
X-26366Y52226D01*
X-25591Y52124D01*
X-24122D01*
Y54618D01*
D02*
G37*
G36*
X-21654Y49835D02*
X-25591D01*
X-26261Y49747D01*
X-26886Y49488D01*
X-27422Y49076D01*
X-27834Y48539D01*
X-27906Y48366D01*
X-36417D01*
X-36847Y48280D01*
X-37210Y48037D01*
X-37210Y48037D01*
X-48037Y37210D01*
X-48280Y36847D01*
X-48366Y36417D01*
X-48366Y36417D01*
Y14244D01*
X-55518Y7092D01*
X-55761Y6728D01*
X-55846Y6299D01*
X-55846Y6299D01*
Y-1664D01*
X-56899D01*
Y-6210D01*
X-56240D01*
Y-9046D01*
X-58376D01*
Y-13264D01*
X-58376Y-13395D01*
X-58693Y-13764D01*
X-58776D01*
Y-15839D01*
X-56102D01*
X-53429D01*
Y-13764D01*
X-53512D01*
X-53829Y-13395D01*
X-53829Y-13264D01*
Y-9046D01*
X-53997D01*
Y-6210D01*
X-52550D01*
Y-1664D01*
X-53603D01*
Y5835D01*
X-46451Y12986D01*
X-46451Y12987D01*
X-46208Y13350D01*
X-46123Y13780D01*
X-46123Y13780D01*
Y35953D01*
X-35953Y46123D01*
X-27906D01*
X-27834Y45949D01*
X-27422Y45412D01*
X-26886Y45000D01*
X-26261Y44742D01*
X-25591Y44653D01*
X-21654D01*
X-20983Y44742D01*
X-20358Y45000D01*
X-19822Y45412D01*
X-19410Y45949D01*
X-19151Y46574D01*
X-19063Y47244D01*
X-19151Y47915D01*
X-19410Y48539D01*
X-19822Y49076D01*
X-20358Y49488D01*
X-20983Y49747D01*
X-21654Y49835D01*
D02*
G37*
G36*
X518Y64196D02*
X-518D01*
X-673Y64166D01*
X-830Y64155D01*
X-1831Y63887D01*
X-1973Y63817D01*
X-2122Y63767D01*
X-3019Y63248D01*
X-3138Y63144D01*
X-3269Y63057D01*
X-4002Y62324D01*
X-4090Y62193D01*
X-4193Y62075D01*
X-4712Y61177D01*
X-4762Y61028D01*
X-4832Y60886D01*
X-5100Y59885D01*
X-5111Y59728D01*
X-5141Y59573D01*
Y59055D01*
Y35433D01*
Y34915D01*
X-5111Y34760D01*
X-5100Y34603D01*
X-4832Y33602D01*
X-4762Y33461D01*
X-4712Y33311D01*
X-4193Y32414D01*
X-4089Y32295D01*
X-4002Y32164D01*
X-3269Y31431D01*
X-3138Y31344D01*
X-3019Y31240D01*
X-2122Y30721D01*
X-1973Y30671D01*
X-1831Y30601D01*
X-830Y30333D01*
X-673Y30323D01*
X-518Y30292D01*
X518D01*
X673Y30323D01*
X830Y30333D01*
X1831Y30601D01*
X1973Y30671D01*
X2122Y30721D01*
X3019Y31240D01*
X3138Y31344D01*
X3269Y31431D01*
X4002Y32164D01*
X4090Y32295D01*
X4193Y32414D01*
X4712Y33311D01*
X4762Y33461D01*
X4832Y33602D01*
X5100Y34603D01*
X5111Y34760D01*
X5141Y34915D01*
Y35433D01*
Y59055D01*
Y59573D01*
X5111Y59728D01*
X5100Y59885D01*
X4832Y60886D01*
X4762Y61028D01*
X4712Y61177D01*
X4193Y62075D01*
X4089Y62193D01*
X4002Y62324D01*
X3269Y63057D01*
X3138Y63145D01*
X3019Y63248D01*
X2122Y63767D01*
X1973Y63817D01*
X1831Y63887D01*
X830Y64155D01*
X673Y64166D01*
X518Y64196D01*
D02*
G37*
G36*
X-47424Y-7170D02*
X-49105D01*
Y-9639D01*
X-47424D01*
Y-7170D01*
D02*
G37*
G36*
X-50105D02*
X-51786D01*
Y-9639D01*
X-50105D01*
Y-7170D01*
D02*
G37*
G36*
X25591Y57709D02*
X21654D01*
X20983Y57621D01*
X20358Y57362D01*
X19822Y56950D01*
X19410Y56413D01*
X19151Y55789D01*
X19063Y55118D01*
X19151Y54448D01*
X19410Y53823D01*
X19822Y53286D01*
X20358Y52874D01*
X20983Y52616D01*
X21654Y52527D01*
X25591D01*
X26261Y52616D01*
X26886Y52874D01*
X27422Y53286D01*
X27834Y53823D01*
X27906Y53997D01*
X30047D01*
X39233Y44811D01*
Y-10128D01*
X39023Y-10286D01*
X38523Y-10036D01*
Y40354D01*
X38438Y40784D01*
X38195Y41147D01*
X38195Y41147D01*
X31305Y48037D01*
X30941Y48280D01*
X30512Y48366D01*
X30512Y48366D01*
X27906D01*
X27834Y48539D01*
X27422Y49076D01*
X26886Y49488D01*
X26261Y49747D01*
X25591Y49835D01*
X21654D01*
X20983Y49747D01*
X20358Y49488D01*
X19822Y49076D01*
X19410Y48539D01*
X19151Y47915D01*
X19063Y47244D01*
X19151Y46574D01*
X19410Y45949D01*
X19822Y45412D01*
X20358Y45000D01*
X20983Y44742D01*
X21654Y44653D01*
X25591D01*
X26261Y44742D01*
X26886Y45000D01*
X27422Y45412D01*
X27834Y45949D01*
X27906Y46123D01*
X30047D01*
X36280Y39890D01*
Y-10128D01*
X36070Y-10286D01*
X35570Y-10036D01*
Y36417D01*
X35485Y36847D01*
X35242Y37210D01*
X35242Y37210D01*
X32289Y40163D01*
X31925Y40406D01*
X31496Y40492D01*
X31496Y40492D01*
X27906D01*
X27834Y40665D01*
X27422Y41202D01*
X26886Y41614D01*
X26261Y41873D01*
X25591Y41961D01*
X21654D01*
X20983Y41873D01*
X20358Y41614D01*
X19822Y41202D01*
X19410Y40665D01*
X19151Y40041D01*
X19063Y39370D01*
X19151Y38700D01*
X19410Y38075D01*
X19822Y37538D01*
X20358Y37126D01*
X20983Y36868D01*
X21654Y36779D01*
X25591D01*
X26261Y36868D01*
X26886Y37126D01*
X27422Y37538D01*
X27834Y38075D01*
X27906Y38249D01*
X31032D01*
X33327Y35953D01*
Y-10128D01*
X33118Y-10286D01*
X32618Y-10036D01*
Y29528D01*
X32618Y29528D01*
X32532Y29957D01*
X32289Y30321D01*
X30321Y32289D01*
X29957Y32532D01*
X29528Y32618D01*
X29528Y32618D01*
X27906D01*
X27834Y32791D01*
X27422Y33328D01*
X26886Y33740D01*
X26261Y33999D01*
X25591Y34087D01*
X21654D01*
X20983Y33999D01*
X20358Y33740D01*
X19822Y33328D01*
X19410Y32791D01*
X19151Y32167D01*
X19063Y31496D01*
X19151Y30825D01*
X19410Y30201D01*
X19822Y29664D01*
X20358Y29252D01*
X20983Y28994D01*
X21654Y28905D01*
X25591D01*
X26261Y28994D01*
X26886Y29252D01*
X27422Y29664D01*
X27834Y30201D01*
X27906Y30375D01*
X29063D01*
X30375Y29063D01*
Y1873D01*
X29875Y1799D01*
X29661Y2502D01*
X29057Y3632D01*
X28244Y4622D01*
X27254Y5435D01*
X26124Y6039D01*
X24897Y6411D01*
X23622Y6537D01*
X22347Y6411D01*
X21120Y6039D01*
X19990Y5435D01*
X19000Y4622D01*
X18187Y3632D01*
X17583Y2502D01*
X17505Y2247D01*
X16996Y2289D01*
X16866Y3274D01*
X16840Y3350D01*
X16835Y3429D01*
X16294Y5448D01*
X16259Y5519D01*
X16244Y5597D01*
X15444Y7528D01*
X15400Y7594D01*
X15374Y7670D01*
X14329Y9480D01*
X14277Y9539D01*
X14242Y9611D01*
X12969Y11269D01*
X12909Y11321D01*
X12865Y11387D01*
X11387Y12865D01*
X11321Y12909D01*
X11269Y12969D01*
X9611Y14242D01*
X9539Y14277D01*
X9480Y14329D01*
X7670Y15374D01*
X7594Y15400D01*
X7528Y15444D01*
X5597Y16244D01*
X5519Y16259D01*
X5448Y16294D01*
X3429Y16835D01*
X3350Y16840D01*
X3274Y16866D01*
X1202Y17139D01*
X1123Y17134D01*
X1045Y17149D01*
X-1045D01*
X-1123Y17134D01*
X-1202Y17139D01*
X-3275Y16866D01*
X-3350Y16840D01*
X-3429Y16835D01*
X-5448Y16294D01*
X-5519Y16259D01*
X-5597Y16244D01*
X-7528Y15444D01*
X-7594Y15400D01*
X-7670Y15374D01*
X-9480Y14329D01*
X-9539Y14277D01*
X-9611Y14242D01*
X-11269Y12969D01*
X-11321Y12909D01*
X-11387Y12865D01*
X-12865Y11387D01*
X-12909Y11321D01*
X-12969Y11269D01*
X-14242Y9611D01*
X-14277Y9539D01*
X-14329Y9480D01*
X-15374Y7670D01*
X-15400Y7594D01*
X-15444Y7528D01*
X-16244Y5597D01*
X-16259Y5519D01*
X-16294Y5448D01*
X-16835Y3429D01*
X-16840Y3350D01*
X-16866Y3274D01*
X-17079Y1655D01*
X-17579Y1688D01*
Y14944D01*
X-14955Y17568D01*
X-14955Y17568D01*
X-14712Y17932D01*
X-14627Y18361D01*
Y36417D01*
X-14712Y36847D01*
X-14955Y37210D01*
X-14955Y37210D01*
X-17908Y40163D01*
X-18272Y40406D01*
X-18701Y40492D01*
X-18701Y40492D01*
X-19338D01*
X-19410Y40665D01*
X-19822Y41202D01*
X-20358Y41614D01*
X-20983Y41873D01*
X-21654Y41961D01*
X-25591D01*
X-26261Y41873D01*
X-26886Y41614D01*
X-27422Y41202D01*
X-27834Y40665D01*
X-28093Y40041D01*
X-28181Y39370D01*
X-28093Y38700D01*
X-27834Y38075D01*
X-27422Y37538D01*
X-26886Y37126D01*
X-26261Y36868D01*
X-25591Y36779D01*
X-21654D01*
X-20983Y36868D01*
X-20358Y37126D01*
X-19822Y37538D01*
X-19529Y37920D01*
X-19036Y38010D01*
X-18905Y37988D01*
X-16870Y35953D01*
Y18826D01*
X-19494Y16202D01*
X-19737Y15838D01*
X-19822Y15409D01*
X-19822Y15409D01*
Y-10827D01*
X-19822Y-10827D01*
X-19737Y-11256D01*
X-19494Y-11620D01*
X-4566Y-26547D01*
Y-28669D01*
X-4912Y-29026D01*
X-8868D01*
Y-29234D01*
X-18309D01*
Y-15748D01*
X-18413Y-15221D01*
X-18712Y-14775D01*
X-22246Y-11241D01*
Y28905D01*
X-21654D01*
X-20983Y28994D01*
X-20358Y29252D01*
X-19822Y29664D01*
X-19410Y30201D01*
X-19151Y30825D01*
X-19063Y31496D01*
X-19151Y32167D01*
X-19410Y32791D01*
X-19822Y33328D01*
X-20358Y33740D01*
X-20983Y33999D01*
X-21654Y34087D01*
X-25591D01*
X-26261Y33999D01*
X-26886Y33740D01*
X-27422Y33328D01*
X-27834Y32791D01*
X-28093Y32167D01*
X-28181Y31496D01*
X-28093Y30825D01*
X-27834Y30201D01*
X-27422Y29664D01*
X-26886Y29252D01*
X-26261Y28994D01*
X-25591Y28905D01*
X-24998D01*
Y-11811D01*
X-24894Y-12338D01*
X-24595Y-12784D01*
X-21061Y-16318D01*
Y-29234D01*
X-23121D01*
Y-28534D01*
X-30029D01*
Y-29234D01*
X-30994D01*
Y-28534D01*
X-37903D01*
Y-32687D01*
X-36416D01*
Y-35128D01*
X-37214D01*
Y-39675D01*
X-32865D01*
Y-35128D01*
X-33663D01*
Y-32687D01*
X-30994D01*
Y-31987D01*
X-30029D01*
Y-32687D01*
X-23121D01*
Y-31987D01*
X-8868D01*
Y-33966D01*
X-8104D01*
Y-37149D01*
X-8604Y-37199D01*
X-8609Y-37169D01*
X-8853Y-36805D01*
X-8853Y-36805D01*
X-10034Y-35624D01*
X-10398Y-35381D01*
X-10827Y-35296D01*
X-10827Y-35296D01*
X-27746D01*
Y-35128D01*
X-32096D01*
Y-39675D01*
X-27746D01*
Y-37539D01*
X-16153D01*
X-16104Y-38039D01*
X-16132Y-38044D01*
X-16519Y-38304D01*
X-16778Y-38691D01*
X-16869Y-39149D01*
Y-42413D01*
X-15157D01*
Y-42913D01*
X-14658D01*
Y-47873D01*
X-14641D01*
X-14183Y-47782D01*
X-14023Y-47675D01*
X-13523Y-47943D01*
Y-49075D01*
X-37921D01*
X-44744Y-42253D01*
Y-22156D01*
X-44084D01*
Y-17019D01*
X-47646D01*
Y-22156D01*
X-46987D01*
Y-42717D01*
X-46987Y-42717D01*
X-46901Y-43147D01*
X-46658Y-43511D01*
X-39179Y-50990D01*
X-38815Y-51233D01*
X-38386Y-51318D01*
X-38386Y-51318D01*
X-12987D01*
X-12987Y-51318D01*
X-12558Y-51233D01*
X-12194Y-50990D01*
X-11609Y-50404D01*
X-11609Y-50404D01*
X-11365Y-50040D01*
X-11280Y-49611D01*
Y-47564D01*
X-11154Y-47467D01*
X-10719Y-47235D01*
X-10464Y-47406D01*
X-10162Y-47466D01*
X-9129D01*
X-8828Y-47406D01*
X-8572Y-47235D01*
X-8558Y-47214D01*
X-7977D01*
X-7963Y-47235D01*
X-7708Y-47406D01*
X-7406Y-47466D01*
X-6373D01*
X-6072Y-47406D01*
X-5496Y-47523D01*
X-5108Y-47782D01*
X-4651Y-47873D01*
X-4634D01*
Y-42913D01*
X-3634D01*
Y-47873D01*
X-3617D01*
X-3160Y-47782D01*
X-2772Y-47523D01*
X-2740D01*
X-2352Y-47782D01*
X-1895Y-47873D01*
X-1878D01*
Y-42913D01*
X-878D01*
Y-47873D01*
X-861D01*
X-404Y-47782D01*
X-16Y-47523D01*
X560Y-47406D01*
X861Y-47466D01*
X1895D01*
X2196Y-47406D01*
X2451Y-47235D01*
X2465Y-47214D01*
X3046D01*
X3060Y-47235D01*
X3316Y-47406D01*
X3617Y-47466D01*
X4651D01*
X4952Y-47406D01*
X5207Y-47235D01*
X5221Y-47214D01*
X5802D01*
X5816Y-47235D01*
X6072Y-47406D01*
X6373Y-47466D01*
X7406D01*
X7708Y-47406D01*
X7963Y-47235D01*
X7977Y-47214D01*
X8558D01*
X8572Y-47235D01*
X8828Y-47406D01*
X9129Y-47466D01*
X10162D01*
X10464Y-47406D01*
X10719Y-47235D01*
X10733Y-47214D01*
X11314D01*
X11328Y-47235D01*
X11584Y-47406D01*
X11885Y-47466D01*
X12918D01*
X13220Y-47406D01*
X13796Y-47523D01*
X14183Y-47782D01*
X14641Y-47873D01*
X14658D01*
Y-42913D01*
X15157D01*
Y-42413D01*
X16869D01*
Y-39149D01*
X16778Y-38691D01*
X16519Y-38304D01*
X16132Y-38044D01*
X15674Y-37953D01*
X15467D01*
X15276Y-37492D01*
X41147Y-11620D01*
X41390Y-11256D01*
X41476Y-10827D01*
X41476Y-10827D01*
Y45276D01*
X41476Y45276D01*
X41390Y45705D01*
X41147Y46069D01*
X41147Y46069D01*
X31305Y55911D01*
X30941Y56154D01*
X30512Y56240D01*
X30512Y56240D01*
X27906D01*
X27834Y56413D01*
X27422Y56950D01*
X26886Y57362D01*
X26261Y57621D01*
X25591Y57709D01*
D02*
G37*
G36*
X-47431Y-1664D02*
X-51781D01*
Y-6210D01*
X-47431D01*
Y-5059D01*
X-44756D01*
X-43246Y-6568D01*
Y-7570D01*
X-43906D01*
Y-12707D01*
X-40344D01*
Y-7570D01*
X-41003D01*
Y-6103D01*
X-41089Y-5674D01*
X-41332Y-5310D01*
X-41332Y-5310D01*
X-43498Y-3144D01*
X-43862Y-2901D01*
X-44291Y-2815D01*
X-44291Y-2815D01*
X-47431D01*
Y-1664D01*
D02*
G37*
G36*
X-47424Y-10639D02*
X-49105D01*
Y-13107D01*
X-47424D01*
Y-10639D01*
D02*
G37*
G36*
X-50105D02*
X-51786D01*
Y-13107D01*
X-50105D01*
Y-10639D01*
D02*
G37*
G36*
X-53429Y-16839D02*
X-55602D01*
Y-18913D01*
X-53429D01*
Y-16839D01*
D02*
G37*
G36*
X-56602D02*
X-58776D01*
Y-18913D01*
X-56602D01*
Y-16839D01*
D02*
G37*
G36*
X-26075Y-18094D02*
Y-20071D01*
X-22720D01*
Y-18094D01*
X-26075D01*
D02*
G37*
G36*
X-34949D02*
X-38303D01*
Y-20071D01*
X-34949D01*
Y-18094D01*
D02*
G37*
G36*
X-22720Y-21071D02*
X-26075D01*
Y-23047D01*
X-22720D01*
Y-21071D01*
D02*
G37*
G36*
X-34949D02*
X-38303D01*
Y-23047D01*
X-34949D01*
Y-21071D01*
D02*
G37*
G36*
X-30429Y-18094D02*
X-30929Y-18094D01*
X-33949D01*
Y-20571D01*
Y-23047D01*
X-30929D01*
X-30595Y-23047D01*
X-30095Y-23047D01*
X-27075D01*
Y-20571D01*
Y-18094D01*
X-30095D01*
X-30429Y-18094D01*
D02*
G37*
G36*
X16869Y-43413D02*
X15657D01*
Y-47873D01*
X15674D01*
X16132Y-47782D01*
X16519Y-47523D01*
X16778Y-47136D01*
X16869Y-46678D01*
Y-43413D01*
D02*
G37*
G36*
X-15657D02*
X-16869D01*
Y-46678D01*
X-16778Y-47136D01*
X-16519Y-47523D01*
X-16132Y-47782D01*
X-15674Y-47873D01*
X-15657D01*
Y-43413D01*
D02*
G37*
%LPD*%
G36*
X-16866Y-3274D02*
X-16840Y-3350D01*
X-16835Y-3429D01*
X-16294Y-5448D01*
X-16259Y-5519D01*
X-16244Y-5597D01*
X-15444Y-7528D01*
X-15400Y-7594D01*
X-15374Y-7670D01*
X-14329Y-9480D01*
X-14277Y-9539D01*
X-14242Y-9611D01*
X-12969Y-11269D01*
X-12909Y-11321D01*
X-12865Y-11387D01*
X-11387Y-12865D01*
X-11321Y-12909D01*
X-11269Y-12969D01*
X-9611Y-14242D01*
X-9539Y-14277D01*
X-9480Y-14329D01*
X-7670Y-15374D01*
X-7594Y-15400D01*
X-7528Y-15444D01*
X-5597Y-16244D01*
X-5519Y-16259D01*
X-5448Y-16294D01*
X-3429Y-16835D01*
X-3350Y-16840D01*
X-3274Y-16866D01*
X-1202Y-17139D01*
X-1123Y-17134D01*
X-1045Y-17149D01*
X1045D01*
X1123Y-17134D01*
X1202Y-17139D01*
X3274Y-16866D01*
X3350Y-16840D01*
X3429Y-16835D01*
X5448Y-16294D01*
X5519Y-16259D01*
X5597Y-16244D01*
X7528Y-15444D01*
X7594Y-15400D01*
X7670Y-15374D01*
X9480Y-14329D01*
X9539Y-14277D01*
X9611Y-14242D01*
X11269Y-12969D01*
X11321Y-12909D01*
X11387Y-12865D01*
X12865Y-11387D01*
X12909Y-11321D01*
X12969Y-11269D01*
X14242Y-9611D01*
X14277Y-9539D01*
X14329Y-9480D01*
X15374Y-7670D01*
X15400Y-7594D01*
X15444Y-7528D01*
X16244Y-5597D01*
X16259Y-5519D01*
X16294Y-5448D01*
X16835Y-3429D01*
X16840Y-3350D01*
X16866Y-3275D01*
X16996Y-2289D01*
X17505Y-2247D01*
X17583Y-2502D01*
X18187Y-3632D01*
X19000Y-4622D01*
X19990Y-5435D01*
X21120Y-6039D01*
X22347Y-6411D01*
X23622Y-6537D01*
X24897Y-6411D01*
X26124Y-6039D01*
X27254Y-5435D01*
X28244Y-4622D01*
X29057Y-3632D01*
X29661Y-2502D01*
X29875Y-1799D01*
X30375Y-1873D01*
Y-10362D01*
X3341Y-37396D01*
X3098Y-37760D01*
X3012Y-38189D01*
X3012Y-38189D01*
Y-38263D01*
X2886Y-38360D01*
X2736Y-38440D01*
X2239Y-38232D01*
X2225Y-38161D01*
X1982Y-37797D01*
X1982Y-37797D01*
X-987Y-34828D01*
X-796Y-34366D01*
X-500D01*
Y-31496D01*
Y-28626D01*
X-2323D01*
Y-26083D01*
X-2409Y-25653D01*
X-2652Y-25290D01*
X-2652Y-25290D01*
X-17579Y-10362D01*
Y-1688D01*
X-17079Y-1655D01*
X-16866Y-3274D01*
D02*
G37*
%LPC*%
G36*
X2378Y-28626D02*
X500D01*
Y-30996D01*
X2378D01*
Y-28626D01*
D02*
G37*
G36*
Y-31996D02*
X500D01*
Y-34366D01*
X2378D01*
Y-31996D01*
D02*
G37*
%LPD*%
D10*
X-3445Y-33957D02*
Y-26083D01*
X-18701Y-10827D02*
Y15409D01*
Y-10827D02*
X-3445Y-26083D01*
X-18701Y39370D02*
X-15748Y36417D01*
X-18701Y15409D02*
X-15748Y18361D01*
Y36417D01*
X-3445Y-33957D02*
X1189Y-38590D01*
Y-42724D02*
X1378Y-42913D01*
X1189Y-42724D02*
Y-38590D01*
X-23622Y39370D02*
X-18701D01*
X-45865Y-42717D02*
Y-19588D01*
Y-42717D02*
X-38386Y-50197D01*
X-12402Y-49611D02*
Y-42913D01*
X-12987Y-50197D02*
X-12402Y-49611D01*
X-38386Y-50197D02*
X-12987D01*
X-28937Y-36417D02*
X-10827D01*
X-29921Y-37402D02*
X-28937Y-36417D01*
X-9646Y-42913D02*
Y-37598D01*
X-10827Y-36417D02*
X-9646Y-37598D01*
X-47244Y36417D02*
X-36417Y47244D01*
X-54724Y6299D02*
X-47244Y13780D01*
Y36417D01*
X-36417Y47244D02*
X-23622D01*
X-54724Y-3937D02*
Y6299D01*
X-55118Y-4331D02*
X-54724Y-3937D01*
X-56102Y-11220D02*
X-55118Y-10236D01*
Y-4331D01*
X-49606Y-3937D02*
X-44291D01*
X30512Y55118D02*
X40354Y45276D01*
Y-10827D02*
Y45276D01*
X12591Y-38591D02*
X40354Y-10827D01*
X30512Y47244D02*
X37402Y40354D01*
X9804Y-38425D02*
X37402Y-10827D01*
Y40354D01*
X34449Y-10827D02*
Y36417D01*
X6949Y-38326D02*
X34449Y-10827D01*
X31496Y39370D02*
X34449Y36417D01*
X4134Y-38189D02*
X31496Y-10827D01*
X4134Y-42913D02*
Y-38189D01*
X31496Y-10827D02*
Y29528D01*
X6890Y-42913D02*
X6949Y-42854D01*
Y-38326D01*
X9646Y-42913D02*
X9804Y-42755D01*
Y-38425D01*
X12402Y-42913D02*
X12591Y-42724D01*
Y-38591D01*
X-44291Y-3937D02*
X-42125Y-6103D01*
Y-10139D02*
Y-6103D01*
X23622Y55118D02*
X30512D01*
X23622Y47244D02*
X30512D01*
X23622Y31496D02*
X29528D01*
X31496Y29528D01*
X23622Y39370D02*
X31496D01*
D14*
X-56102Y-11220D02*
D03*
Y-16339D02*
D03*
D15*
X-49606Y-3937D02*
D03*
X-54724D02*
D03*
X-29921Y-37402D02*
D03*
X-35039D02*
D03*
D16*
X-42125Y-10139D02*
D03*
X-49605D02*
D03*
X-45865Y-19588D02*
D03*
D17*
X15157Y-42913D02*
D03*
X12402D02*
D03*
X9646D02*
D03*
X6890D02*
D03*
X4134D02*
D03*
X1378D02*
D03*
X-1378D02*
D03*
X-4134D02*
D03*
X-6890D02*
D03*
X-9646D02*
D03*
X-12402D02*
D03*
X-15157D02*
D03*
D18*
X-34449Y-30610D02*
D03*
Y-20571D02*
D03*
X-26575Y-30610D02*
D03*
Y-20571D02*
D03*
D19*
X0Y-31496D02*
D03*
X-6890D02*
D03*
D28*
X-23622Y31496D02*
D03*
Y39370D02*
D03*
Y47244D02*
D03*
Y55118D02*
D03*
X23622Y31496D02*
D03*
Y39370D02*
D03*
Y47244D02*
D03*
Y55118D02*
D03*
D29*
X-19685Y-30610D02*
Y-15748D01*
X-23622Y-11811D02*
Y31496D01*
Y-11811D02*
X-19685Y-15748D01*
Y-30610D02*
X-7518D01*
X-26575D02*
X-19685D01*
X-35039Y-31201D02*
X-34449Y-30610D01*
X-35039Y-37402D02*
Y-31201D01*
X-7518Y-30610D02*
X-6890Y-31238D01*
Y-31496D02*
Y-31238D01*
X-34449Y-30610D02*
X-26575D01*
D30*
X-6890Y-42913D02*
Y-31496D01*
D31*
X53150Y-24606D02*
D03*
X-19685Y-56102D02*
D03*
X-61024Y984D02*
D03*
X-13780Y55118D02*
D03*
X-51181Y38386D02*
D03*
X19685Y-48228D02*
D03*
X-1969Y-57087D02*
D03*
X-31496Y-9843D02*
D03*
X-8858Y43307D02*
D03*
X-984Y22638D02*
D03*
X21654Y15748D02*
D03*
X4921Y-23622D02*
D03*
X-42323Y-30512D02*
D03*
X-32480Y6890D02*
D03*
X-56102Y12795D02*
D03*
M02*
